<svg id="svg" version="1.1" xmlns="http://www.w3.org/2000/svg" xmlns:xlink="http://www.w3.org/1999/xlink" width="400" height="132.83858998144711" viewBox="0, 0, 400,132.83858998144711"><g id="svgg"><path id="path0" d="M56.667 1.499 C 56.667 1.775,56.742 2.000,56.833 2.000 C 56.925 2.000,57.000 2.337,57.000 2.750 C 57.000 3.163,57.075 3.500,57.167 3.500 C 57.258 3.500,57.333 3.871,57.333 4.323 C 57.333 4.776,57.408 5.193,57.500 5.250 C 57.592 5.307,57.667 5.686,57.667 6.093 C 57.667 6.500,57.742 6.833,57.833 6.833 C 57.925 6.833,58.000 7.211,58.000 7.672 C 58.000 8.264,58.074 8.539,58.250 8.606 C 58.420 8.672,58.500 8.937,58.500 9.434 C 58.500 9.837,58.575 10.167,58.667 10.167 C 58.758 10.167,58.833 10.537,58.833 10.990 C 58.833 11.443,58.908 11.860,59.000 11.917 C 59.092 11.973,59.167 12.311,59.167 12.667 C 59.167 13.023,59.242 13.360,59.333 13.417 C 59.425 13.473,59.500 13.893,59.500 14.348 C 59.500 14.931,59.574 15.206,59.750 15.273 C 59.920 15.338,60.000 15.604,60.000 16.101 C 60.000 16.504,60.075 16.833,60.167 16.833 C 60.258 16.833,60.333 17.171,60.333 17.583 C 60.333 17.996,60.408 18.333,60.500 18.333 C 60.592 18.333,60.667 18.704,60.667 19.157 C 60.667 19.610,60.742 20.027,60.833 20.083 C 60.925 20.140,61.000 20.519,61.000 20.927 C 61.000 21.334,61.075 21.667,61.167 21.667 C 61.258 21.667,61.333 21.999,61.333 22.405 C 61.333 22.839,61.436 23.246,61.583 23.393 C 61.724 23.533,61.833 23.940,61.833 24.321 C 61.833 24.695,61.908 25.000,62.000 25.000 C 62.092 25.000,62.167 25.371,62.167 25.823 C 62.167 26.276,62.242 26.693,62.333 26.750 C 62.425 26.807,62.500 27.144,62.500 27.500 C 62.500 27.856,62.575 28.193,62.667 28.250 C 62.758 28.307,62.833 28.726,62.833 29.182 C 62.833 29.765,62.907 30.039,63.083 30.106 C 63.253 30.172,63.333 30.437,63.333 30.934 C 63.333 31.337,63.408 31.667,63.500 31.667 C 63.592 31.667,63.667 32.004,63.667 32.417 C 63.667 32.829,63.742 33.167,63.833 33.167 C 63.925 33.167,64.000 33.579,64.000 34.083 C 64.000 34.587,64.075 35.000,64.167 35.000 C 64.258 35.000,64.333 35.337,64.333 35.750 C 64.333 36.306,64.398 36.500,64.583 36.500 C 64.775 36.500,64.833 36.713,64.833 37.417 C 64.833 37.921,64.908 38.333,65.000 38.333 C 65.092 38.333,65.167 38.671,65.167 39.083 C 65.167 39.496,65.242 39.833,65.333 39.833 C 65.425 39.833,65.500 40.204,65.500 40.657 C 65.500 41.110,65.575 41.527,65.667 41.583 C 65.758 41.640,65.833 42.019,65.833 42.427 C 65.833 42.834,65.908 43.167,66.000 43.167 C 66.092 43.167,66.167 43.499,66.167 43.905 C 66.167 44.339,66.270 44.746,66.417 44.893 C 66.557 45.033,66.667 45.440,66.667 45.821 C 66.667 46.195,66.742 46.500,66.833 46.500 C 66.925 46.500,67.000 46.837,67.000 47.250 C 67.000 47.663,67.075 48.000,67.167 48.000 C 67.258 48.000,67.333 48.413,67.333 48.917 C 67.333 49.421,67.408 49.833,67.500 49.833 C 67.592 49.833,67.667 50.136,67.667 50.505 C 67.667 50.949,67.752 51.210,67.917 51.273 C 68.096 51.342,68.167 51.623,68.167 52.268 C 68.167 52.762,68.242 53.167,68.333 53.167 C 68.425 53.167,68.500 53.504,68.500 53.917 C 68.500 54.329,68.575 54.667,68.667 54.667 C 68.758 54.667,68.833 55.037,68.833 55.490 C 68.833 55.943,68.908 56.360,69.000 56.417 C 69.092 56.473,69.167 56.853,69.167 57.260 C 69.167 57.667,69.242 58.000,69.333 58.000 C 69.425 58.000,69.500 58.332,69.500 58.738 C 69.500 59.172,69.603 59.579,69.750 59.726 C 69.890 59.867,70.000 60.274,70.000 60.655 C 70.000 61.028,70.075 61.333,70.167 61.333 C 70.258 61.333,70.333 61.671,70.333 62.083 C 70.333 62.496,70.408 62.833,70.500 62.833 C 70.592 62.833,70.667 63.246,70.667 63.750 C 70.667 64.254,70.742 64.667,70.833 64.667 C 70.925 64.667,71.000 64.969,71.000 65.339 C 71.000 65.782,71.085 66.043,71.250 66.106 C 71.429 66.175,71.500 66.455,71.500 67.091 C 71.500 67.580,71.575 68.027,71.667 68.083 C 71.758 68.140,71.833 68.482,71.833 68.843 C 71.833 69.204,71.908 69.500,72.000 69.500 C 72.092 69.500,72.167 69.871,72.167 70.323 C 72.167 70.776,72.242 71.193,72.333 71.250 C 72.425 71.307,72.500 71.612,72.500 71.929 C 72.500 72.245,72.571 72.635,72.658 72.794 C 72.745 72.953,72.862 73.440,72.918 73.875 C 72.974 74.310,73.091 74.667,73.177 74.667 C 73.263 74.667,73.333 75.004,73.333 75.417 C 73.333 75.829,73.408 76.167,73.500 76.167 C 73.592 76.167,73.667 76.504,73.667 76.917 C 73.667 77.329,73.742 77.667,73.833 77.667 C 73.925 77.667,74.000 78.079,74.000 78.583 C 74.000 79.087,74.075 79.500,74.167 79.500 C 74.258 79.500,74.333 79.837,74.333 80.250 C 74.333 80.806,74.398 81.000,74.583 81.000 C 74.775 81.000,74.833 81.212,74.833 81.907 C 74.833 82.406,74.908 82.860,75.000 82.917 C 75.092 82.973,75.167 83.315,75.167 83.677 C 75.167 84.038,75.242 84.333,75.333 84.333 C 75.425 84.333,75.500 84.704,75.500 85.157 C 75.500 85.610,75.575 86.027,75.667 86.083 C 75.758 86.140,75.833 86.477,75.833 86.831 C 75.833 87.186,75.946 87.589,76.083 87.726 C 76.232 87.875,76.333 88.282,76.333 88.728 C 76.333 89.142,76.408 89.527,76.500 89.583 C 76.592 89.640,76.667 89.982,76.667 90.343 C 76.667 90.704,76.742 91.000,76.833 91.000 C 76.925 91.000,77.000 91.337,77.000 91.750 C 77.000 92.162,77.075 92.500,77.167 92.500 C 77.258 92.500,77.333 92.912,77.333 93.417 C 77.333 93.921,77.408 94.333,77.500 94.333 C 77.592 94.333,77.667 94.671,77.667 95.083 C 77.667 95.639,77.731 95.833,77.917 95.833 C 78.108 95.833,78.167 96.045,78.167 96.740 C 78.167 97.239,78.242 97.693,78.333 97.750 C 78.425 97.807,78.500 98.144,78.500 98.500 C 78.500 98.856,78.575 99.193,78.667 99.250 C 78.758 99.307,78.833 99.587,78.833 99.873 C 78.833 101.027,79.167 101.521,79.911 101.466 L 80.583 101.417 80.634 100.542 C 80.661 100.060,80.755 99.667,80.842 99.667 C 80.929 99.667,81.000 99.337,81.000 98.934 C 81.000 98.437,81.080 98.172,81.250 98.106 C 81.426 98.039,81.500 97.764,81.500 97.172 C 81.500 96.711,81.575 96.333,81.667 96.333 C 81.758 96.333,81.833 95.996,81.833 95.583 C 81.833 95.171,81.908 94.833,82.000 94.833 C 82.092 94.833,82.167 94.500,82.167 94.093 C 82.167 93.686,82.242 93.307,82.333 93.250 C 82.425 93.193,82.500 92.784,82.500 92.341 C 82.500 91.779,82.575 91.507,82.750 91.440 C 82.921 91.374,83.000 91.106,83.000 90.589 C 83.000 90.173,83.075 89.833,83.167 89.833 C 83.258 89.833,83.333 89.458,83.333 89.000 C 83.333 88.542,83.408 88.167,83.500 88.167 C 83.592 88.167,83.667 87.834,83.667 87.427 C 83.667 87.019,83.742 86.640,83.833 86.583 C 83.925 86.527,84.000 86.110,84.000 85.657 C 84.000 85.204,84.075 84.833,84.167 84.833 C 84.258 84.833,84.333 84.504,84.333 84.101 C 84.333 83.604,84.414 83.338,84.583 83.273 C 84.759 83.206,84.833 82.931,84.833 82.348 C 84.833 81.893,84.908 81.473,85.000 81.417 C 85.092 81.360,85.167 81.023,85.167 80.667 C 85.167 80.311,85.242 79.973,85.333 79.917 C 85.425 79.860,85.500 79.523,85.500 79.167 C 85.500 78.811,85.575 78.473,85.667 78.417 C 85.758 78.360,85.833 77.951,85.833 77.508 C 85.833 76.946,85.909 76.673,86.083 76.606 C 86.247 76.543,86.333 76.283,86.333 75.848 C 86.333 75.484,86.408 75.140,86.500 75.083 C 86.592 75.027,86.667 74.610,86.667 74.157 C 86.667 73.704,86.742 73.333,86.833 73.333 C 86.925 73.333,87.000 73.000,87.000 72.593 C 87.000 72.186,87.075 71.807,87.167 71.750 C 87.258 71.693,87.333 71.309,87.333 70.895 C 87.333 70.449,87.435 70.041,87.583 69.893 C 87.721 69.755,87.833 69.390,87.833 69.081 C 87.833 68.772,87.908 68.473,88.000 68.417 C 88.092 68.360,88.167 67.948,88.167 67.500 C 88.167 67.052,88.242 66.640,88.333 66.583 C 88.425 66.527,88.500 66.185,88.500 65.823 C 88.500 65.462,88.575 65.167,88.667 65.167 C 88.758 65.167,88.833 64.834,88.833 64.427 C 88.833 64.019,88.908 63.640,89.000 63.583 C 89.092 63.527,89.167 63.118,89.167 62.675 C 89.167 62.112,89.242 61.840,89.417 61.773 C 89.587 61.708,89.667 61.441,89.667 60.932 C 89.667 60.522,89.742 60.140,89.833 60.083 C 89.925 60.027,90.000 59.647,90.000 59.240 C 90.000 58.833,90.075 58.500,90.167 58.500 C 90.258 58.500,90.333 58.163,90.333 57.750 C 90.333 57.337,90.408 57.000,90.500 57.000 C 90.592 57.000,90.667 56.597,90.667 56.104 C 90.667 55.510,90.751 55.137,90.917 55.000 C 91.054 54.886,91.167 54.544,91.167 54.239 C 91.167 53.935,91.242 53.640,91.333 53.583 C 91.425 53.527,91.500 53.114,91.500 52.667 C 91.500 52.219,91.575 51.807,91.667 51.750 C 91.758 51.693,91.833 51.351,91.833 50.990 C 91.833 50.629,91.908 50.333,92.000 50.333 C 92.092 50.333,92.167 49.954,92.167 49.490 C 92.167 48.970,92.231 48.687,92.333 48.750 C 92.437 48.814,92.500 48.508,92.500 47.944 C 92.500 47.321,92.573 47.008,92.732 46.947 C 92.954 46.861,93.059 46.360,93.271 44.375 C 93.322 43.894,93.432 43.500,93.515 43.500 C 93.599 43.500,93.667 43.204,93.667 42.843 C 93.667 42.482,93.742 42.140,93.833 42.083 C 93.925 42.027,94.000 41.619,94.000 41.177 C 94.000 40.667,94.091 40.299,94.250 40.167 C 94.388 40.053,94.500 39.710,94.500 39.406 C 94.500 39.102,94.575 38.807,94.667 38.750 C 94.758 38.693,94.833 38.281,94.833 37.833 C 94.833 37.386,94.908 36.973,95.000 36.917 C 95.092 36.860,95.167 36.523,95.167 36.167 C 95.167 35.811,95.242 35.473,95.333 35.417 C 95.425 35.360,95.502 35.037,95.505 34.698 C 95.508 34.360,95.621 33.938,95.755 33.760 C 95.890 33.582,96.000 33.166,96.000 32.835 C 96.000 32.504,96.067 32.162,96.150 32.075 C 96.291 31.926,96.382 31.444,96.605 29.667 C 96.657 29.254,96.767 28.845,96.849 28.758 C 96.932 28.671,97.000 28.319,97.000 27.977 C 97.000 27.634,97.075 27.307,97.167 27.250 C 97.258 27.193,97.333 26.739,97.333 26.240 C 97.333 25.545,97.392 25.333,97.583 25.333 C 97.769 25.333,97.833 25.139,97.833 24.583 C 97.833 24.171,97.908 23.833,98.000 23.833 C 98.092 23.833,98.167 23.421,98.167 22.917 C 98.167 22.412,98.242 22.000,98.333 22.000 C 98.425 22.000,98.500 21.704,98.500 21.343 C 98.500 20.982,98.575 20.640,98.667 20.583 C 98.758 20.527,98.836 20.204,98.839 19.865 C 98.842 19.527,98.954 19.104,99.089 18.926 C 99.223 18.749,99.333 18.322,99.333 17.978 C 99.333 17.634,99.408 17.307,99.500 17.250 C 99.592 17.193,99.667 16.818,99.667 16.417 C 99.667 16.015,99.742 15.640,99.833 15.583 C 99.925 15.527,100.000 15.110,100.000 14.657 C 100.000 14.204,100.075 13.833,100.167 13.833 C 100.258 13.833,100.333 13.496,100.333 13.083 C 100.333 12.671,100.408 12.333,100.500 12.333 C 100.592 12.333,100.667 11.921,100.667 11.417 C 100.667 10.713,100.725 10.500,100.917 10.500 C 101.102 10.500,101.167 10.306,101.167 9.750 C 101.167 9.337,101.242 9.000,101.333 9.000 C 101.425 9.000,101.500 8.587,101.500 8.083 C 101.500 7.579,101.575 7.167,101.667 7.167 C 101.758 7.167,101.833 6.871,101.833 6.510 C 101.833 6.149,101.908 5.807,102.000 5.750 C 102.092 5.693,102.169 5.370,102.172 5.032 C 102.175 4.693,102.287 4.271,102.422 4.093 C 102.557 3.915,102.667 3.446,102.667 3.051 C 102.667 2.656,102.746 2.333,102.843 2.333 C 102.946 2.333,102.998 2.070,102.968 1.708 L 102.917 1.083 79.792 1.041 L 56.667 0.999 56.667 1.499 " stroke="none" fill="#046cbc" fill-rule="evenodd"></path><path id="path1" d="M0.000 64.249 L 0.000 127.500 30.500 127.500 L 61.000 127.500 61.000 126.917 C 61.000 126.596,60.925 126.333,60.833 126.333 C 60.742 126.333,60.667 125.963,60.667 125.510 C 60.667 125.057,60.592 124.640,60.500 124.583 C 60.408 124.527,60.333 124.200,60.333 123.857 C 60.333 123.514,60.262 123.162,60.175 123.075 C 60.087 122.987,59.997 122.637,59.974 122.296 C 59.951 121.955,59.835 121.639,59.716 121.593 C 59.583 121.542,59.500 121.220,59.500 120.755 C 59.500 120.340,59.425 120.000,59.333 120.000 C 59.242 120.000,59.167 119.662,59.167 119.250 C 59.167 118.837,59.092 118.500,59.000 118.500 C 58.908 118.500,58.833 118.204,58.833 117.843 C 58.833 117.482,58.758 117.140,58.667 117.083 C 58.575 117.027,58.499 116.741,58.498 116.448 C 58.495 115.722,58.326 115.151,58.148 115.262 C 58.066 115.312,58.000 115.016,58.000 114.603 C 58.000 114.191,57.925 113.807,57.833 113.750 C 57.742 113.693,57.667 113.356,57.667 113.000 C 57.667 112.644,57.592 112.307,57.500 112.250 C 57.408 112.193,57.333 111.851,57.333 111.490 C 57.333 111.129,57.258 110.833,57.167 110.833 C 57.075 110.833,57.000 110.496,57.000 110.083 C 57.000 109.671,56.925 109.333,56.833 109.333 C 56.742 109.333,56.667 109.031,56.667 108.661 C 56.667 108.218,56.582 107.957,56.417 107.894 C 56.237 107.825,56.167 107.544,56.167 106.899 C 56.167 106.404,56.092 106.000,56.000 106.000 C 55.908 106.000,55.833 105.662,55.833 105.250 C 55.833 104.837,55.758 104.500,55.667 104.500 C 55.575 104.500,55.500 104.215,55.500 103.867 C 55.500 103.518,55.429 103.162,55.342 103.075 C 55.255 102.988,55.166 102.598,55.143 102.208 C 55.117 101.758,55.022 101.500,54.884 101.500 C 54.738 101.500,54.667 101.256,54.667 100.750 C 54.667 100.337,54.592 100.000,54.500 100.000 C 54.408 100.000,54.333 99.662,54.333 99.250 C 54.333 98.837,54.258 98.500,54.167 98.500 C 54.075 98.500,54.000 98.129,54.000 97.677 C 54.000 97.224,53.925 96.807,53.833 96.750 C 53.742 96.693,53.667 96.359,53.667 96.008 C 53.667 95.594,53.579 95.335,53.417 95.273 C 53.245 95.207,53.167 94.939,53.167 94.422 C 53.167 94.007,53.092 93.667,53.000 93.667 C 52.908 93.667,52.833 93.371,52.833 93.010 C 52.833 92.649,52.758 92.307,52.667 92.250 C 52.575 92.193,52.500 91.809,52.500 91.397 C 52.500 90.939,52.435 90.687,52.333 90.750 C 52.232 90.813,52.167 90.561,52.167 90.103 C 52.167 89.691,52.101 89.313,52.022 89.263 C 51.942 89.214,51.839 88.781,51.793 88.302 C 51.747 87.823,51.624 87.403,51.521 87.368 C 51.418 87.334,51.333 87.016,51.333 86.663 C 51.333 86.309,51.258 85.973,51.167 85.917 C 51.075 85.860,51.000 85.518,51.000 85.157 C 51.000 84.796,50.925 84.500,50.833 84.500 C 50.742 84.500,50.667 84.162,50.667 83.750 C 50.667 83.337,50.592 83.000,50.500 83.000 C 50.408 83.000,50.333 82.698,50.333 82.328 C 50.333 81.885,50.248 81.624,50.083 81.560 C 49.914 81.495,49.833 81.229,49.833 80.732 C 49.833 80.329,49.758 80.000,49.667 80.000 C 49.575 80.000,49.500 79.587,49.500 79.083 C 49.500 78.579,49.425 78.167,49.333 78.167 C 49.242 78.167,49.167 77.829,49.167 77.417 C 49.167 77.004,49.092 76.667,49.000 76.667 C 48.908 76.667,48.833 76.371,48.833 76.010 C 48.833 75.649,48.758 75.307,48.667 75.250 C 48.575 75.193,48.500 74.894,48.500 74.585 C 48.500 74.277,48.387 73.911,48.250 73.774 C 48.110 73.633,48.000 73.226,48.000 72.845 C 48.000 72.472,47.925 72.167,47.833 72.167 C 47.742 72.167,47.667 71.882,47.667 71.533 C 47.667 71.185,47.599 70.829,47.516 70.742 C 47.433 70.655,47.323 70.246,47.271 69.833 C 47.055 68.108,46.954 67.669,46.733 67.486 C 46.598 67.374,46.500 66.985,46.500 66.563 C 46.500 66.162,46.425 65.833,46.333 65.833 C 46.242 65.833,46.167 65.496,46.167 65.083 C 46.167 64.671,46.092 64.333,46.000 64.333 C 45.908 64.333,45.833 63.996,45.833 63.583 C 45.833 63.171,45.758 62.833,45.667 62.833 C 45.575 62.833,45.500 62.538,45.500 62.177 C 45.500 61.815,45.425 61.473,45.333 61.417 C 45.242 61.360,45.166 61.074,45.166 60.782 C 45.165 60.489,45.053 60.035,44.916 59.773 C 44.779 59.510,44.667 59.041,44.667 58.731 C 44.667 58.421,44.592 58.167,44.500 58.167 C 44.408 58.167,44.333 57.829,44.333 57.417 C 44.333 57.004,44.258 56.667,44.167 56.667 C 44.075 56.667,44.000 56.335,44.000 55.931 C 44.000 55.526,43.929 55.169,43.842 55.139 C 43.755 55.108,43.665 54.765,43.642 54.375 C 43.616 53.925,43.522 53.667,43.384 53.667 C 43.238 53.667,43.167 53.422,43.167 52.917 C 43.167 52.504,43.092 52.167,43.000 52.167 C 42.908 52.167,42.833 51.796,42.833 51.343 C 42.833 50.890,42.758 50.473,42.667 50.417 C 42.575 50.360,42.500 49.981,42.500 49.573 C 42.500 49.166,42.425 48.833,42.333 48.833 C 42.242 48.833,42.167 48.531,42.167 48.161 C 42.167 47.718,42.082 47.457,41.917 47.394 C 41.747 47.328,41.667 47.063,41.667 46.566 C 41.667 46.163,41.592 45.833,41.500 45.833 C 41.408 45.833,41.333 45.496,41.333 45.083 C 41.333 44.671,41.258 44.333,41.167 44.333 C 41.075 44.333,41.000 43.996,41.000 43.583 C 41.000 43.171,40.925 42.833,40.833 42.833 C 40.742 42.833,40.667 42.463,40.667 42.010 C 40.667 41.557,40.592 41.140,40.500 41.083 C 40.408 41.027,40.333 40.731,40.333 40.427 C 40.333 40.123,40.221 39.781,40.083 39.667 C 39.941 39.549,39.833 39.185,39.833 38.823 C 39.833 38.473,39.758 38.140,39.667 38.083 C 39.575 38.027,39.500 37.647,39.500 37.240 C 39.500 36.833,39.425 36.500,39.333 36.500 C 39.242 36.500,39.167 36.204,39.167 35.843 C 39.167 35.482,39.092 35.140,39.000 35.083 C 38.908 35.027,38.833 34.693,38.833 34.341 C 38.833 33.927,38.745 33.669,38.583 33.606 C 38.407 33.539,38.333 33.265,38.333 32.682 C 38.333 32.226,38.258 31.807,38.167 31.750 C 38.075 31.693,38.000 31.351,38.000 30.990 C 38.000 30.629,37.925 30.333,37.833 30.333 C 37.742 30.333,37.667 29.996,37.667 29.583 C 37.667 29.171,37.592 28.833,37.500 28.833 C 37.408 28.833,37.333 28.496,37.333 28.083 C 37.333 27.671,37.258 27.333,37.167 27.333 C 37.075 27.333,37.000 27.076,37.000 26.762 C 37.000 26.448,36.887 26.078,36.750 25.940 C 36.610 25.800,36.500 25.393,36.500 25.012 C 36.500 24.639,36.425 24.333,36.333 24.333 C 36.242 24.333,36.167 23.921,36.167 23.417 C 36.167 22.912,36.092 22.500,36.000 22.500 C 35.908 22.500,35.833 22.162,35.833 21.750 C 35.833 21.337,35.758 21.000,35.667 21.000 C 35.575 21.000,35.500 20.698,35.500 20.328 C 35.500 19.885,35.415 19.624,35.250 19.560 C 35.080 19.495,35.000 19.229,35.000 18.732 C 35.000 18.329,34.925 18.000,34.833 18.000 C 34.742 18.000,34.667 17.662,34.667 17.250 C 34.667 16.837,34.592 16.500,34.500 16.500 C 34.408 16.500,34.333 16.162,34.333 15.750 C 34.333 15.338,34.258 15.000,34.167 15.000 C 34.075 15.000,34.000 14.633,34.000 14.184 C 34.000 13.613,33.925 13.340,33.750 13.273 C 33.586 13.210,33.500 12.950,33.500 12.515 C 33.500 12.151,33.425 11.807,33.333 11.750 C 33.242 11.693,33.167 11.314,33.167 10.907 C 33.167 10.500,33.092 10.167,33.000 10.167 C 32.908 10.167,32.833 9.825,32.833 9.407 C 32.833 8.943,32.768 8.687,32.667 8.750 C 32.565 8.813,32.500 8.561,32.500 8.103 C 32.500 7.691,32.425 7.307,32.333 7.250 C 32.242 7.193,32.167 6.851,32.167 6.490 C 32.167 6.017,32.097 5.833,31.917 5.833 C 31.731 5.833,31.667 5.639,31.667 5.083 C 31.667 4.671,31.592 4.333,31.500 4.333 C 31.408 4.333,31.333 3.921,31.333 3.417 C 31.333 2.913,31.263 2.500,31.176 2.500 C 31.090 2.500,30.996 2.181,30.968 1.792 L 30.917 1.083 15.458 1.041 L 0.000 0.998 0.000 64.249 " stroke="none" fill="#cc6c14" fill-rule="evenodd"></path><path id="path2" d="M125.042 13.616 C 124.924 13.660,124.833 13.976,124.833 14.337 C 124.833 14.691,124.758 15.027,124.667 15.083 C 124.575 15.140,124.500 15.482,124.500 15.843 C 124.500 16.204,124.425 16.500,124.333 16.500 C 124.242 16.500,124.167 16.837,124.167 17.250 C 124.167 17.662,124.096 18.000,124.010 18.000 C 123.924 18.000,123.803 18.337,123.741 18.750 C 123.679 19.162,123.562 19.500,123.481 19.500 C 123.400 19.500,123.333 19.837,123.333 20.250 C 123.333 20.662,123.258 21.000,123.167 21.000 C 123.075 21.000,123.000 21.337,123.000 21.750 C 123.000 22.162,122.925 22.500,122.833 22.500 C 122.742 22.500,122.667 22.837,122.667 23.250 C 122.667 23.662,122.592 24.000,122.500 24.000 C 122.408 24.000,122.333 24.329,122.333 24.732 C 122.333 25.229,122.253 25.495,122.083 25.560 C 121.928 25.620,121.833 25.874,121.833 26.235 C 121.833 26.553,121.758 26.860,121.667 26.917 C 121.575 26.973,121.500 27.353,121.500 27.760 C 121.500 28.167,121.425 28.500,121.333 28.500 C 121.242 28.500,121.167 28.796,121.167 29.157 C 121.167 29.518,121.092 29.860,121.000 29.917 C 120.908 29.973,120.833 30.309,120.833 30.663 C 120.833 31.016,120.750 31.333,120.648 31.367 C 120.545 31.402,120.429 31.724,120.390 32.085 C 120.350 32.445,120.262 32.780,120.194 32.828 C 120.127 32.877,120.049 33.217,120.022 33.583 C 119.995 33.950,119.904 34.321,119.820 34.408 C 119.736 34.495,119.667 34.852,119.667 35.200 C 119.667 35.548,119.592 35.833,119.500 35.833 C 119.408 35.833,119.333 36.171,119.333 36.583 C 119.333 36.996,119.258 37.333,119.167 37.333 C 119.075 37.333,119.000 37.671,119.000 38.083 C 119.000 38.639,118.935 38.833,118.750 38.833 C 118.565 38.833,118.500 39.028,118.500 39.583 C 118.500 39.996,118.425 40.333,118.333 40.333 C 118.242 40.333,118.167 40.671,118.167 41.083 C 118.167 41.496,118.092 41.833,118.000 41.833 C 117.908 41.833,117.833 42.129,117.833 42.490 C 117.833 42.851,117.758 43.193,117.667 43.250 C 117.575 43.307,117.500 43.642,117.500 43.996 C 117.500 44.350,117.418 44.666,117.317 44.700 C 117.216 44.733,117.094 45.116,117.045 45.551 C 116.996 45.985,116.891 46.381,116.811 46.430 C 116.732 46.479,116.667 46.815,116.667 47.177 C 116.667 47.538,116.592 47.833,116.500 47.833 C 116.408 47.833,116.333 48.133,116.333 48.500 C 116.333 48.867,116.273 49.167,116.199 49.167 C 116.126 49.167,116.047 49.485,116.024 49.875 C 116.002 50.265,115.912 50.608,115.825 50.639 C 115.738 50.669,115.667 51.018,115.667 51.413 C 115.667 51.897,115.585 52.162,115.417 52.227 C 115.245 52.293,115.167 52.562,115.167 53.088 C 115.167 53.556,115.102 53.813,115.000 53.750 C 114.897 53.686,114.833 53.998,114.833 54.573 C 114.833 55.083,114.758 55.500,114.667 55.500 C 114.575 55.500,114.500 55.837,114.500 56.250 C 114.500 56.663,114.425 57.000,114.333 57.000 C 114.242 57.000,114.167 57.337,114.167 57.750 C 114.167 58.306,114.102 58.500,113.917 58.500 C 113.731 58.500,113.667 58.694,113.667 59.250 C 113.667 59.663,113.592 60.000,113.500 60.000 C 113.408 60.000,113.333 60.296,113.333 60.657 C 113.333 61.018,113.258 61.360,113.167 61.417 C 113.075 61.473,113.000 61.811,113.000 62.167 C 113.000 62.523,112.925 62.860,112.833 62.917 C 112.742 62.973,112.667 63.309,112.667 63.663 C 112.667 64.016,112.587 64.332,112.489 64.365 C 112.392 64.397,112.269 64.741,112.217 65.129 C 112.165 65.516,112.058 65.833,111.978 65.833 C 111.898 65.833,111.833 66.171,111.833 66.583 C 111.833 66.996,111.758 67.333,111.667 67.333 C 111.575 67.333,111.500 67.671,111.500 68.083 C 111.500 68.496,111.425 68.833,111.333 68.833 C 111.242 68.833,111.167 69.171,111.167 69.583 C 111.167 69.996,111.092 70.333,111.000 70.333 C 110.908 70.333,110.833 70.671,110.833 71.083 C 110.833 71.639,110.769 71.833,110.583 71.833 C 110.398 71.833,110.333 72.028,110.333 72.583 C 110.333 72.996,110.258 73.333,110.167 73.333 C 110.075 73.333,110.000 73.671,110.000 74.083 C 110.000 74.496,109.925 74.833,109.833 74.833 C 109.742 74.833,109.667 75.171,109.667 75.583 C 109.667 75.996,109.592 76.333,109.500 76.333 C 109.408 76.333,109.333 76.627,109.333 76.986 C 109.333 77.345,109.252 77.666,109.153 77.699 C 109.054 77.732,108.935 78.057,108.888 78.421 C 108.841 78.785,108.734 79.155,108.651 79.242 C 108.568 79.329,108.500 79.681,108.500 80.023 C 108.500 80.366,108.425 80.693,108.333 80.750 C 108.242 80.807,108.167 81.144,108.167 81.500 C 108.167 81.856,108.092 82.193,108.000 82.250 C 107.908 82.307,107.833 82.649,107.833 83.010 C 107.833 83.371,107.758 83.667,107.667 83.667 C 107.575 83.667,107.500 83.972,107.500 84.345 C 107.500 84.726,107.390 85.133,107.250 85.274 C 107.112 85.411,107.000 85.777,107.000 86.085 C 107.000 86.394,106.925 86.693,106.833 86.750 C 106.742 86.807,106.667 87.149,106.667 87.510 C 106.667 87.871,106.592 88.167,106.500 88.167 C 106.408 88.167,106.333 88.504,106.333 88.917 C 106.333 89.329,106.258 89.667,106.167 89.667 C 106.075 89.667,106.000 89.996,106.000 90.399 C 106.000 90.896,105.920 91.162,105.750 91.227 C 105.585 91.290,105.500 91.551,105.500 91.995 C 105.500 92.364,105.425 92.667,105.333 92.667 C 105.242 92.667,105.167 93.004,105.167 93.417 C 105.167 93.829,105.092 94.167,105.000 94.167 C 104.908 94.167,104.833 94.462,104.833 94.823 C 104.833 95.185,104.758 95.527,104.667 95.583 C 104.575 95.640,104.500 95.982,104.500 96.343 C 104.500 96.704,104.425 97.000,104.333 97.000 C 104.242 97.000,104.167 97.375,104.167 97.833 C 104.167 98.405,104.099 98.667,103.951 98.667 C 103.820 98.667,103.718 98.913,103.693 99.291 C 103.670 99.635,103.579 99.987,103.492 100.075 C 103.405 100.162,103.333 100.514,103.333 100.857 C 103.333 101.200,103.258 101.527,103.167 101.583 C 103.075 101.640,103.000 101.982,103.000 102.343 C 103.000 102.704,102.925 103.000,102.833 103.000 C 102.742 103.000,102.667 103.329,102.667 103.732 C 102.667 104.176,102.582 104.497,102.452 104.547 C 102.334 104.592,102.218 104.919,102.195 105.273 C 102.171 105.627,102.080 105.942,101.993 105.972 C 101.905 106.003,101.833 106.359,101.833 106.764 C 101.833 107.169,101.758 107.500,101.667 107.500 C 101.575 107.500,101.500 107.837,101.500 108.250 C 101.500 108.662,101.425 109.000,101.333 109.000 C 101.242 109.000,101.167 109.404,101.167 109.899 C 101.167 110.498,101.092 110.826,100.942 110.884 C 100.819 110.931,100.711 111.212,100.703 111.508 C 100.695 111.804,100.608 112.125,100.510 112.223 C 100.413 112.320,100.333 112.685,100.333 113.033 C 100.333 113.382,100.258 113.667,100.167 113.667 C 100.075 113.667,100.000 114.000,100.000 114.407 C 100.000 114.814,99.925 115.193,99.833 115.250 C 99.742 115.307,99.667 115.649,99.667 116.010 C 99.667 116.371,99.592 116.667,99.500 116.667 C 99.408 116.667,99.333 117.004,99.333 117.417 C 99.333 117.972,99.269 118.167,99.083 118.167 C 98.899 118.167,98.833 118.360,98.833 118.907 C 98.833 119.314,98.758 119.693,98.667 119.750 C 98.575 119.807,98.500 120.149,98.500 120.510 C 98.500 120.871,98.425 121.167,98.333 121.167 C 98.242 121.167,98.167 121.504,98.167 121.917 C 98.167 122.329,98.092 122.667,98.000 122.667 C 97.908 122.667,97.833 122.996,97.833 123.399 C 97.833 123.896,97.753 124.162,97.583 124.227 C 97.418 124.290,97.333 124.551,97.333 124.995 C 97.333 125.364,97.254 125.667,97.158 125.667 C 97.051 125.667,97.002 126.009,97.033 126.542 L 97.083 127.417 100.712 127.462 C 103.833 127.500,104.355 127.471,104.438 127.253 C 104.524 127.030,105.803 127.000,115.101 127.000 L 125.667 127.000 125.667 70.532 C 125.667 12.060,125.681 13.377,125.042 13.616 " stroke="none" fill="#0ca43c" fill-rule="evenodd"></path><path id="path3" d="M351.167 0.115 C 350.479 0.152,349.846 0.254,349.759 0.341 C 349.671 0.429,349.238 0.500,348.795 0.500 C 348.233 0.500,347.961 0.576,347.894 0.750 C 347.828 0.920,347.563 1.000,347.066 1.000 C 346.663 1.000,346.333 1.075,346.333 1.167 C 346.333 1.258,345.996 1.333,345.583 1.333 C 345.171 1.333,344.833 1.408,344.833 1.500 C 344.833 1.592,344.608 1.667,344.333 1.667 C 344.058 1.667,343.833 1.742,343.833 1.833 C 343.833 1.925,343.571 2.000,343.250 2.000 C 342.929 2.000,342.667 2.075,342.667 2.167 C 342.667 2.258,342.531 2.333,342.365 2.333 C 342.199 2.333,341.918 2.443,341.740 2.578 C 341.562 2.713,341.285 2.825,341.125 2.828 C 340.965 2.831,340.833 2.908,340.833 3.000 C 340.833 3.092,340.688 3.167,340.510 3.167 C 340.332 3.167,340.140 3.242,340.083 3.333 C 340.027 3.425,339.835 3.500,339.657 3.500 C 339.479 3.500,339.333 3.575,339.333 3.667 C 339.333 3.758,339.183 3.833,339.000 3.833 C 338.815 3.833,338.667 3.944,338.667 4.083 C 338.667 4.239,338.509 4.333,338.250 4.333 C 338.021 4.333,337.833 4.408,337.833 4.500 C 337.833 4.592,337.683 4.667,337.500 4.667 C 337.317 4.667,337.167 4.742,337.167 4.833 C 337.167 4.925,337.035 5.002,336.875 5.005 C 336.515 5.012,336.000 5.387,336.000 5.643 C 336.000 5.748,335.850 5.833,335.667 5.833 C 335.483 5.833,335.333 5.908,335.333 6.000 C 335.333 6.092,335.237 6.167,335.120 6.167 C 335.003 6.167,334.799 6.317,334.667 6.500 C 334.535 6.683,334.321 6.833,334.193 6.833 C 334.065 6.833,333.637 7.171,333.241 7.583 C 332.846 7.996,332.437 8.333,332.332 8.333 C 332.097 8.333,330.500 9.928,330.500 10.163 C 330.500 10.257,330.087 10.743,329.583 11.243 C 329.079 11.743,328.667 12.227,328.667 12.319 C 328.667 12.410,328.479 12.672,328.250 12.902 C 328.021 13.131,327.833 13.455,327.833 13.622 C 327.833 13.790,327.683 14.035,327.500 14.167 C 327.317 14.299,327.167 14.532,327.167 14.686 C 327.167 14.839,327.054 15.008,326.917 15.060 C 326.779 15.113,326.667 15.309,326.667 15.495 C 326.667 15.681,326.592 15.833,326.500 15.833 C 326.408 15.833,326.333 15.983,326.333 16.167 C 326.333 16.350,326.258 16.500,326.167 16.500 C 326.075 16.500,326.000 16.688,326.000 16.917 C 326.000 17.146,325.925 17.333,325.833 17.333 C 325.742 17.333,325.667 17.475,325.667 17.649 C 325.667 17.822,325.554 18.008,325.417 18.060 C 325.271 18.116,325.167 18.366,325.167 18.661 C 325.167 18.939,325.092 19.167,325.000 19.167 C 324.908 19.167,324.833 19.392,324.833 19.667 C 324.833 19.942,324.758 20.167,324.667 20.167 C 324.575 20.167,324.500 20.429,324.500 20.750 C 324.500 21.071,324.425 21.333,324.333 21.333 C 324.242 21.333,324.167 21.590,324.167 21.903 C 324.167 22.216,324.087 22.499,323.989 22.531 C 323.892 22.564,323.769 22.908,323.717 23.295 C 323.665 23.683,323.558 24.000,323.478 24.000 C 323.398 24.000,323.333 24.412,323.333 24.917 C 323.333 25.421,323.258 25.833,323.167 25.833 C 323.070 25.833,323.000 26.358,323.000 27.073 C 323.000 27.756,322.925 28.360,322.833 28.417 C 322.727 28.483,322.667 30.891,322.667 35.093 C 322.667 39.364,322.725 41.667,322.833 41.667 C 322.931 41.667,323.000 42.222,323.000 43.000 C 323.000 43.778,323.069 44.333,323.167 44.333 C 323.258 44.333,323.333 44.746,323.333 45.250 C 323.333 45.754,323.398 46.167,323.478 46.167 C 323.558 46.167,323.665 46.484,323.717 46.871 C 323.769 47.259,323.892 47.603,323.989 47.635 C 324.087 47.668,324.167 47.951,324.167 48.264 C 324.167 48.577,324.242 48.833,324.333 48.833 C 324.425 48.833,324.500 49.058,324.500 49.333 C 324.500 49.608,324.575 49.833,324.667 49.833 C 324.758 49.833,324.833 50.021,324.833 50.250 C 324.833 50.479,324.908 50.667,325.000 50.667 C 325.092 50.667,325.167 50.884,325.167 51.149 C 325.167 51.424,325.274 51.672,325.417 51.727 C 325.554 51.780,325.667 51.975,325.667 52.161 C 325.667 52.348,325.742 52.500,325.833 52.500 C 325.925 52.500,326.000 52.650,326.000 52.833 C 326.000 53.017,326.075 53.167,326.167 53.167 C 326.258 53.167,326.333 53.322,326.333 53.512 C 326.333 53.881,326.694 54.333,326.988 54.333 C 327.086 54.333,327.167 54.521,327.167 54.750 C 327.167 54.979,327.242 55.167,327.333 55.167 C 327.425 55.167,327.500 55.300,327.500 55.463 C 327.500 55.626,327.650 55.868,327.833 56.000 C 328.017 56.132,328.167 56.302,328.167 56.377 C 328.167 56.536,328.376 56.800,329.125 57.587 C 329.423 57.900,329.667 58.201,329.667 58.256 C 329.667 58.388,330.113 58.833,330.246 58.833 C 330.377 58.833,331.167 59.619,331.167 59.750 C 331.167 59.878,331.955 60.667,332.083 60.667 C 332.214 60.667,333.000 61.456,333.000 61.588 C 333.000 61.757,333.463 62.167,333.655 62.167 C 333.753 62.167,333.833 62.242,333.833 62.333 C 333.833 62.425,333.951 62.500,334.095 62.500 C 334.238 62.500,334.603 62.762,334.906 63.083 C 335.208 63.404,335.562 63.667,335.691 63.667 C 335.821 63.667,336.035 63.817,336.167 64.000 C 336.299 64.183,336.560 64.333,336.747 64.333 C 336.934 64.333,337.228 64.521,337.400 64.750 C 337.573 64.979,337.815 65.167,337.940 65.167 C 338.065 65.167,338.167 65.242,338.167 65.333 C 338.167 65.425,338.338 65.500,338.547 65.500 C 338.755 65.500,339.035 65.650,339.167 65.833 C 339.299 66.017,339.543 66.167,339.709 66.167 C 339.875 66.167,340.054 66.279,340.106 66.417 C 340.159 66.554,340.344 66.667,340.518 66.667 C 340.691 66.667,340.833 66.742,340.833 66.833 C 340.833 66.925,340.983 67.000,341.167 67.000 C 341.350 67.000,341.500 67.075,341.500 67.167 C 341.500 67.258,341.688 67.333,341.917 67.333 C 342.146 67.333,342.333 67.408,342.333 67.500 C 342.333 67.592,342.475 67.667,342.649 67.667 C 342.822 67.667,343.008 67.779,343.060 67.917 C 343.113 68.054,343.309 68.167,343.495 68.167 C 343.681 68.167,343.833 68.242,343.833 68.333 C 343.833 68.425,343.983 68.500,344.167 68.500 C 344.350 68.500,344.500 68.575,344.500 68.667 C 344.500 68.758,344.762 68.833,345.083 68.833 C 345.404 68.833,345.667 68.908,345.667 69.000 C 345.667 69.092,345.817 69.167,346.000 69.167 C 346.183 69.167,346.333 69.242,346.333 69.333 C 346.333 69.425,346.513 69.500,346.732 69.500 C 346.952 69.500,347.174 69.612,347.227 69.750 C 347.280 69.887,347.508 70.000,347.735 70.000 C 347.962 70.000,348.193 70.075,348.250 70.167 C 348.307 70.258,348.499 70.333,348.677 70.333 C 348.854 70.333,349.000 70.408,349.000 70.500 C 349.000 70.592,349.262 70.667,349.583 70.667 C 349.904 70.667,350.167 70.742,350.167 70.833 C 350.167 70.925,350.384 71.000,350.649 71.000 C 350.924 71.000,351.172 71.107,351.227 71.250 C 351.280 71.387,351.475 71.500,351.661 71.500 C 351.848 71.500,352.000 71.575,352.000 71.667 C 352.000 71.758,352.221 71.833,352.490 71.833 C 352.760 71.833,353.027 71.908,353.083 72.000 C 353.140 72.092,353.407 72.167,353.677 72.167 C 353.946 72.167,354.167 72.242,354.167 72.333 C 354.167 72.425,354.429 72.500,354.750 72.500 C 355.071 72.500,355.333 72.575,355.333 72.667 C 355.333 72.758,355.550 72.833,355.816 72.833 C 356.090 72.833,356.339 72.941,356.394 73.083 C 356.450 73.229,356.699 73.333,356.995 73.333 C 357.273 73.333,357.500 73.408,357.500 73.500 C 357.500 73.592,357.688 73.667,357.917 73.667 C 358.146 73.667,358.333 73.742,358.333 73.833 C 358.333 73.925,358.558 74.000,358.833 74.000 C 359.108 74.000,359.333 74.075,359.333 74.167 C 359.333 74.258,359.513 74.333,359.732 74.333 C 359.952 74.333,360.174 74.446,360.227 74.583 C 360.280 74.721,360.513 74.833,360.745 74.833 C 360.977 74.833,361.167 74.908,361.167 75.000 C 361.167 75.092,361.354 75.167,361.583 75.167 C 361.813 75.167,362.000 75.242,362.000 75.333 C 362.000 75.425,362.150 75.500,362.333 75.500 C 362.517 75.500,362.667 75.575,362.667 75.667 C 362.667 75.758,362.854 75.833,363.083 75.833 C 363.313 75.833,363.500 75.908,363.500 76.000 C 363.500 76.092,363.642 76.167,363.816 76.167 C 363.989 76.167,364.174 76.279,364.227 76.417 C 364.280 76.554,364.475 76.667,364.661 76.667 C 364.848 76.667,365.000 76.742,365.000 76.833 C 365.000 76.925,365.150 77.000,365.333 77.000 C 365.517 77.000,365.667 77.075,365.667 77.167 C 365.667 77.258,365.836 77.333,366.044 77.333 C 366.251 77.333,366.561 77.521,366.734 77.750 C 366.906 77.979,367.149 78.167,367.273 78.167 C 367.398 78.167,367.500 78.242,367.500 78.333 C 367.500 78.425,367.613 78.500,367.750 78.500 C 367.887 78.500,368.000 78.575,368.000 78.667 C 368.000 78.758,368.108 78.833,368.240 78.833 C 368.554 78.833,372.000 82.280,372.000 82.593 C 372.000 82.725,372.075 82.833,372.167 82.833 C 372.258 82.833,372.333 82.946,372.333 83.083 C 372.333 83.221,372.408 83.333,372.500 83.333 C 372.592 83.333,372.667 83.483,372.667 83.667 C 372.667 83.852,372.778 84.000,372.917 84.000 C 373.072 84.000,373.167 84.157,373.167 84.417 C 373.167 84.646,373.242 84.833,373.333 84.833 C 373.425 84.833,373.500 84.983,373.500 85.167 C 373.500 85.350,373.575 85.500,373.667 85.500 C 373.758 85.500,373.833 85.837,373.833 86.250 C 373.833 86.662,373.908 87.000,374.000 87.000 C 374.092 87.000,374.167 87.331,374.167 87.736 C 374.167 88.177,374.250 88.500,374.375 88.542 C 374.532 88.594,374.583 89.430,374.583 91.964 C 374.583 94.423,374.528 95.372,374.375 95.525 C 374.260 95.639,374.167 96.093,374.167 96.533 C 374.167 96.973,374.092 97.333,374.000 97.333 C 373.908 97.333,373.833 97.596,373.833 97.917 C 373.833 98.237,373.758 98.500,373.667 98.500 C 373.575 98.500,373.500 98.688,373.500 98.917 C 373.500 99.146,373.425 99.333,373.333 99.333 C 373.242 99.333,373.167 99.483,373.167 99.667 C 373.167 99.852,373.056 100.000,372.917 100.000 C 372.778 100.000,372.667 100.148,372.667 100.333 C 372.667 100.517,372.592 100.667,372.500 100.667 C 372.408 100.667,372.333 100.742,372.333 100.833 C 372.333 100.925,371.733 101.600,371.000 102.333 C 370.267 103.067,369.592 103.667,369.500 103.667 C 369.408 103.667,369.333 103.742,369.333 103.833 C 369.333 103.925,369.218 104.000,369.078 104.000 C 368.938 104.000,368.780 104.112,368.727 104.250 C 368.674 104.387,368.489 104.500,368.316 104.500 C 368.142 104.500,368.000 104.575,368.000 104.667 C 368.000 104.758,367.887 104.833,367.750 104.833 C 367.613 104.833,367.500 104.908,367.500 105.000 C 367.500 105.092,367.350 105.167,367.167 105.167 C 366.983 105.167,366.833 105.242,366.833 105.333 C 366.833 105.425,366.606 105.500,366.328 105.500 C 366.033 105.500,365.783 105.604,365.727 105.750 C 365.668 105.904,365.414 106.000,365.066 106.000 C 364.754 106.000,364.500 106.075,364.500 106.167 C 364.500 106.258,364.200 106.333,363.833 106.333 C 363.467 106.333,363.167 106.408,363.167 106.500 C 363.167 106.604,362.167 106.667,360.500 106.667 C 358.833 106.667,357.833 106.604,357.833 106.500 C 357.833 106.406,357.361 106.333,356.750 106.333 C 356.139 106.333,355.667 106.261,355.667 106.167 C 355.667 106.075,355.404 106.000,355.083 106.000 C 354.676 106.000,354.500 105.925,354.500 105.750 C 354.500 105.583,354.333 105.500,354.000 105.500 C 353.725 105.500,353.500 105.425,353.500 105.333 C 353.500 105.242,353.313 105.167,353.083 105.167 C 352.854 105.167,352.667 105.092,352.667 105.000 C 352.667 104.908,352.517 104.833,352.333 104.833 C 352.150 104.833,352.000 104.758,352.000 104.667 C 352.000 104.575,351.922 104.500,351.826 104.500 C 351.645 104.500,351.418 104.333,350.750 103.708 C 350.529 103.502,350.300 103.333,350.241 103.333 C 350.114 103.333,349.388 102.570,348.919 101.943 C 348.737 101.699,348.493 101.500,348.377 101.500 C 348.261 101.500,348.167 101.350,348.167 101.167 C 348.167 100.983,348.092 100.833,348.000 100.833 C 347.908 100.833,347.833 100.721,347.833 100.583 C 347.833 100.446,347.758 100.333,347.667 100.333 C 347.575 100.333,347.500 100.183,347.500 100.000 C 347.500 99.817,347.425 99.667,347.333 99.667 C 347.242 99.667,347.167 99.479,347.167 99.250 C 347.167 99.021,347.092 98.833,347.000 98.833 C 346.908 98.833,346.833 98.608,346.833 98.333 C 346.833 98.000,346.750 97.833,346.583 97.833 C 346.398 97.833,346.333 97.639,346.333 97.083 C 346.333 96.671,346.258 96.333,346.167 96.333 C 346.073 96.333,346.000 95.864,346.000 95.260 C 346.000 94.669,345.925 94.140,345.833 94.083 C 345.736 94.023,345.667 93.082,345.667 91.823 C 345.667 90.497,345.603 89.667,345.500 89.667 C 345.397 89.667,345.333 88.750,345.333 87.250 L 345.333 84.833 333.083 84.833 L 320.833 84.833 320.833 89.667 C 320.833 92.778,320.893 94.500,321.000 94.500 C 321.101 94.500,321.167 95.222,321.167 96.333 C 321.167 97.444,321.232 98.167,321.333 98.167 C 321.425 98.167,321.500 98.579,321.500 99.083 C 321.500 99.587,321.575 100.000,321.667 100.000 C 321.758 100.000,321.833 100.412,321.833 100.917 C 321.833 101.620,321.891 101.833,322.083 101.833 C 322.269 101.833,322.333 102.028,322.333 102.583 C 322.333 102.996,322.408 103.333,322.500 103.333 C 322.592 103.333,322.667 103.596,322.667 103.917 C 322.667 104.237,322.742 104.500,322.833 104.500 C 322.925 104.500,323.000 104.725,323.000 105.000 C 323.000 105.275,323.075 105.500,323.167 105.500 C 323.258 105.500,323.333 105.681,323.333 105.903 C 323.333 106.311,323.811 107.370,324.042 107.472 C 324.110 107.503,324.167 107.672,324.167 107.847 C 324.167 108.023,324.242 108.167,324.333 108.167 C 324.425 108.167,324.500 108.317,324.500 108.500 C 324.500 108.683,324.575 108.833,324.667 108.833 C 324.758 108.833,324.833 109.021,324.833 109.250 C 324.833 109.479,324.908 109.667,325.000 109.667 C 325.092 109.667,325.167 109.817,325.167 110.000 C 325.167 110.185,325.278 110.333,325.417 110.333 C 325.566 110.333,325.667 110.487,325.667 110.713 C 325.667 110.922,325.817 111.201,326.000 111.333 C 326.183 111.465,326.333 111.707,326.333 111.870 C 326.333 112.033,326.408 112.167,326.500 112.167 C 326.592 112.167,326.667 112.279,326.667 112.417 C 326.667 112.554,326.779 112.667,326.917 112.667 C 327.054 112.667,327.167 112.800,327.167 112.963 C 327.167 113.126,327.317 113.368,327.500 113.500 C 327.683 113.632,327.833 113.802,327.833 113.878 C 327.833 113.953,328.002 114.194,328.208 114.411 C 328.415 114.629,328.808 115.086,329.083 115.426 C 329.358 115.766,329.723 116.166,329.894 116.314 C 330.064 116.462,330.303 116.677,330.423 116.792 C 330.544 116.906,330.761 117.000,330.905 117.000 C 331.049 117.000,331.167 117.095,331.167 117.210 C 331.167 117.326,331.367 117.570,331.611 117.752 C 331.855 117.934,332.150 118.177,332.266 118.292 C 332.381 118.406,332.565 118.500,332.672 118.500 C 332.780 118.500,333.016 118.688,333.196 118.917 C 333.377 119.146,333.669 119.333,333.845 119.333 C 334.022 119.333,334.167 119.408,334.167 119.500 C 334.167 119.592,334.317 119.667,334.500 119.667 C 334.683 119.667,334.833 119.742,334.833 119.833 C 334.833 119.925,335.003 120.000,335.210 120.000 C 335.418 120.000,335.728 120.187,335.900 120.417 C 336.107 120.691,336.376 120.833,336.690 120.833 C 336.952 120.833,337.167 120.908,337.167 121.000 C 337.167 121.092,337.317 121.167,337.500 121.167 C 337.683 121.167,337.833 121.242,337.833 121.333 C 337.833 121.425,338.021 121.500,338.250 121.500 C 338.479 121.500,338.667 121.575,338.667 121.667 C 338.667 121.758,338.884 121.833,339.149 121.833 C 339.424 121.833,339.672 121.941,339.727 122.083 C 339.783 122.229,340.033 122.333,340.328 122.333 C 340.606 122.333,340.833 122.408,340.833 122.500 C 340.833 122.592,341.096 122.667,341.417 122.667 C 341.738 122.667,342.000 122.742,342.000 122.833 C 342.000 122.925,342.337 123.000,342.750 123.000 C 343.162 123.000,343.500 123.075,343.500 123.167 C 343.500 123.258,343.912 123.333,344.417 123.333 C 344.921 123.333,345.333 123.408,345.333 123.500 C 345.333 123.592,345.746 123.667,346.250 123.667 C 346.954 123.667,347.167 123.725,347.167 123.917 C 347.167 124.116,347.416 124.167,348.407 124.167 C 349.089 124.167,349.693 124.242,349.750 124.333 C 349.811 124.432,350.807 124.500,352.177 124.500 C 353.614 124.500,354.500 124.564,354.500 124.667 C 354.500 124.773,356.028 124.833,358.750 124.833 C 361.472 124.833,363.000 124.773,363.000 124.667 C 363.000 124.563,363.917 124.500,365.417 124.500 C 366.917 124.500,367.833 124.437,367.833 124.333 C 367.833 124.236,368.389 124.167,369.167 124.167 C 370.241 124.167,370.500 124.118,370.500 123.917 C 370.500 123.725,370.713 123.667,371.417 123.667 C 371.921 123.667,372.333 123.592,372.333 123.500 C 372.333 123.408,372.746 123.333,373.250 123.333 C 373.754 123.333,374.167 123.258,374.167 123.167 C 374.167 123.075,374.504 123.000,374.917 123.000 C 375.329 123.000,375.667 122.925,375.667 122.833 C 375.667 122.742,375.929 122.667,376.250 122.667 C 376.571 122.667,376.833 122.592,376.833 122.500 C 376.833 122.408,377.090 122.333,377.405 122.333 C 377.719 122.333,378.089 122.221,378.226 122.083 C 378.364 121.946,378.669 121.833,378.905 121.833 C 379.140 121.833,379.333 121.758,379.333 121.667 C 379.333 121.575,379.521 121.500,379.750 121.500 C 379.979 121.500,380.167 121.425,380.167 121.333 C 380.167 121.242,380.392 121.167,380.667 121.167 C 380.942 121.167,381.167 121.092,381.167 121.000 C 381.167 120.908,381.354 120.833,381.583 120.833 C 381.843 120.833,382.000 120.739,382.000 120.583 C 382.000 120.444,382.148 120.333,382.333 120.333 C 382.517 120.333,382.667 120.258,382.667 120.167 C 382.667 120.075,382.854 120.000,383.083 120.000 C 383.313 120.000,383.500 119.925,383.500 119.833 C 383.500 119.742,383.650 119.667,383.833 119.667 C 384.017 119.667,384.167 119.592,384.167 119.500 C 384.167 119.408,384.322 119.333,384.512 119.333 C 384.702 119.333,384.962 119.240,385.089 119.125 C 385.641 118.630,385.829 118.500,385.993 118.500 C 386.089 118.500,386.167 118.425,386.167 118.333 C 386.167 118.242,386.300 118.167,386.463 118.167 C 386.626 118.167,386.868 118.017,387.000 117.833 C 387.132 117.650,387.363 117.500,387.513 117.500 C 387.664 117.500,387.927 117.313,388.100 117.083 C 388.272 116.854,388.545 116.667,388.706 116.667 C 388.868 116.667,389.000 116.604,389.000 116.528 C 389.000 116.452,389.188 116.289,389.417 116.167 C 389.646 116.044,389.833 115.878,389.833 115.798 C 389.833 115.568,390.627 114.833,390.874 114.833 C 391.165 114.833,392.333 113.561,392.333 113.244 C 392.333 113.110,392.414 113.000,392.512 113.000 C 392.725 113.000,393.167 112.583,393.167 112.382 C 393.167 112.304,393.317 112.132,393.500 112.000 C 393.683 111.868,393.833 111.659,393.833 111.535 C 393.833 111.412,394.096 111.063,394.417 110.761 C 394.738 110.458,395.000 110.088,395.000 109.939 C 395.000 109.789,395.075 109.667,395.167 109.667 C 395.258 109.667,395.333 109.497,395.333 109.290 C 395.333 109.082,395.521 108.772,395.750 108.600 C 395.979 108.427,396.167 108.185,396.167 108.060 C 396.167 107.935,396.242 107.833,396.333 107.833 C 396.425 107.833,396.500 107.646,396.500 107.417 C 396.500 107.188,396.575 107.000,396.667 107.000 C 396.758 107.000,396.833 106.850,396.833 106.667 C 396.833 106.483,396.908 106.333,397.000 106.333 C 397.092 106.333,397.167 106.071,397.167 105.750 C 397.167 105.343,397.242 105.167,397.417 105.167 C 397.554 105.167,397.667 105.021,397.667 104.843 C 397.667 104.665,397.742 104.473,397.833 104.417 C 397.925 104.360,398.000 104.093,398.000 103.823 C 398.000 103.554,398.075 103.333,398.167 103.333 C 398.258 103.333,398.333 103.071,398.333 102.750 C 398.333 102.429,398.408 102.167,398.500 102.167 C 398.592 102.167,398.667 101.829,398.667 101.417 C 398.667 101.004,398.742 100.667,398.833 100.667 C 398.925 100.667,399.000 100.375,399.000 100.018 C 399.000 99.595,399.087 99.336,399.250 99.273 C 399.430 99.204,399.500 98.922,399.500 98.269 C 399.500 97.691,399.576 97.336,399.708 97.292 C 399.872 97.237,399.917 95.280,399.917 88.250 C 399.917 81.220,399.872 79.263,399.708 79.208 C 399.579 79.165,399.500 78.826,399.500 78.314 C 399.500 77.735,399.426 77.461,399.250 77.394 C 399.080 77.328,399.000 77.063,399.000 76.566 C 399.000 76.163,398.925 75.833,398.833 75.833 C 398.742 75.833,398.667 75.608,398.667 75.333 C 398.667 75.058,398.592 74.833,398.500 74.833 C 398.408 74.833,398.333 74.571,398.333 74.250 C 398.333 73.929,398.258 73.667,398.167 73.667 C 398.075 73.667,398.000 73.521,398.000 73.343 C 398.000 73.165,397.925 72.973,397.833 72.917 C 397.742 72.860,397.667 72.668,397.667 72.490 C 397.667 72.312,397.554 72.167,397.417 72.167 C 397.278 72.167,397.167 72.019,397.167 71.833 C 397.167 71.650,397.092 71.500,397.000 71.500 C 396.908 71.500,396.833 71.313,396.833 71.083 C 396.833 70.854,396.758 70.667,396.667 70.667 C 396.575 70.667,396.500 70.544,396.500 70.394 C 396.500 70.244,396.313 69.948,396.083 69.735 C 395.854 69.523,395.667 69.263,395.667 69.158 C 395.667 69.053,395.442 68.757,395.167 68.500 C 394.892 68.243,394.667 67.931,394.667 67.807 C 394.667 67.682,394.406 67.356,394.087 67.082 C 393.768 66.808,393.506 66.524,393.504 66.451 C 393.499 66.275,392.719 65.500,392.547 65.500 C 392.473 65.500,392.268 65.308,392.092 65.073 C 391.542 64.341,391.217 64.000,391.064 63.996 C 390.983 63.994,390.692 63.732,390.418 63.413 C 390.144 63.094,389.825 62.833,389.710 62.833 C 389.594 62.833,389.500 62.758,389.500 62.667 C 389.500 62.575,389.404 62.500,389.287 62.500 C 389.170 62.500,388.965 62.350,388.833 62.167 C 388.701 61.983,388.496 61.833,388.377 61.833 C 388.258 61.833,387.906 61.571,387.594 61.250 C 387.283 60.929,386.909 60.667,386.764 60.667 C 386.619 60.667,386.500 60.592,386.500 60.500 C 386.500 60.408,386.345 60.333,386.155 60.333 C 385.786 60.333,385.333 59.973,385.333 59.679 C 385.333 59.580,385.183 59.500,385.000 59.500 C 384.817 59.500,384.667 59.425,384.667 59.333 C 384.667 59.242,384.496 59.167,384.287 59.167 C 384.078 59.167,383.799 59.017,383.667 58.833 C 383.535 58.650,383.255 58.500,383.047 58.500 C 382.820 58.500,382.667 58.399,382.667 58.250 C 382.667 58.111,382.519 58.000,382.333 58.000 C 382.150 58.000,382.000 57.925,382.000 57.833 C 382.000 57.742,381.854 57.667,381.677 57.667 C 381.499 57.667,381.307 57.592,381.250 57.500 C 381.193 57.408,381.001 57.333,380.823 57.333 C 380.646 57.333,380.500 57.258,380.500 57.167 C 380.500 57.075,380.350 57.000,380.167 57.000 C 379.983 57.000,379.833 56.925,379.833 56.833 C 379.833 56.742,379.646 56.667,379.417 56.667 C 379.157 56.667,379.000 56.572,379.000 56.417 C 379.000 56.279,378.854 56.167,378.677 56.167 C 378.499 56.167,378.307 56.092,378.250 56.000 C 378.193 55.908,377.926 55.833,377.657 55.833 C 377.387 55.833,377.167 55.758,377.167 55.667 C 377.167 55.575,377.017 55.500,376.833 55.500 C 376.650 55.500,376.500 55.425,376.500 55.333 C 376.500 55.242,376.313 55.167,376.083 55.167 C 375.824 55.167,375.667 55.072,375.667 54.917 C 375.667 54.779,375.521 54.667,375.343 54.667 C 375.165 54.667,374.973 54.592,374.917 54.500 C 374.860 54.408,374.593 54.333,374.323 54.333 C 374.054 54.333,373.833 54.258,373.833 54.167 C 373.833 54.075,373.688 54.000,373.510 54.000 C 373.332 54.000,373.140 53.925,373.083 53.833 C 373.027 53.742,372.867 53.667,372.728 53.667 C 372.590 53.667,372.364 53.554,372.226 53.417 C 372.089 53.279,371.794 53.167,371.571 53.167 C 371.349 53.167,371.167 53.092,371.167 53.000 C 371.167 52.908,371.017 52.833,370.833 52.833 C 370.650 52.833,370.500 52.758,370.500 52.667 C 370.500 52.575,370.354 52.500,370.177 52.500 C 369.999 52.500,369.807 52.425,369.750 52.333 C 369.693 52.242,369.501 52.167,369.323 52.167 C 369.146 52.167,369.000 52.092,369.000 52.000 C 369.000 51.908,368.738 51.833,368.417 51.833 C 368.009 51.833,367.833 51.758,367.833 51.583 C 367.833 51.444,367.685 51.333,367.500 51.333 C 367.317 51.333,367.167 51.258,367.167 51.167 C 367.167 51.075,367.021 51.000,366.843 51.000 C 366.665 51.000,366.473 50.925,366.417 50.833 C 366.360 50.742,366.093 50.667,365.823 50.667 C 365.554 50.667,365.333 50.592,365.333 50.500 C 365.333 50.408,365.146 50.333,364.917 50.333 C 364.657 50.333,364.500 50.239,364.500 50.083 C 364.500 49.944,364.352 49.833,364.167 49.833 C 363.983 49.833,363.833 49.758,363.833 49.667 C 363.833 49.575,363.646 49.500,363.417 49.500 C 363.188 49.500,363.000 49.425,363.000 49.333 C 363.000 49.242,362.775 49.167,362.500 49.167 C 362.225 49.167,362.000 49.092,362.000 49.000 C 362.000 48.908,361.813 48.833,361.583 48.833 C 361.354 48.833,361.167 48.758,361.167 48.667 C 361.167 48.575,361.017 48.500,360.833 48.500 C 360.648 48.500,360.500 48.389,360.500 48.250 C 360.500 48.094,360.343 48.000,360.083 48.000 C 359.854 48.000,359.667 47.925,359.667 47.833 C 359.667 47.742,359.442 47.667,359.167 47.667 C 358.892 47.667,358.667 47.592,358.667 47.500 C 358.667 47.408,358.479 47.333,358.250 47.333 C 358.021 47.333,357.833 47.258,357.833 47.167 C 357.833 47.075,357.691 47.000,357.518 47.000 C 357.344 47.000,357.159 46.888,357.106 46.750 C 357.054 46.613,356.858 46.500,356.672 46.500 C 356.486 46.500,356.333 46.425,356.333 46.333 C 356.333 46.242,356.183 46.167,356.000 46.167 C 355.817 46.167,355.667 46.092,355.667 46.000 C 355.667 45.908,355.479 45.833,355.250 45.833 C 355.021 45.833,354.833 45.758,354.833 45.667 C 354.833 45.575,354.701 45.500,354.540 45.500 C 354.378 45.500,354.105 45.313,353.933 45.083 C 353.761 44.854,353.511 44.667,353.377 44.667 C 353.243 44.667,352.924 44.442,352.667 44.167 C 352.410 43.892,352.042 43.667,351.850 43.667 C 351.657 43.667,351.500 43.586,351.500 43.487 C 351.500 43.388,351.200 43.019,350.833 42.667 C 350.467 42.314,350.167 41.949,350.167 41.854 C 350.167 41.759,349.979 41.494,349.750 41.265 C 349.521 41.036,349.333 40.733,349.333 40.591 C 349.333 40.449,349.258 40.333,349.167 40.333 C 349.075 40.333,349.000 40.188,349.000 40.010 C 349.000 39.832,348.925 39.640,348.833 39.583 C 348.742 39.527,348.667 39.335,348.667 39.157 C 348.667 38.979,348.554 38.833,348.417 38.833 C 348.261 38.833,348.167 38.676,348.167 38.417 C 348.167 38.188,348.092 38.000,348.000 38.000 C 347.908 38.000,347.833 37.662,347.833 37.250 C 347.833 36.837,347.758 36.500,347.667 36.500 C 347.575 36.500,347.500 36.087,347.500 35.583 C 347.500 35.079,347.425 34.667,347.333 34.667 C 347.229 34.667,347.167 33.583,347.167 31.750 C 347.167 29.917,347.229 28.833,347.333 28.833 C 347.426 28.833,347.500 28.389,347.500 27.833 C 347.500 27.278,347.574 26.833,347.667 26.833 C 347.758 26.833,347.833 26.608,347.833 26.333 C 347.833 26.058,347.908 25.833,348.000 25.833 C 348.092 25.833,348.167 25.571,348.167 25.250 C 348.167 24.843,348.242 24.667,348.417 24.667 C 348.556 24.667,348.667 24.519,348.667 24.333 C 348.667 24.150,348.742 24.000,348.833 24.000 C 348.925 24.000,349.000 23.887,349.000 23.750 C 349.000 23.613,349.075 23.500,349.167 23.500 C 349.258 23.500,349.333 23.389,349.333 23.253 C 349.333 22.982,351.561 20.667,351.822 20.667 C 351.912 20.667,352.172 20.479,352.402 20.250 C 352.631 20.021,352.972 19.833,353.159 19.833 C 353.347 19.833,353.500 19.758,353.500 19.667 C 353.500 19.575,353.650 19.500,353.833 19.500 C 354.017 19.500,354.167 19.425,354.167 19.333 C 354.167 19.242,354.394 19.167,354.672 19.167 C 354.967 19.167,355.217 19.063,355.273 18.917 C 355.338 18.747,355.604 18.667,356.101 18.667 C 356.504 18.667,356.833 18.592,356.833 18.500 C 356.833 18.394,358.056 18.333,360.167 18.333 C 362.278 18.333,363.500 18.394,363.500 18.500 C 363.500 18.592,363.837 18.667,364.250 18.667 C 364.806 18.667,365.000 18.731,365.000 18.917 C 365.000 19.056,365.148 19.167,365.333 19.167 C 365.517 19.167,365.667 19.242,365.667 19.333 C 365.667 19.425,365.854 19.500,366.083 19.500 C 366.313 19.500,366.500 19.575,366.500 19.667 C 366.500 19.758,366.616 19.833,366.758 19.833 C 366.899 19.833,367.203 20.021,367.432 20.250 C 367.661 20.479,367.923 20.667,368.015 20.667 C 368.247 20.667,369.000 21.442,369.000 21.681 C 369.000 21.789,369.262 22.125,369.583 22.427 C 369.904 22.730,370.167 23.095,370.167 23.239 C 370.167 23.382,370.242 23.500,370.333 23.500 C 370.425 23.500,370.500 23.688,370.500 23.917 C 370.500 24.146,370.575 24.333,370.667 24.333 C 370.758 24.333,370.833 24.483,370.833 24.667 C 370.833 24.850,370.900 25.000,370.981 25.000 C 371.063 25.000,371.179 25.262,371.239 25.583 C 371.299 25.904,371.420 26.167,371.508 26.167 C 371.595 26.167,371.667 26.387,371.667 26.657 C 371.667 26.926,371.742 27.193,371.833 27.250 C 371.925 27.307,372.000 27.649,372.000 28.010 C 372.000 28.371,372.075 28.667,372.167 28.667 C 372.259 28.667,372.333 29.111,372.333 29.667 C 372.333 30.217,372.406 30.667,372.496 30.667 C 372.593 30.667,372.677 31.758,372.704 33.375 L 372.750 36.083 384.625 36.126 L 396.500 36.169 396.500 31.751 C 396.500 28.917,396.440 27.333,396.333 27.333 C 396.236 27.333,396.167 26.778,396.167 26.000 C 396.167 24.926,396.118 24.667,395.917 24.667 C 395.725 24.667,395.667 24.454,395.667 23.750 C 395.667 23.246,395.592 22.833,395.500 22.833 C 395.408 22.833,395.333 22.496,395.333 22.083 C 395.333 21.671,395.258 21.333,395.167 21.333 C 395.075 21.333,395.000 20.996,395.000 20.583 C 395.000 20.171,394.925 19.833,394.833 19.833 C 394.742 19.833,394.667 19.616,394.667 19.351 C 394.667 19.076,394.559 18.828,394.417 18.773 C 394.279 18.720,394.167 18.525,394.167 18.339 C 394.167 18.152,394.092 18.000,394.000 18.000 C 393.908 18.000,393.833 17.737,393.833 17.417 C 393.833 17.096,393.758 16.833,393.667 16.833 C 393.575 16.833,393.500 16.683,393.500 16.500 C 393.500 16.317,393.425 16.167,393.333 16.167 C 393.242 16.167,393.167 16.017,393.167 15.833 C 393.167 15.650,393.092 15.500,393.000 15.500 C 392.908 15.500,392.833 15.387,392.833 15.250 C 392.833 15.112,392.721 15.000,392.583 15.000 C 392.444 15.000,392.333 14.852,392.333 14.667 C 392.333 14.483,392.258 14.333,392.167 14.333 C 392.075 14.333,392.000 14.162,392.000 13.953 C 392.000 13.745,391.850 13.465,391.667 13.333 C 391.483 13.201,391.333 12.960,391.333 12.797 C 391.333 12.633,391.221 12.500,391.083 12.500 C 390.946 12.500,390.833 12.387,390.833 12.250 C 390.833 12.112,390.758 12.000,390.667 12.000 C 390.575 12.000,390.500 11.878,390.500 11.730 C 390.500 11.581,389.938 10.908,389.250 10.234 C 388.563 9.560,388.000 8.931,388.000 8.837 C 388.000 8.743,387.921 8.667,387.824 8.667 C 387.727 8.667,387.177 8.179,386.602 7.583 C 386.026 6.988,385.447 6.500,385.314 6.500 C 385.182 6.500,384.965 6.350,384.833 6.167 C 384.701 5.983,384.422 5.833,384.213 5.833 C 384.004 5.833,383.833 5.753,383.833 5.655 C 383.833 5.373,383.387 5.000,383.049 5.000 C 382.879 5.000,382.632 4.850,382.500 4.667 C 382.368 4.483,382.134 4.333,381.981 4.333 C 381.828 4.333,381.659 4.221,381.606 4.083 C 381.554 3.946,381.358 3.833,381.172 3.833 C 380.986 3.833,380.833 3.758,380.833 3.667 C 380.833 3.575,380.683 3.500,380.500 3.500 C 380.317 3.500,380.167 3.425,380.167 3.333 C 380.167 3.242,379.904 3.167,379.583 3.167 C 379.262 3.167,379.000 3.092,379.000 3.000 C 379.000 2.908,378.850 2.833,378.667 2.833 C 378.483 2.833,378.333 2.762,378.333 2.674 C 378.333 2.587,378.071 2.466,377.750 2.406 C 377.429 2.345,377.167 2.230,377.167 2.148 C 377.167 2.067,376.904 2.000,376.583 2.000 C 376.262 2.000,376.000 1.925,376.000 1.833 C 376.000 1.742,375.775 1.667,375.500 1.667 C 375.225 1.667,375.000 1.592,375.000 1.500 C 375.000 1.408,374.662 1.333,374.250 1.333 C 373.837 1.333,373.500 1.258,373.500 1.167 C 373.500 1.075,373.096 1.000,372.601 1.000 C 371.956 1.000,371.675 0.929,371.606 0.750 C 371.537 0.570,371.256 0.500,370.602 0.500 C 370.036 0.500,369.669 0.423,369.627 0.297 C 369.559 0.095,354.288 -0.055,351.167 0.115 M148.667 46.333 C 148.667 75.778,148.723 90.667,148.833 90.667 C 148.936 90.667,149.000 91.528,149.000 92.917 C 149.000 94.306,149.064 95.167,149.167 95.167 C 149.264 95.167,149.333 95.722,149.333 96.500 C 149.333 97.278,149.403 97.833,149.500 97.833 C 149.593 97.833,149.667 98.280,149.667 98.839 C 149.667 99.578,149.733 99.869,149.917 99.940 C 150.086 100.005,150.167 100.271,150.167 100.768 C 150.167 101.171,150.242 101.500,150.333 101.500 C 150.425 101.500,150.500 101.837,150.500 102.250 C 150.500 102.662,150.575 103.000,150.667 103.000 C 150.758 103.000,150.833 103.225,150.833 103.500 C 150.833 103.775,150.908 104.000,151.000 104.000 C 151.092 104.000,151.167 104.263,151.167 104.583 C 151.167 104.904,151.242 105.167,151.333 105.167 C 151.425 105.167,151.500 105.319,151.500 105.505 C 151.500 105.691,151.612 105.887,151.750 105.940 C 151.893 105.994,152.000 106.243,152.000 106.518 C 152.000 106.783,152.075 107.000,152.167 107.000 C 152.258 107.000,152.333 107.188,152.333 107.417 C 152.333 107.646,152.408 107.833,152.500 107.833 C 152.592 107.833,152.667 107.983,152.667 108.167 C 152.667 108.350,152.742 108.500,152.833 108.500 C 152.925 108.500,153.000 108.652,153.000 108.839 C 153.000 109.025,153.112 109.220,153.250 109.273 C 153.387 109.326,153.500 109.511,153.500 109.684 C 153.500 109.858,153.575 110.000,153.667 110.000 C 153.758 110.000,153.833 110.150,153.833 110.333 C 153.833 110.517,153.908 110.667,154.000 110.667 C 154.092 110.667,154.167 110.779,154.167 110.917 C 154.167 111.054,154.242 111.167,154.333 111.167 C 154.425 111.167,154.500 111.317,154.500 111.500 C 154.500 111.683,154.580 111.833,154.679 111.833 C 154.950 111.833,155.333 112.275,155.333 112.588 C 155.333 112.741,155.558 113.076,155.833 113.333 C 156.108 113.590,156.333 113.881,156.333 113.979 C 156.333 114.077,156.671 114.495,157.083 114.908 C 157.496 115.320,157.833 115.735,157.833 115.829 C 157.833 115.923,157.913 116.000,158.011 116.000 C 158.108 116.000,158.588 116.413,159.076 116.917 C 159.565 117.421,160.055 117.833,160.165 117.833 C 160.276 117.833,160.576 118.058,160.833 118.333 C 161.090 118.608,161.379 118.833,161.476 118.833 C 161.573 118.833,161.839 119.021,162.068 119.250 C 162.297 119.479,162.638 119.667,162.826 119.667 C 163.013 119.667,163.167 119.742,163.167 119.833 C 163.167 119.925,163.299 120.000,163.460 120.000 C 163.622 120.000,163.895 120.187,164.067 120.417 C 164.239 120.646,164.520 120.833,164.690 120.833 C 164.861 120.833,165.000 120.908,165.000 121.000 C 165.000 121.092,165.225 121.167,165.500 121.167 C 165.775 121.167,166.000 121.242,166.000 121.333 C 166.000 121.425,166.188 121.500,166.417 121.500 C 166.646 121.500,166.833 121.575,166.833 121.667 C 166.833 121.758,166.951 121.833,167.095 121.833 C 167.239 121.833,167.470 121.946,167.607 122.083 C 167.745 122.221,168.039 122.333,168.262 122.333 C 168.485 122.333,168.667 122.408,168.667 122.500 C 168.667 122.592,168.929 122.667,169.250 122.667 C 169.571 122.667,169.833 122.742,169.833 122.833 C 169.833 122.925,170.171 123.000,170.583 123.000 C 170.996 123.000,171.333 123.075,171.333 123.167 C 171.333 123.258,171.746 123.333,172.250 123.333 C 172.754 123.333,173.167 123.408,173.167 123.500 C 173.167 123.594,173.639 123.667,174.250 123.667 C 175.102 123.667,175.333 123.720,175.333 123.917 C 175.333 124.118,175.593 124.167,176.667 124.167 C 177.444 124.167,178.000 124.236,178.000 124.333 C 178.000 124.437,178.917 124.500,180.417 124.500 C 181.917 124.500,182.833 124.563,182.833 124.667 C 182.833 124.773,184.278 124.833,186.833 124.833 C 189.389 124.833,190.833 124.773,190.833 124.667 C 190.833 124.564,191.694 124.500,193.083 124.500 C 194.472 124.500,195.333 124.436,195.333 124.333 C 195.333 124.237,195.863 124.167,196.589 124.167 C 197.551 124.167,197.866 124.108,197.940 123.917 C 198.009 123.737,198.289 123.667,198.934 123.667 C 199.429 123.667,199.833 123.592,199.833 123.500 C 199.833 123.408,200.246 123.333,200.750 123.333 C 201.254 123.333,201.667 123.258,201.667 123.167 C 201.667 123.075,202.004 123.000,202.417 123.000 C 202.829 123.000,203.167 122.925,203.167 122.833 C 203.167 122.742,203.387 122.667,203.657 122.667 C 203.926 122.667,204.193 122.592,204.250 122.500 C 204.307 122.408,204.538 122.333,204.765 122.333 C 204.992 122.333,205.220 122.221,205.273 122.083 C 205.326 121.946,205.548 121.833,205.768 121.833 C 205.987 121.833,206.167 121.758,206.167 121.667 C 206.167 121.575,206.392 121.500,206.667 121.500 C 206.942 121.500,207.167 121.425,207.167 121.333 C 207.167 121.242,207.354 121.167,207.583 121.167 C 207.813 121.167,208.000 121.092,208.000 121.000 C 208.000 120.908,208.115 120.833,208.255 120.833 C 208.396 120.833,208.554 120.721,208.606 120.583 C 208.659 120.446,208.865 120.333,209.064 120.333 C 209.263 120.333,209.535 120.183,209.667 120.000 C 209.799 119.817,210.040 119.667,210.203 119.667 C 210.367 119.667,210.500 119.592,210.500 119.500 C 210.500 119.408,210.612 119.333,210.750 119.333 C 210.887 119.333,211.000 119.258,211.000 119.167 C 211.000 119.075,211.102 119.000,211.227 119.000 C 211.351 119.000,211.594 118.812,211.766 118.583 C 211.938 118.354,212.215 118.167,212.380 118.167 C 212.661 118.167,213.500 117.476,213.500 117.246 C 213.500 117.112,213.946 116.667,214.079 116.667 C 214.213 116.667,215.000 115.880,215.000 115.746 C 215.000 115.613,215.445 115.167,215.577 115.167 C 215.749 115.167,216.833 114.021,216.833 113.839 C 216.833 113.744,216.914 113.667,217.012 113.667 C 217.277 113.667,217.667 113.228,217.667 112.929 C 217.667 112.785,217.742 112.667,217.833 112.667 C 217.925 112.667,218.000 112.571,218.000 112.453 C 218.000 112.336,218.150 112.132,218.333 112.000 C 218.517 111.868,218.667 111.626,218.667 111.463 C 218.667 111.300,218.779 111.167,218.917 111.167 C 219.066 111.167,219.167 111.013,219.167 110.787 C 219.167 110.578,219.317 110.299,219.500 110.167 C 219.683 110.035,219.833 109.793,219.833 109.630 C 219.833 109.467,219.908 109.333,220.000 109.333 C 220.092 109.333,220.167 109.146,220.167 108.917 C 220.167 108.657,220.261 108.500,220.417 108.500 C 220.556 108.500,220.667 108.352,220.667 108.167 C 220.667 107.983,220.742 107.833,220.833 107.833 C 220.925 107.833,221.000 107.646,221.000 107.417 C 221.000 107.188,221.075 107.000,221.167 107.000 C 221.258 107.000,221.333 106.850,221.333 106.667 C 221.333 106.483,221.408 106.333,221.500 106.333 C 221.592 106.333,221.667 106.146,221.667 105.917 C 221.667 105.688,221.742 105.500,221.833 105.500 C 221.925 105.500,222.000 105.275,222.000 105.000 C 222.000 104.667,222.083 104.500,222.250 104.500 C 222.406 104.500,222.500 104.343,222.500 104.083 C 222.500 103.854,222.575 103.667,222.667 103.667 C 222.758 103.667,222.833 103.404,222.833 103.083 C 222.833 102.763,222.908 102.500,223.000 102.500 C 223.092 102.500,223.167 102.200,223.167 101.833 C 223.167 101.467,223.242 101.167,223.333 101.167 C 223.425 101.167,223.500 100.837,223.500 100.434 C 223.500 99.937,223.580 99.672,223.750 99.606 C 223.926 99.539,224.000 99.265,224.000 98.682 C 224.000 98.226,224.075 97.807,224.167 97.750 C 224.258 97.693,224.333 97.164,224.333 96.573 C 224.333 95.969,224.406 95.500,224.500 95.500 C 224.601 95.500,224.667 94.778,224.667 93.667 C 224.667 92.556,224.732 91.833,224.833 91.833 C 224.944 91.833,225.000 76.750,225.000 46.917 L 225.000 2.000 212.750 2.000 L 200.500 2.000 200.500 45.250 C 200.500 73.972,200.444 88.500,200.333 88.500 C 200.230 88.500,200.167 89.361,200.167 90.750 C 200.167 92.139,200.103 93.000,200.000 93.000 C 199.906 93.000,199.833 93.472,199.833 94.083 C 199.833 94.694,199.761 95.167,199.667 95.167 C 199.575 95.167,199.500 95.571,199.500 96.066 C 199.500 96.711,199.429 96.991,199.250 97.060 C 199.104 97.116,199.000 97.366,199.000 97.661 C 199.000 97.939,198.925 98.167,198.833 98.167 C 198.742 98.167,198.667 98.312,198.667 98.490 C 198.667 98.668,198.592 98.860,198.500 98.917 C 198.408 98.973,198.333 99.240,198.333 99.510 C 198.333 99.779,198.258 100.000,198.167 100.000 C 198.075 100.000,198.000 100.150,198.000 100.333 C 198.000 100.517,197.925 100.667,197.833 100.667 C 197.742 100.667,197.667 100.779,197.667 100.917 C 197.667 101.054,197.554 101.167,197.417 101.167 C 197.279 101.167,197.167 101.300,197.167 101.463 C 197.167 101.626,197.017 101.868,196.833 102.000 C 196.650 102.132,196.500 102.318,196.500 102.414 C 196.500 102.509,196.298 102.737,196.052 102.919 C 195.632 103.229,195.320 103.546,194.534 104.458 C 194.356 104.665,194.051 104.833,193.855 104.833 C 193.660 104.833,193.500 104.908,193.500 105.000 C 193.500 105.092,193.350 105.167,193.167 105.167 C 192.983 105.167,192.833 105.242,192.833 105.333 C 192.833 105.425,192.681 105.500,192.495 105.500 C 192.309 105.500,192.113 105.612,192.060 105.750 C 192.006 105.893,191.757 106.000,191.482 106.000 C 191.217 106.000,191.000 106.075,191.000 106.167 C 191.000 106.258,190.662 106.333,190.250 106.333 C 189.838 106.333,189.500 106.408,189.500 106.500 C 189.500 106.603,188.587 106.667,187.093 106.667 C 185.668 106.667,184.644 106.599,184.583 106.500 C 184.527 106.408,184.072 106.333,183.573 106.333 C 183.075 106.333,182.667 106.258,182.667 106.167 C 182.667 106.075,182.450 106.000,182.184 106.000 C 181.910 106.000,181.661 105.893,181.606 105.750 C 181.554 105.612,181.358 105.500,181.172 105.500 C 180.986 105.500,180.833 105.425,180.833 105.333 C 180.833 105.242,180.718 105.167,180.576 105.167 C 180.435 105.167,180.158 105.017,179.962 104.833 C 179.765 104.650,179.468 104.500,179.302 104.500 C 179.136 104.500,179.000 104.418,179.000 104.317 C 179.000 104.125,178.358 103.479,177.609 102.919 C 177.366 102.737,177.167 102.493,177.167 102.377 C 177.167 102.261,177.092 102.167,177.000 102.167 C 176.908 102.167,176.833 102.049,176.833 101.905 C 176.833 101.605,176.444 101.167,176.179 101.167 C 176.080 101.167,176.000 100.979,176.000 100.750 C 176.000 100.521,175.925 100.333,175.833 100.333 C 175.742 100.333,175.667 100.183,175.667 100.000 C 175.667 99.817,175.592 99.667,175.500 99.667 C 175.408 99.667,175.333 99.479,175.333 99.250 C 175.333 99.021,175.258 98.833,175.167 98.833 C 175.075 98.833,175.000 98.608,175.000 98.333 C 175.000 98.000,174.917 97.833,174.750 97.833 C 174.575 97.833,174.500 97.657,174.500 97.250 C 174.500 96.929,174.425 96.667,174.333 96.667 C 174.242 96.667,174.167 96.254,174.167 95.750 C 174.167 95.246,174.092 94.833,174.000 94.833 C 173.904 94.833,173.833 94.309,173.833 93.593 C 173.833 92.911,173.758 92.307,173.667 92.250 C 173.556 92.182,173.500 76.943,173.500 47.073 L 173.500 2.000 161.083 2.000 L 148.667 2.000 148.667 46.333 M231.667 3.066 C 231.667 3.859,231.731 4.156,231.917 4.227 C 232.081 4.290,232.167 4.550,232.167 4.985 C 232.167 5.349,232.242 5.693,232.333 5.750 C 232.425 5.807,232.500 6.149,232.500 6.510 C 232.500 6.871,232.575 7.167,232.667 7.167 C 232.758 7.167,232.833 7.575,232.833 8.073 C 232.833 8.572,232.908 9.027,233.000 9.083 C 233.092 9.140,233.167 9.482,233.167 9.843 C 233.167 10.204,233.242 10.500,233.333 10.500 C 233.425 10.500,233.500 10.781,233.501 11.125 C 233.502 11.469,233.614 11.965,233.751 12.227 C 233.888 12.490,234.000 12.959,234.000 13.269 C 234.000 13.579,234.075 13.833,234.167 13.833 C 234.258 13.833,234.333 14.171,234.333 14.583 C 234.333 14.996,234.408 15.333,234.500 15.333 C 234.592 15.333,234.667 15.741,234.667 16.240 C 234.667 16.739,234.742 17.193,234.833 17.250 C 234.925 17.307,235.000 17.649,235.000 18.010 C 235.000 18.483,235.070 18.667,235.250 18.667 C 235.442 18.667,235.500 18.880,235.500 19.583 C 235.500 20.087,235.575 20.500,235.667 20.500 C 235.758 20.500,235.833 20.837,235.833 21.250 C 235.833 21.662,235.908 22.000,236.000 22.000 C 236.092 22.000,236.167 22.412,236.167 22.917 C 236.167 23.421,236.242 23.833,236.333 23.833 C 236.425 23.833,236.500 24.171,236.500 24.583 C 236.500 25.139,236.565 25.333,236.750 25.333 C 236.935 25.333,237.000 25.528,237.000 26.083 C 237.000 26.496,237.075 26.833,237.167 26.833 C 237.258 26.833,237.333 27.241,237.333 27.740 C 237.333 28.239,237.408 28.693,237.500 28.750 C 237.592 28.807,237.667 29.149,237.667 29.510 C 237.667 29.871,237.742 30.167,237.833 30.167 C 237.925 30.167,238.000 30.579,238.000 31.083 C 238.000 31.587,238.075 32.000,238.167 32.000 C 238.258 32.000,238.333 32.337,238.333 32.750 C 238.333 33.306,238.398 33.500,238.583 33.500 C 238.775 33.500,238.833 33.712,238.833 34.407 C 238.833 34.906,238.908 35.360,239.000 35.417 C 239.092 35.473,239.167 35.811,239.167 36.167 C 239.167 36.523,239.242 36.860,239.333 36.917 C 239.425 36.973,239.500 37.315,239.500 37.677 C 239.500 38.038,239.575 38.333,239.667 38.333 C 239.758 38.333,239.833 38.748,239.833 39.255 C 239.833 39.921,239.903 40.204,240.083 40.273 C 240.246 40.336,240.333 40.595,240.333 41.018 C 240.333 41.375,240.408 41.667,240.500 41.667 C 240.592 41.667,240.667 42.079,240.667 42.583 C 240.667 43.087,240.742 43.500,240.833 43.500 C 240.925 43.500,241.000 43.837,241.000 44.250 C 241.000 44.663,241.075 45.000,241.167 45.000 C 241.258 45.000,241.333 45.337,241.333 45.750 C 241.333 46.163,241.408 46.500,241.500 46.500 C 241.592 46.500,241.667 46.823,241.667 47.218 C 241.667 47.613,241.777 48.082,241.911 48.260 C 242.046 48.438,242.158 48.865,242.161 49.208 C 242.164 49.552,242.242 49.833,242.333 49.833 C 242.425 49.833,242.500 50.246,242.500 50.750 C 242.500 51.254,242.575 51.667,242.667 51.667 C 242.758 51.667,242.833 52.004,242.833 52.417 C 242.833 52.829,242.908 53.167,243.000 53.167 C 243.092 53.167,243.167 53.532,243.167 53.980 C 243.167 54.499,243.257 54.867,243.417 55.000 C 243.559 55.118,243.667 55.482,243.667 55.844 C 243.667 56.194,243.742 56.527,243.833 56.583 C 243.925 56.640,244.000 56.982,244.000 57.343 C 244.000 57.704,244.075 58.000,244.167 58.000 C 244.258 58.000,244.333 58.408,244.333 58.907 C 244.333 59.406,244.408 59.860,244.500 59.917 C 244.592 59.973,244.667 60.315,244.667 60.677 C 244.667 61.149,244.737 61.333,244.917 61.333 C 245.108 61.333,245.167 61.545,245.167 62.240 C 245.167 62.739,245.242 63.193,245.333 63.250 C 245.425 63.307,245.500 63.649,245.500 64.010 C 245.500 64.371,245.575 64.667,245.667 64.667 C 245.758 64.667,245.833 65.004,245.833 65.417 C 245.833 65.829,245.908 66.167,246.000 66.167 C 246.092 66.167,246.167 66.575,246.167 67.073 C 246.167 67.572,246.242 68.027,246.333 68.083 C 246.425 68.140,246.500 68.482,246.500 68.843 C 246.500 69.316,246.570 69.500,246.750 69.500 C 246.942 69.500,247.000 69.712,247.000 70.407 C 247.000 70.906,247.075 71.360,247.167 71.417 C 247.258 71.473,247.333 71.815,247.333 72.177 C 247.333 72.538,247.408 72.833,247.500 72.833 C 247.592 72.833,247.667 73.246,247.667 73.750 C 247.667 74.254,247.742 74.667,247.833 74.667 C 247.925 74.667,248.000 75.004,248.000 75.417 C 248.000 75.972,248.065 76.167,248.250 76.167 C 248.435 76.167,248.500 76.361,248.500 76.917 C 248.500 77.329,248.575 77.667,248.667 77.667 C 248.758 77.667,248.833 78.075,248.833 78.573 C 248.833 79.072,248.908 79.527,249.000 79.583 C 249.092 79.640,249.167 79.982,249.167 80.343 C 249.167 80.704,249.242 81.000,249.333 81.000 C 249.425 81.000,249.500 81.412,249.500 81.917 C 249.500 82.421,249.575 82.833,249.667 82.833 C 249.758 82.833,249.833 83.136,249.833 83.505 C 249.833 83.949,249.918 84.210,250.083 84.273 C 250.262 84.342,250.333 84.622,250.333 85.258 C 250.333 85.747,250.408 86.193,250.500 86.250 C 250.592 86.307,250.667 86.644,250.667 87.000 C 250.667 87.356,250.742 87.693,250.833 87.750 C 250.925 87.807,251.000 88.149,251.000 88.510 C 251.000 88.871,251.075 89.167,251.167 89.167 C 251.258 89.167,251.333 89.582,251.333 90.089 C 251.333 90.754,251.403 91.037,251.583 91.106 C 251.746 91.169,251.833 91.428,251.833 91.851 C 251.833 92.208,251.908 92.500,252.000 92.500 C 252.092 92.500,252.167 92.912,252.167 93.417 C 252.167 93.921,252.242 94.333,252.333 94.333 C 252.425 94.333,252.500 94.671,252.500 95.083 C 252.500 95.496,252.575 95.833,252.667 95.833 C 252.758 95.833,252.833 96.171,252.833 96.583 C 252.833 96.996,252.908 97.333,253.000 97.333 C 253.092 97.333,253.167 97.615,253.168 97.958 C 253.168 98.302,253.281 98.798,253.418 99.061 C 253.555 99.323,253.667 99.792,253.667 100.102 C 253.667 100.413,253.742 100.667,253.833 100.667 C 253.925 100.667,254.000 101.075,254.000 101.573 C 254.000 102.072,254.075 102.527,254.167 102.583 C 254.258 102.640,254.333 102.982,254.333 103.343 C 254.333 103.704,254.408 104.000,254.500 104.000 C 254.592 104.000,254.667 104.366,254.667 104.813 C 254.667 105.332,254.757 105.701,254.917 105.833 C 255.069 105.960,255.167 106.325,255.167 106.770 C 255.167 107.172,255.242 107.500,255.333 107.500 C 255.425 107.500,255.500 107.800,255.500 108.167 C 255.500 108.533,255.575 108.833,255.667 108.833 C 255.758 108.833,255.833 109.241,255.833 109.740 C 255.833 110.239,255.908 110.693,256.000 110.750 C 256.092 110.807,256.167 111.149,256.167 111.510 C 256.167 111.983,256.237 112.167,256.417 112.167 C 256.608 112.167,256.667 112.379,256.667 113.073 C 256.667 113.572,256.742 114.027,256.833 114.083 C 256.925 114.140,257.000 114.482,257.000 114.843 C 257.000 115.204,257.075 115.500,257.167 115.500 C 257.258 115.500,257.333 115.908,257.333 116.407 C 257.333 116.906,257.408 117.360,257.500 117.417 C 257.592 117.473,257.667 117.811,257.667 118.167 C 257.667 118.523,257.742 118.860,257.833 118.917 C 257.925 118.973,258.000 119.315,258.000 119.677 C 258.000 120.149,258.070 120.333,258.250 120.333 C 258.442 120.333,258.500 120.545,258.500 121.240 C 258.500 121.739,258.575 122.193,258.667 122.250 C 258.758 122.307,258.833 122.499,258.833 122.677 C 258.833 122.994,259.104 123.000,274.583 123.000 L 290.333 123.000 290.333 122.250 C 290.333 121.837,290.408 121.500,290.500 121.500 C 290.592 121.500,290.667 121.195,290.667 120.821 C 290.667 120.440,290.776 120.033,290.917 119.893 C 291.064 119.746,291.167 119.339,291.167 118.905 C 291.167 118.499,291.242 118.167,291.333 118.167 C 291.425 118.167,291.500 117.829,291.500 117.417 C 291.500 117.004,291.575 116.667,291.667 116.667 C 291.758 116.667,291.833 116.254,291.833 115.750 C 291.833 115.246,291.908 114.833,292.000 114.833 C 292.092 114.833,292.167 114.496,292.167 114.083 C 292.167 113.671,292.242 113.333,292.333 113.333 C 292.425 113.333,292.500 112.921,292.500 112.417 C 292.500 111.713,292.558 111.500,292.750 111.500 C 292.935 111.500,293.000 111.306,293.000 110.750 C 293.000 110.337,293.075 110.000,293.167 110.000 C 293.258 110.000,293.333 109.662,293.333 109.250 C 293.333 108.837,293.408 108.500,293.500 108.500 C 293.592 108.500,293.667 108.087,293.667 107.583 C 293.667 107.079,293.742 106.667,293.833 106.667 C 293.925 106.667,294.000 106.337,294.000 105.934 C 294.000 105.437,294.080 105.172,294.250 105.106 C 294.426 105.039,294.500 104.764,294.500 104.172 C 294.500 103.711,294.575 103.333,294.667 103.333 C 294.758 103.333,294.833 102.996,294.833 102.583 C 294.833 102.171,294.908 101.833,295.000 101.833 C 295.092 101.833,295.167 101.421,295.167 100.917 C 295.167 100.412,295.242 100.000,295.333 100.000 C 295.425 100.000,295.500 99.671,295.500 99.268 C 295.500 98.771,295.580 98.505,295.750 98.440 C 295.915 98.376,296.000 98.115,296.000 97.672 C 296.000 97.302,296.075 97.000,296.167 97.000 C 296.258 97.000,296.333 96.587,296.333 96.083 C 296.333 95.579,296.408 95.167,296.500 95.167 C 296.592 95.167,296.667 94.829,296.667 94.417 C 296.667 94.004,296.742 93.667,296.833 93.667 C 296.925 93.667,297.000 93.254,297.000 92.750 C 297.000 92.246,297.075 91.833,297.167 91.833 C 297.258 91.833,297.333 91.496,297.333 91.083 C 297.333 90.528,297.398 90.333,297.583 90.333 C 297.769 90.333,297.833 90.139,297.833 89.583 C 297.833 89.171,297.908 88.833,298.000 88.833 C 298.092 88.833,298.167 88.421,298.167 87.917 C 298.167 87.412,298.242 87.000,298.333 87.000 C 298.425 87.000,298.500 86.662,298.500 86.250 C 298.500 85.837,298.575 85.500,298.667 85.500 C 298.758 85.500,298.833 85.087,298.833 84.583 C 298.833 83.880,298.891 83.667,299.083 83.667 C 299.269 83.667,299.333 83.472,299.333 82.917 C 299.333 82.504,299.408 82.167,299.500 82.167 C 299.592 82.167,299.667 81.754,299.667 81.250 C 299.667 80.746,299.742 80.333,299.833 80.333 C 299.925 80.333,300.000 79.996,300.000 79.583 C 300.000 79.171,300.075 78.833,300.167 78.833 C 300.258 78.833,300.333 78.496,300.333 78.083 C 300.333 77.671,300.408 77.333,300.500 77.333 C 300.592 77.333,300.667 76.921,300.667 76.417 C 300.667 75.713,300.725 75.500,300.917 75.500 C 301.102 75.500,301.167 75.306,301.167 74.750 C 301.167 74.337,301.242 74.000,301.333 74.000 C 301.425 74.000,301.500 73.587,301.500 73.083 C 301.500 72.579,301.575 72.167,301.667 72.167 C 301.758 72.167,301.833 71.829,301.833 71.417 C 301.833 71.004,301.908 70.667,302.000 70.667 C 302.092 70.667,302.167 70.361,302.167 69.988 C 302.167 69.607,302.276 69.200,302.417 69.060 C 302.564 68.913,302.667 68.505,302.667 68.071 C 302.667 67.665,302.742 67.333,302.833 67.333 C 302.925 67.333,303.000 66.996,303.000 66.583 C 303.000 66.171,303.075 65.833,303.167 65.833 C 303.258 65.833,303.333 65.421,303.333 64.917 C 303.333 64.412,303.408 64.000,303.500 64.000 C 303.592 64.000,303.667 63.663,303.667 63.250 C 303.667 62.837,303.742 62.500,303.833 62.500 C 303.925 62.500,304.000 62.087,304.000 61.583 C 304.000 60.880,304.058 60.667,304.250 60.667 C 304.435 60.667,304.500 60.472,304.500 59.917 C 304.500 59.504,304.575 59.167,304.667 59.167 C 304.758 59.167,304.833 58.829,304.833 58.417 C 304.833 58.004,304.908 57.667,305.000 57.667 C 305.092 57.667,305.167 57.254,305.167 56.750 C 305.167 56.246,305.242 55.833,305.333 55.833 C 305.425 55.833,305.500 55.504,305.500 55.101 C 305.500 54.604,305.580 54.338,305.750 54.273 C 305.926 54.205,306.000 53.930,306.000 53.339 C 306.000 52.877,306.075 52.500,306.167 52.500 C 306.258 52.500,306.333 52.163,306.333 51.750 C 306.333 51.337,306.408 51.000,306.500 51.000 C 306.592 51.000,306.667 50.587,306.667 50.083 C 306.667 49.579,306.742 49.167,306.833 49.167 C 306.925 49.167,307.000 48.837,307.000 48.434 C 307.000 47.937,307.080 47.672,307.250 47.606 C 307.415 47.543,307.500 47.282,307.500 46.839 C 307.500 46.469,307.575 46.167,307.667 46.167 C 307.758 46.167,307.833 45.754,307.833 45.250 C 307.833 44.746,307.908 44.333,308.000 44.333 C 308.092 44.333,308.167 43.996,308.167 43.583 C 308.167 43.171,308.242 42.833,308.333 42.833 C 308.425 42.833,308.500 42.421,308.500 41.917 C 308.500 41.412,308.575 41.000,308.667 41.000 C 308.758 41.000,308.833 40.662,308.833 40.250 C 308.833 39.694,308.898 39.500,309.083 39.500 C 309.269 39.500,309.333 39.306,309.333 38.750 C 309.333 38.337,309.408 38.000,309.500 38.000 C 309.592 38.000,309.667 37.587,309.667 37.083 C 309.667 36.579,309.742 36.167,309.833 36.167 C 309.925 36.167,310.000 35.829,310.000 35.417 C 310.000 35.004,310.075 34.667,310.167 34.667 C 310.258 34.667,310.333 34.262,310.333 33.768 C 310.333 33.123,310.404 32.842,310.583 32.773 C 310.748 32.710,310.833 32.449,310.833 32.005 C 310.833 31.636,310.908 31.333,311.000 31.333 C 311.092 31.333,311.167 30.921,311.167 30.417 C 311.167 29.912,311.242 29.500,311.333 29.500 C 311.425 29.500,311.500 29.162,311.500 28.750 C 311.500 28.337,311.575 28.000,311.667 28.000 C 311.758 28.000,311.833 27.662,311.833 27.250 C 311.833 26.837,311.908 26.500,312.000 26.500 C 312.092 26.500,312.167 26.087,312.167 25.583 C 312.167 24.880,312.225 24.667,312.417 24.667 C 312.602 24.667,312.667 24.472,312.667 23.917 C 312.667 23.504,312.742 23.167,312.833 23.167 C 312.925 23.167,313.000 22.754,313.000 22.250 C 313.000 21.746,313.075 21.333,313.167 21.333 C 313.258 21.333,313.333 20.996,313.333 20.583 C 313.333 20.171,313.408 19.833,313.500 19.833 C 313.592 19.833,313.667 19.421,313.667 18.917 C 313.667 18.213,313.725 18.000,313.917 18.000 C 314.102 18.000,314.167 17.806,314.167 17.250 C 314.167 16.837,314.242 16.500,314.333 16.500 C 314.425 16.500,314.500 16.162,314.500 15.750 C 314.500 15.338,314.575 15.000,314.667 15.000 C 314.758 15.000,314.833 14.588,314.833 14.083 C 314.833 13.579,314.908 13.167,315.000 13.167 C 315.092 13.167,315.167 12.837,315.167 12.434 C 315.167 11.937,315.247 11.672,315.417 11.606 C 315.593 11.539,315.667 11.264,315.667 10.672 C 315.667 10.211,315.742 9.833,315.833 9.833 C 315.925 9.833,316.000 9.496,316.000 9.083 C 316.000 8.671,316.075 8.333,316.167 8.333 C 316.258 8.333,316.333 7.996,316.333 7.583 C 316.333 7.171,316.408 6.833,316.500 6.833 C 316.592 6.833,316.667 6.421,316.667 5.917 C 316.667 5.412,316.742 5.000,316.833 5.000 C 316.925 5.000,317.000 4.671,317.000 4.268 C 317.000 3.771,317.080 3.505,317.250 3.440 C 317.415 3.376,317.500 3.115,317.500 2.672 L 317.500 2.000 304.667 2.000 L 291.833 2.000 291.833 2.750 C 291.833 3.163,291.758 3.500,291.667 3.500 C 291.575 3.500,291.500 3.913,291.500 4.417 C 291.500 4.921,291.425 5.333,291.333 5.333 C 291.242 5.333,291.167 5.738,291.167 6.232 C 291.167 6.877,291.096 7.158,290.917 7.227 C 290.736 7.296,290.667 7.579,290.667 8.245 C 290.667 8.752,290.592 9.167,290.500 9.167 C 290.408 9.167,290.333 9.579,290.333 10.083 C 290.333 10.587,290.258 11.000,290.167 11.000 C 290.075 11.000,290.000 11.412,290.000 11.917 C 290.000 12.421,289.925 12.833,289.833 12.833 C 289.742 12.833,289.667 13.214,289.667 13.679 C 289.667 14.208,289.573 14.617,289.417 14.774 C 289.271 14.920,289.167 15.327,289.167 15.752 C 289.167 16.153,289.092 16.527,289.000 16.583 C 288.908 16.640,288.833 17.132,288.833 17.677 C 288.833 18.226,288.759 18.667,288.667 18.667 C 288.574 18.667,288.500 19.111,288.500 19.667 C 288.500 20.222,288.426 20.667,288.333 20.667 C 288.242 20.667,288.167 21.079,288.167 21.583 C 288.167 22.087,288.092 22.500,288.000 22.500 C 287.908 22.500,287.833 22.912,287.833 23.417 C 287.833 24.120,287.775 24.333,287.583 24.333 C 287.391 24.333,287.333 24.546,287.333 25.250 C 287.333 25.754,287.258 26.167,287.167 26.167 C 287.075 26.167,287.000 26.579,287.000 27.083 C 287.000 27.587,286.925 28.000,286.833 28.000 C 286.742 28.000,286.667 28.412,286.667 28.917 C 286.667 29.421,286.592 29.833,286.500 29.833 C 286.408 29.833,286.333 30.238,286.333 30.732 C 286.333 31.377,286.263 31.658,286.083 31.727 C 285.903 31.796,285.833 32.079,285.833 32.745 C 285.833 33.252,285.758 33.667,285.667 33.667 C 285.575 33.667,285.500 34.079,285.500 34.583 C 285.500 35.087,285.425 35.500,285.333 35.500 C 285.242 35.500,285.167 35.912,285.167 36.417 C 285.167 36.921,285.092 37.333,285.000 37.333 C 284.908 37.333,284.833 37.746,284.833 38.250 C 284.833 38.754,284.769 39.167,284.690 39.167 C 284.611 39.167,284.500 39.560,284.443 40.041 C 284.386 40.521,284.263 40.940,284.170 40.971 C 284.076 41.002,284.000 41.434,284.000 41.931 C 284.000 42.427,283.925 42.833,283.833 42.833 C 283.742 42.833,283.667 43.246,283.667 43.750 C 283.667 44.254,283.592 44.667,283.500 44.667 C 283.408 44.667,283.333 45.075,283.333 45.573 C 283.333 46.072,283.258 46.527,283.167 46.583 C 283.075 46.640,283.000 47.086,283.000 47.575 C 283.000 48.212,282.929 48.492,282.750 48.560 C 282.574 48.628,282.500 48.903,282.500 49.495 C 282.500 49.956,282.425 50.333,282.333 50.333 C 282.239 50.333,282.167 50.806,282.167 51.417 C 282.167 52.028,282.094 52.500,282.000 52.500 C 281.908 52.500,281.833 52.913,281.833 53.417 C 281.833 53.921,281.758 54.333,281.667 54.333 C 281.575 54.333,281.500 54.738,281.500 55.232 C 281.500 55.877,281.429 56.158,281.250 56.227 C 281.074 56.294,281.000 56.569,281.000 57.152 C 281.000 57.607,280.925 58.027,280.833 58.083 C 280.742 58.140,280.667 58.594,280.667 59.093 C 280.667 59.592,280.592 60.000,280.500 60.000 C 280.408 60.000,280.333 60.413,280.333 60.917 C 280.333 61.421,280.258 61.833,280.167 61.833 C 280.075 61.833,280.000 62.246,280.000 62.750 C 280.000 63.254,279.925 63.667,279.833 63.667 C 279.742 63.667,279.667 64.079,279.667 64.583 C 279.667 65.287,279.609 65.500,279.417 65.500 C 279.225 65.500,279.167 65.713,279.167 66.417 C 279.167 66.921,279.092 67.333,279.000 67.333 C 278.908 67.333,278.833 67.746,278.833 68.250 C 278.833 68.754,278.758 69.167,278.667 69.167 C 278.575 69.167,278.500 69.579,278.500 70.083 C 278.500 70.587,278.425 71.000,278.333 71.000 C 278.242 71.000,278.167 71.415,278.167 71.922 C 278.167 72.588,278.097 72.870,277.917 72.940 C 277.737 73.009,277.667 73.289,277.667 73.934 C 277.667 74.429,277.592 74.833,277.500 74.833 C 277.408 74.833,277.333 75.246,277.333 75.750 C 277.333 76.254,277.258 76.667,277.167 76.667 C 277.075 76.667,277.000 77.079,277.000 77.583 C 277.000 78.087,276.925 78.500,276.833 78.500 C 276.742 78.500,276.667 78.912,276.667 79.417 C 276.667 79.921,276.592 80.333,276.500 80.333 C 276.408 80.333,276.333 80.738,276.333 81.232 C 276.333 81.877,276.263 82.158,276.083 82.227 C 275.896 82.299,275.833 82.598,275.833 83.411 C 275.833 84.026,275.761 84.500,275.667 84.500 C 275.575 84.500,275.500 84.912,275.500 85.417 C 275.500 85.921,275.425 86.333,275.333 86.333 C 275.242 86.333,275.167 86.746,275.167 87.250 C 275.167 87.754,275.092 88.167,275.000 88.167 C 274.908 88.167,274.833 88.579,274.833 89.083 C 274.833 89.787,274.775 90.000,274.583 90.000 C 274.398 90.000,274.333 89.806,274.333 89.250 C 274.333 88.837,274.258 88.500,274.167 88.500 C 274.075 88.500,274.000 88.087,274.000 87.583 C 274.000 87.079,273.925 86.667,273.833 86.667 C 273.742 86.667,273.667 86.254,273.667 85.750 C 273.667 85.246,273.592 84.833,273.500 84.833 C 273.408 84.833,273.333 84.421,273.333 83.917 C 273.333 83.213,273.275 83.000,273.083 83.000 C 272.885 83.000,272.833 82.759,272.833 81.833 C 272.833 81.167,272.762 80.667,272.667 80.667 C 272.575 80.667,272.500 80.254,272.500 79.750 C 272.500 79.246,272.425 78.833,272.333 78.833 C 272.242 78.833,272.167 78.421,272.167 77.917 C 272.167 77.412,272.092 77.000,272.000 77.000 C 271.906 77.000,271.833 76.528,271.833 75.917 C 271.833 75.306,271.761 74.833,271.667 74.833 C 271.575 74.833,271.500 74.468,271.500 74.020 C 271.500 73.501,271.410 73.133,271.250 73.000 C 271.084 72.863,271.000 72.490,271.000 71.896 C 271.000 71.403,270.925 71.000,270.833 71.000 C 270.739 71.000,270.667 70.528,270.667 69.917 C 270.667 69.306,270.594 68.833,270.500 68.833 C 270.408 68.833,270.333 68.421,270.333 67.917 C 270.333 67.412,270.258 67.000,270.167 67.000 C 270.075 67.000,270.000 66.587,270.000 66.083 C 270.000 65.380,269.942 65.167,269.750 65.167 C 269.554 65.167,269.500 64.936,269.500 64.093 C 269.500 63.503,269.425 62.973,269.333 62.917 C 269.242 62.860,269.167 62.406,269.167 61.907 C 269.167 61.408,269.092 61.000,269.000 61.000 C 268.908 61.000,268.833 60.587,268.833 60.083 C 268.833 59.579,268.758 59.167,268.667 59.167 C 268.575 59.167,268.500 58.754,268.500 58.250 C 268.500 57.746,268.425 57.333,268.333 57.333 C 268.242 57.333,268.167 56.926,268.167 56.429 C 268.167 55.847,268.077 55.435,267.917 55.274 C 267.761 55.118,267.667 54.709,267.667 54.188 C 267.667 53.729,267.592 53.307,267.500 53.250 C 267.408 53.193,267.333 52.739,267.333 52.240 C 267.333 51.741,267.258 51.333,267.167 51.333 C 267.073 51.333,267.000 50.861,267.000 50.250 C 267.000 49.639,266.927 49.167,266.833 49.167 C 266.742 49.167,266.667 48.754,266.667 48.250 C 266.667 47.546,266.609 47.333,266.417 47.333 C 266.225 47.333,266.167 47.120,266.167 46.417 C 266.167 45.913,266.092 45.500,266.000 45.500 C 265.906 45.500,265.833 45.031,265.833 44.427 C 265.833 43.836,265.758 43.307,265.667 43.250 C 265.575 43.193,265.500 42.739,265.500 42.240 C 265.500 41.741,265.425 41.333,265.333 41.333 C 265.242 41.333,265.167 40.921,265.167 40.417 C 265.167 39.713,265.109 39.500,264.917 39.500 C 264.720 39.500,264.667 39.269,264.667 38.417 C 264.667 37.806,264.594 37.333,264.500 37.333 C 264.408 37.333,264.333 36.921,264.333 36.417 C 264.333 35.912,264.258 35.500,264.167 35.500 C 264.075 35.500,264.000 35.087,264.000 34.583 C 264.000 34.079,263.925 33.667,263.833 33.667 C 263.741 33.667,263.667 33.222,263.667 32.667 C 263.667 32.111,263.593 31.667,263.500 31.667 C 263.408 31.667,263.333 31.260,263.333 30.762 C 263.333 30.180,263.244 29.768,263.083 29.607 C 262.927 29.451,262.833 29.041,262.833 28.512 C 262.833 28.047,262.758 27.667,262.667 27.667 C 262.575 27.667,262.500 27.254,262.500 26.750 C 262.500 26.246,262.425 25.833,262.333 25.833 C 262.239 25.833,262.167 25.364,262.167 24.760 C 262.167 24.169,262.092 23.640,262.000 23.583 C 261.908 23.527,261.833 23.107,261.833 22.652 C 261.833 22.069,261.759 21.794,261.583 21.727 C 261.404 21.658,261.333 21.377,261.333 20.732 C 261.333 20.238,261.258 19.833,261.167 19.833 C 261.073 19.833,261.000 19.361,261.000 18.750 C 261.000 18.139,260.927 17.667,260.833 17.667 C 260.742 17.667,260.667 17.254,260.667 16.750 C 260.667 16.246,260.592 15.833,260.500 15.833 C 260.408 15.833,260.333 15.421,260.333 14.917 C 260.333 14.412,260.258 14.000,260.167 14.000 C 260.074 14.000,260.000 13.560,260.000 13.012 C 260.000 12.356,259.916 11.940,259.750 11.774 C 259.594 11.617,259.500 11.208,259.500 10.679 C 259.500 10.214,259.425 9.833,259.333 9.833 C 259.242 9.833,259.167 9.421,259.167 8.917 C 259.167 8.412,259.092 8.000,259.000 8.000 C 258.908 8.000,258.833 7.587,258.833 7.083 C 258.833 6.579,258.758 6.167,258.667 6.167 C 258.573 6.167,258.500 5.700,258.500 5.101 C 258.500 4.308,258.436 4.011,258.250 3.940 C 258.069 3.870,258.000 3.588,258.000 2.922 L 258.000 2.000 244.833 2.000 L 231.667 2.000 231.667 3.066 " stroke="none" fill="#040404" fill-rule="evenodd"></path><path id="path4" d="" stroke="none" fill="#9c546c" fill-rule="evenodd"></path></g></svg>