<svg width="388" height="128" xmlns="http://www.w3.org/2000/svg">
 <!-- Created with Method Draw - http://github.com/duopixel/Method-Draw/ -->

 <g>
  <title>background</title>
  <rect x="-1" y="-1" width="390" height="130" id="canvas_background" fill="none"/>
  <g id="canvasGrid" display="none">
   <rect id="svg_1" width="800" height="600" x="-80" y="-60" stroke-width="0" fill="url(#gridpattern)"/>
  </g>
 </g>
 <g>
  <title>Layer 1</title>
  <g id="svg_10">
   <path id="svg_11" fill="#9c546c" fill-rule="evenodd"/>
   <g id="svg_18">
    <path id="svg_12" d="m337.20854,1.67799c-0.688,0.037 -1.321,0.139 -1.408,0.226c-0.088,0.088 -0.521,0.159 -0.964,0.159c-0.562,0 -0.834,0.076 -0.901,0.25c-0.066,0.17 -0.331,0.25 -0.828,0.25c-0.403,0 -0.733,0.075 -0.733,0.167c0,0.091 -0.337,0.166 -0.75,0.166c-0.412,0 -0.75,0.075 -0.75,0.167c0,0.092 -0.225,0.167 -0.5,0.167c-0.275,0 -0.5,0.075 -0.5,0.166c0,0.092 -0.262,0.167 -0.583,0.167c-0.321,0 -0.583,0.075 -0.583,0.167c0,0.091 -0.136,0.166 -0.302,0.166c-0.166,0 -0.447,0.11 -0.625,0.245c-0.178,0.135 -0.455,0.247 -0.615,0.25c-0.16,0.003 -0.292,0.08 -0.292,0.172c0,0.092 -0.145,0.167 -0.323,0.167c-0.178,0 -0.37,0.075 -0.427,0.166c-0.056,0.092 -0.248,0.167 -0.426,0.167c-0.178,0 -0.324,0.075 -0.324,0.167c0,0.091 -0.15,0.166 -0.333,0.166c-0.185,0 -0.333,0.111 -0.333,0.25c0,0.156 -0.158,0.25 -0.417,0.25c-0.229,0 -0.417,0.075 -0.417,0.167c0,0.092 -0.15,0.167 -0.333,0.167c-0.183,0 -0.333,0.075 -0.333,0.166c0,0.092 -0.132,0.169 -0.292,0.172c-0.36,0.007 -0.875,0.382 -0.875,0.638c0,0.105 -0.15,0.19 -0.333,0.19c-0.184,0 -0.334,0.075 -0.334,0.167c0,0.092 -0.096,0.167 -0.213,0.167c-0.117,0 -0.321,0.15 -0.453,0.333c-0.132,0.183 -0.346,0.333 -0.474,0.333c-0.128,0 -0.556,0.338 -0.952,0.75c-0.395,0.413 -0.804,0.75 -0.909,0.75c-0.235,0 -1.832,1.595 -1.832,1.83c0,0.094 -0.413,0.58 -0.917,1.08c-0.504,0.5 -0.916,0.984 -0.916,1.076c0,0.091 -0.188,0.353 -0.417,0.583c-0.229,0.229 -0.417,0.553 -0.417,0.72c0,0.168 -0.15,0.413 -0.333,0.545c-0.183,0.132 -0.333,0.365 -0.333,0.519c0,0.153 -0.113,0.322 -0.25,0.374c-0.138,0.053 -0.25,0.249 -0.25,0.435c0,0.186 -0.075,0.338 -0.167,0.338c-0.092,0 -0.167,0.15 -0.167,0.334c0,0.183 -0.075,0.333 -0.166,0.333c-0.092,0 -0.167,0.188 -0.167,0.417c0,0.229 -0.075,0.416 -0.167,0.416c-0.091,0 -0.166,0.142 -0.166,0.316c0,0.173 -0.113,0.359 -0.25,0.411c-0.146,0.056 -0.25,0.306 -0.25,0.601c0,0.278 -0.075,0.506 -0.167,0.506c-0.092,0 -0.167,0.225 -0.167,0.5c0,0.275 -0.075,0.5 -0.166,0.5c-0.092,0 -0.167,0.262 -0.167,0.583c0,0.321 -0.075,0.583 -0.167,0.583c-0.091,0 -0.166,0.257 -0.166,0.57c0,0.313 -0.08,0.596 -0.178,0.628c-0.097,0.033 -0.22,0.377 -0.272,0.764c-0.052,0.388 -0.159,0.705 -0.239,0.705c-0.08,0 -0.145,0.412 -0.145,0.917c0,0.504 -0.075,0.916 -0.166,0.916c-0.097,0 -0.167,0.525 -0.167,1.24c0,0.683 -0.075,1.287 -0.167,1.344c-0.106,0.066 -0.166,2.474 -0.166,6.676c0,4.271 0.058,6.574 0.166,6.574c0.098,0 0.167,0.555 0.167,1.333c0,0.778 0.069,1.333 0.167,1.333c0.091,0 0.166,0.413 0.166,0.917c0,0.504 0.065,0.917 0.145,0.917c0.08,0 0.187,0.317 0.239,0.704c0.052,0.388 0.175,0.732 0.272,0.764c0.098,0.033 0.178,0.316 0.178,0.629c0,0.313 0.075,0.569 0.166,0.569c0.092,0 0.167,0.225 0.167,0.5c0,0.275 0.075,0.5 0.167,0.5c0.091,0 0.166,0.188 0.166,0.417c0,0.229 0.075,0.417 0.167,0.417c0.092,0 0.167,0.217 0.167,0.482c0,0.275 0.107,0.523 0.25,0.578c0.137,0.053 0.25,0.248 0.25,0.434c0,0.187 0.075,0.339 0.166,0.339c0.092,0 0.167,0.15 0.167,0.333c0,0.184 0.075,0.334 0.167,0.334c0.091,0 0.166,0.155 0.166,0.345c0,0.369 0.361,0.821 0.655,0.821c0.098,0 0.179,0.188 0.179,0.417c0,0.229 0.075,0.417 0.166,0.417c0.092,0 0.167,0.133 0.167,0.296c0,0.163 0.15,0.405 0.333,0.537c0.184,0.132 0.334,0.302 0.334,0.377c0,0.159 0.209,0.423 0.958,1.21c0.298,0.313 0.542,0.614 0.542,0.669c0,0.132 0.446,0.577 0.579,0.577c0.131,0 0.921,0.786 0.921,0.917c0,0.128 0.788,0.917 0.916,0.917c0.131,0 0.917,0.789 0.917,0.921c0,0.169 0.463,0.579 0.655,0.579c0.098,0 0.178,0.075 0.178,0.166c0,0.092 0.118,0.167 0.262,0.167c0.143,0 0.508,0.262 0.811,0.583c0.302,0.321 0.656,0.584 0.785,0.584c0.13,0 0.344,0.15 0.476,0.333c0.132,0.183 0.393,0.333 0.58,0.333c0.187,0 0.481,0.188 0.653,0.417c0.173,0.229 0.415,0.417 0.54,0.417c0.125,0 0.227,0.075 0.227,0.166c0,0.092 0.171,0.167 0.38,0.167c0.208,0 0.488,0.15 0.62,0.333c0.132,0.184 0.376,0.334 0.542,0.334c0.166,0 0.345,0.112 0.397,0.25c0.053,0.137 0.238,0.25 0.412,0.25c0.173,0 0.315,0.075 0.315,0.166c0,0.092 0.15,0.167 0.334,0.167c0.183,0 0.333,0.075 0.333,0.167c0,0.091 0.188,0.166 0.417,0.166c0.229,0 0.416,0.075 0.416,0.167c0,0.092 0.142,0.167 0.316,0.167c0.173,0 0.359,0.112 0.411,0.25c0.053,0.137 0.249,0.25 0.435,0.25c0.186,0 0.338,0.075 0.338,0.166c0,0.092 0.15,0.167 0.334,0.167c0.183,0 0.333,0.075 0.333,0.167c0,0.091 0.262,0.166 0.583,0.166c0.321,0 0.584,0.075 0.584,0.167c0,0.092 0.15,0.167 0.333,0.167c0.183,0 0.333,0.075 0.333,0.166c0,0.092 0.18,0.167 0.399,0.167c0.22,0 0.442,0.112 0.495,0.25c0.053,0.137 0.281,0.25 0.508,0.25c0.227,0 0.458,0.075 0.515,0.167c0.057,0.091 0.249,0.166 0.427,0.166c0.177,0 0.323,0.075 0.323,0.167c0,0.092 0.262,0.167 0.583,0.167c0.321,0 0.584,0.075 0.584,0.166c0,0.092 0.217,0.167 0.482,0.167c0.275,0 0.523,0.107 0.578,0.25c0.053,0.137 0.248,0.25 0.434,0.25c0.187,0 0.339,0.075 0.339,0.167c0,0.091 0.221,0.166 0.49,0.166c0.27,0 0.537,0.075 0.593,0.167c0.057,0.092 0.324,0.167 0.594,0.167c0.269,0 0.49,0.075 0.49,0.166c0,0.092 0.262,0.167 0.583,0.167c0.321,0 0.583,0.075 0.583,0.167c0,0.091 0.217,0.166 0.483,0.166c0.274,0 0.523,0.108 0.578,0.25c0.056,0.146 0.305,0.25 0.601,0.25c0.278,0 0.505,0.075 0.505,0.167c0,0.092 0.188,0.167 0.417,0.167c0.229,0 0.416,0.075 0.416,0.166c0,0.092 0.225,0.167 0.5,0.167c0.275,0 0.5,0.075 0.5,0.167c0,0.091 0.18,0.166 0.399,0.166c0.22,0 0.442,0.113 0.495,0.25c0.053,0.138 0.286,0.25 0.518,0.25c0.232,0 0.422,0.075 0.422,0.167c0,0.092 0.187,0.167 0.416,0.167c0.23,0 0.417,0.075 0.417,0.166c0,0.092 0.15,0.167 0.333,0.167c0.184,0 0.334,0.075 0.334,0.167c0,0.091 0.187,0.166 0.416,0.166c0.23,0 0.417,0.075 0.417,0.167c0,0.092 0.142,0.167 0.316,0.167c0.173,0 0.358,0.112 0.411,0.25c0.053,0.137 0.248,0.25 0.434,0.25c0.187,0 0.339,0.075 0.339,0.166c0,0.092 0.15,0.167 0.333,0.167c0.184,0 0.334,0.075 0.334,0.167c0,0.091 0.169,0.166 0.377,0.166c0.207,0 0.517,0.188 0.69,0.417c0.172,0.229 0.415,0.417 0.539,0.417c0.125,0 0.227,0.075 0.227,0.166c0,0.092 0.113,0.167 0.25,0.167c0.137,0 0.25,0.075 0.25,0.167c0,0.091 0.108,0.166 0.24,0.166c0.314,0 3.76,3.447 3.76,3.76c0,0.132 0.075,0.24 0.167,0.24c0.091,0 0.166,0.113 0.166,0.25c0,0.138 0.075,0.25 0.167,0.25c0.092,0 0.167,0.15 0.167,0.334c0,0.185 0.111,0.333 0.25,0.333c0.155,0 0.25,0.157 0.25,0.417c0,0.229 0.075,0.416 0.166,0.416c0.092,0 0.167,0.15 0.167,0.334c0,0.183 0.075,0.333 0.167,0.333c0.091,0 0.166,0.337 0.166,0.75c0,0.412 0.075,0.75 0.167,0.75c0.092,0 0.167,0.331 0.167,0.736c0,0.441 0.083,0.764 0.208,0.806c0.157,0.052 0.208,0.888 0.208,3.422c0,2.459 -0.055,3.408 -0.208,3.561c-0.115,0.114 -0.208,0.568 -0.208,1.008c0,0.44 -0.075,0.8 -0.167,0.8c-0.092,0 -0.167,0.263 -0.167,0.584c0,0.32 -0.075,0.583 -0.166,0.583c-0.092,0 -0.167,0.188 -0.167,0.417c0,0.229 -0.075,0.416 -0.167,0.416c-0.091,0 -0.166,0.15 -0.166,0.334c0,0.185 -0.111,0.333 -0.25,0.333c-0.139,0 -0.25,0.148 -0.25,0.333c0,0.184 -0.075,0.334 -0.167,0.334c-0.092,0 -0.167,0.075 -0.167,0.166c0,0.092 -0.6,0.767 -1.333,1.5c-0.733,0.734 -1.408,1.334 -1.5,1.334c-0.092,0 -0.167,0.075 -0.167,0.166c0,0.092 -0.115,0.167 -0.255,0.167c-0.14,0 -0.298,0.112 -0.351,0.25c-0.053,0.137 -0.238,0.25 -0.411,0.25c-0.174,0 -0.316,0.075 -0.316,0.167c0,0.091 -0.113,0.166 -0.25,0.166c-0.137,0 -0.25,0.075 -0.25,0.167c0,0.092 -0.15,0.167 -0.333,0.167c-0.184,0 -0.334,0.075 -0.334,0.166c0,0.092 -0.227,0.167 -0.505,0.167c-0.295,0 -0.545,0.104 -0.601,0.25c-0.059,0.154 -0.313,0.25 -0.661,0.25c-0.312,0 -0.566,0.075 -0.566,0.167c0,0.091 -0.3,0.166 -0.667,0.166c-0.366,0 -0.666,0.075 -0.666,0.167c0,0.104 -1,0.167 -2.667,0.167c-1.667,0 -2.667,-0.063 -2.667,-0.167c0,-0.094 -0.472,-0.167 -1.083,-0.167c-0.611,0 -1.083,-0.072 -1.083,-0.166c0,-0.092 -0.263,-0.167 -0.584,-0.167c-0.407,0 -0.583,-0.075 -0.583,-0.25c0,-0.167 -0.167,-0.25 -0.5,-0.25c-0.275,0 -0.5,-0.075 -0.5,-0.167c0,-0.091 -0.187,-0.166 -0.417,-0.166c-0.229,0 -0.416,-0.075 -0.416,-0.167c0,-0.092 -0.15,-0.167 -0.334,-0.167c-0.183,0 -0.333,-0.075 -0.333,-0.166c0,-0.092 -0.078,-0.167 -0.174,-0.167c-0.181,0 -0.408,-0.167 -1.076,-0.792c-0.221,-0.206 -0.45,-0.375 -0.509,-0.375c-0.127,0 -0.853,-0.763 -1.322,-1.39c-0.182,-0.244 -0.426,-0.443 -0.542,-0.443c-0.116,0 -0.21,-0.15 -0.21,-0.333c0,-0.184 -0.075,-0.334 -0.167,-0.334c-0.092,0 -0.167,-0.112 -0.167,-0.25c0,-0.137 -0.075,-0.25 -0.166,-0.25c-0.092,0 -0.167,-0.15 -0.167,-0.333c0,-0.183 -0.075,-0.333 -0.167,-0.333c-0.091,0 -0.166,-0.188 -0.166,-0.417c0,-0.229 -0.075,-0.417 -0.167,-0.417c-0.092,0 -0.167,-0.225 -0.167,-0.5c0,-0.333 -0.083,-0.5 -0.25,-0.5c-0.185,0 -0.25,-0.194 -0.25,-0.75c0,-0.412 -0.075,-0.75 -0.166,-0.75c-0.094,0 -0.167,-0.469 -0.167,-1.073c0,-0.591 -0.075,-1.12 -0.167,-1.177c-0.097,-0.06 -0.166,-1.001 -0.166,-2.26c0,-1.326 -0.064,-2.156 -0.167,-2.156c-0.103,0 -0.167,-0.917 -0.167,-2.417l0,-2.417l-12.25,0l-12.25,0l0,4.834c0,3.111 0.06,4.833 0.167,4.833c0.101,0 0.167,0.722 0.167,1.833c0,1.111 0.065,1.834 0.166,1.834c0.092,0 0.167,0.412 0.167,0.916c0,0.504 0.075,0.917 0.167,0.917c0.091,0 0.166,0.412 0.166,0.917c0,0.703 0.058,0.916 0.25,0.916c0.186,0 0.25,0.195 0.25,0.75c0,0.413 0.075,0.75 0.167,0.75c0.092,0 0.167,0.263 0.167,0.584c0,0.32 0.075,0.583 0.166,0.583c0.092,0 0.167,0.225 0.167,0.5c0,0.275 0.075,0.5 0.167,0.5c0.091,0 0.166,0.181 0.166,0.403c0,0.408 0.478,1.467 0.709,1.569c0.068,0.031 0.125,0.2 0.125,0.375c0,0.176 0.075,0.32 0.166,0.32c0.092,0 0.167,0.15 0.167,0.333c0,0.183 0.075,0.333 0.167,0.333c0.091,0 0.166,0.188 0.166,0.417c0,0.229 0.075,0.417 0.167,0.417c0.092,0 0.167,0.15 0.167,0.333c0,0.185 0.111,0.333 0.25,0.333c0.149,0 0.25,0.154 0.25,0.38c0,0.209 0.15,0.488 0.333,0.62c0.183,0.132 0.333,0.374 0.333,0.537c0,0.163 0.075,0.297 0.167,0.297c0.092,0 0.167,0.112 0.167,0.25c0,0.137 0.112,0.25 0.25,0.25c0.137,0 0.25,0.133 0.25,0.296c0,0.163 0.15,0.405 0.333,0.537c0.183,0.132 0.333,0.302 0.333,0.378c0,0.075 0.169,0.316 0.375,0.533c0.207,0.218 0.6,0.675 0.875,1.015c0.275,0.34 0.64,0.74 0.811,0.888c0.17,0.148 0.409,0.363 0.529,0.478c0.121,0.114 0.338,0.208 0.482,0.208c0.144,0 0.262,0.095 0.262,0.21c0,0.116 0.2,0.36 0.444,0.542c0.244,0.182 0.539,0.425 0.655,0.54c0.115,0.114 0.299,0.208 0.406,0.208c0.108,0 0.344,0.188 0.524,0.417c0.181,0.229 0.473,0.416 0.649,0.416c0.177,0 0.322,0.075 0.322,0.167c0,0.092 0.15,0.167 0.333,0.167c0.183,0 0.333,0.075 0.333,0.166c0,0.092 0.17,0.167 0.377,0.167c0.208,0 0.518,0.187 0.69,0.417c0.207,0.274 0.476,0.416 0.79,0.416c0.262,0 0.477,0.075 0.477,0.167c0,0.092 0.15,0.167 0.333,0.167c0.183,0 0.333,0.075 0.333,0.166c0,0.092 0.188,0.167 0.417,0.167c0.229,0 0.417,0.075 0.417,0.167c0,0.091 0.217,0.166 0.482,0.166c0.275,0 0.523,0.108 0.578,0.25c0.056,0.146 0.306,0.25 0.601,0.25c0.278,0 0.505,0.075 0.505,0.167c0,0.092 0.263,0.167 0.584,0.167c0.321,0 0.583,0.075 0.583,0.166c0,0.092 0.337,0.167 0.75,0.167c0.412,0 0.75,0.075 0.75,0.167c0,0.091 0.412,0.166 0.917,0.166c0.504,0 0.916,0.075 0.916,0.167c0,0.092 0.413,0.167 0.917,0.167c0.704,0 0.917,0.058 0.917,0.25c0,0.199 0.249,0.25 1.24,0.25c0.682,0 1.286,0.075 1.343,0.166c0.061,0.099 1.057,0.167 2.427,0.167c1.437,0 2.323,0.064 2.323,0.167c0,0.106 1.528,0.166 4.25,0.166c2.722,0 4.25,-0.06 4.25,-0.166c0,-0.104 0.917,-0.167 2.417,-0.167c1.5,0 2.416,-0.063 2.416,-0.167c0,-0.097 0.556,-0.166 1.334,-0.166c1.074,0 1.333,-0.049 1.333,-0.25c0,-0.192 0.213,-0.25 0.917,-0.25c0.504,0 0.916,-0.075 0.916,-0.167c0,-0.092 0.413,-0.167 0.917,-0.167c0.504,0 0.917,-0.075 0.917,-0.166c0,-0.092 0.337,-0.167 0.75,-0.167c0.412,0 0.75,-0.075 0.75,-0.167c0,-0.091 0.262,-0.166 0.583,-0.166c0.321,0 0.583,-0.075 0.583,-0.167c0,-0.092 0.257,-0.167 0.572,-0.167c0.314,0 0.684,-0.112 0.821,-0.25c0.138,-0.137 0.443,-0.25 0.679,-0.25c0.235,0 0.428,-0.075 0.428,-0.166c0,-0.092 0.188,-0.167 0.417,-0.167c0.229,0 0.417,-0.075 0.417,-0.167c0,-0.091 0.225,-0.166 0.5,-0.166c0.275,0 0.5,-0.075 0.5,-0.167c0,-0.092 0.187,-0.167 0.416,-0.167c0.26,0 0.417,-0.094 0.417,-0.25c0,-0.139 0.148,-0.25 0.333,-0.25c0.184,0 0.334,-0.075 0.334,-0.166c0,-0.092 0.187,-0.167 0.416,-0.167c0.23,0 0.417,-0.075 0.417,-0.167c0,-0.091 0.15,-0.166 0.333,-0.166c0.184,0 0.334,-0.075 0.334,-0.167c0,-0.092 0.155,-0.167 0.345,-0.167c0.19,0 0.45,-0.093 0.577,-0.208c0.552,-0.495 0.74,-0.625 0.904,-0.625c0.096,0 0.174,-0.075 0.174,-0.167c0,-0.091 0.133,-0.166 0.296,-0.166c0.163,0 0.405,-0.15 0.537,-0.334c0.132,-0.183 0.363,-0.333 0.513,-0.333c0.151,0 0.414,-0.187 0.587,-0.417c0.172,-0.229 0.445,-0.416 0.606,-0.416c0.162,0 0.294,-0.063 0.294,-0.139c0,-0.076 0.188,-0.239 0.417,-0.361c0.229,-0.123 0.416,-0.289 0.416,-0.369c0,-0.23 0.794,-0.965 1.041,-0.965c0.291,0 1.459,-1.272 1.459,-1.589c0,-0.134 0.081,-0.244 0.179,-0.244c0.213,0 0.655,-0.417 0.655,-0.618c0,-0.078 0.15,-0.25 0.333,-0.382c0.183,-0.132 0.333,-0.341 0.333,-0.465c0,-0.123 0.263,-0.472 0.584,-0.774c0.321,-0.303 0.583,-0.673 0.583,-0.822c0,-0.15 0.075,-0.272 0.167,-0.272c0.091,0 0.166,-0.17 0.166,-0.377c0,-0.208 0.188,-0.518 0.417,-0.69c0.229,-0.173 0.417,-0.415 0.417,-0.54c0,-0.125 0.075,-0.227 0.166,-0.227c0.092,0 0.167,-0.187 0.167,-0.416c0,-0.229 0.075,-0.417 0.167,-0.417c0.091,0 0.166,-0.15 0.166,-0.333c0,-0.184 0.075,-0.334 0.167,-0.334c0.092,0 0.167,-0.262 0.167,-0.583c0,-0.407 0.075,-0.583 0.25,-0.583c0.137,0 0.25,-0.146 0.25,-0.324c0,-0.178 0.075,-0.37 0.166,-0.426c0.092,-0.057 0.167,-0.324 0.167,-0.594c0,-0.269 0.075,-0.49 0.167,-0.49c0.091,0 0.166,-0.262 0.166,-0.583c0,-0.321 0.075,-0.583 0.167,-0.583c0.092,0 0.167,-0.338 0.167,-0.75c0,-0.413 0.075,-0.75 0.166,-0.75c0.092,0 0.167,-0.292 0.167,-0.649c0,-0.423 0.087,-0.682 0.25,-0.745c0.18,-0.069 0.25,-0.351 0.25,-1.004c0,-0.578 0.076,-0.933 0.208,-0.977c0.164,-0.055 0.209,-2.012 0.209,-9.042c0,-7.03 -0.045,-8.987 -0.209,-9.042c-0.129,-0.043 -0.208,-0.382 -0.208,-0.894c0,-0.579 -0.074,-0.853 -0.25,-0.92c-0.17,-0.066 -0.25,-0.331 -0.25,-0.828c0,-0.403 -0.075,-0.733 -0.167,-0.733c-0.091,0 -0.166,-0.225 -0.166,-0.5c0,-0.275 -0.075,-0.5 -0.167,-0.5c-0.092,0 -0.167,-0.262 -0.167,-0.583c0,-0.321 -0.075,-0.583 -0.166,-0.583c-0.092,0 -0.167,-0.146 -0.167,-0.324c0,-0.178 -0.075,-0.37 -0.167,-0.426c-0.091,-0.057 -0.166,-0.249 -0.166,-0.427c0,-0.178 -0.113,-0.323 -0.25,-0.323c-0.139,0 -0.25,-0.148 -0.25,-0.334c0,-0.183 -0.075,-0.333 -0.167,-0.333c-0.092,0 -0.167,-0.187 -0.167,-0.417c0,-0.229 -0.075,-0.416 -0.166,-0.416c-0.092,0 -0.167,-0.123 -0.167,-0.273c0,-0.15 -0.187,-0.446 -0.417,-0.659c-0.229,-0.212 -0.416,-0.472 -0.416,-0.577c0,-0.105 -0.225,-0.401 -0.5,-0.658c-0.275,-0.257 -0.5,-0.569 -0.5,-0.693c0,-0.125 -0.261,-0.451 -0.58,-0.725c-0.319,-0.274 -0.581,-0.558 -0.583,-0.631c-0.005,-0.176 -0.785,-0.951 -0.957,-0.951c-0.074,0 -0.279,-0.192 -0.455,-0.427c-0.55,-0.732 -0.875,-1.073 -1.028,-1.077c-0.081,-0.002 -0.372,-0.264 -0.646,-0.583c-0.274,-0.319 -0.593,-0.58 -0.708,-0.58c-0.116,0 -0.21,-0.075 -0.21,-0.166c0,-0.092 -0.096,-0.167 -0.213,-0.167c-0.117,0 -0.322,-0.15 -0.454,-0.333c-0.132,-0.184 -0.337,-0.334 -0.456,-0.334c-0.119,0 -0.471,-0.262 -0.783,-0.583c-0.311,-0.321 -0.685,-0.583 -0.83,-0.583c-0.145,0 -0.264,-0.075 -0.264,-0.167c0,-0.092 -0.155,-0.167 -0.345,-0.167c-0.369,0 -0.822,-0.36 -0.822,-0.654c0,-0.099 -0.15,-0.179 -0.333,-0.179c-0.183,0 -0.333,-0.075 -0.333,-0.167c0,-0.091 -0.171,-0.166 -0.38,-0.166c-0.209,0 -0.488,-0.15 -0.62,-0.334c-0.132,-0.183 -0.412,-0.333 -0.62,-0.333c-0.227,0 -0.38,-0.101 -0.38,-0.25c0,-0.139 -0.148,-0.25 -0.334,-0.25c-0.183,0 -0.333,-0.075 -0.333,-0.167c0,-0.091 -0.146,-0.166 -0.323,-0.166c-0.178,0 -0.37,-0.075 -0.427,-0.167c-0.057,-0.092 -0.249,-0.167 -0.427,-0.167c-0.177,0 -0.323,-0.075 -0.323,-0.166c0,-0.092 -0.15,-0.167 -0.333,-0.167c-0.184,0 -0.334,-0.075 -0.334,-0.167c0,-0.091 -0.187,-0.166 -0.416,-0.166c-0.26,0 -0.417,-0.095 -0.417,-0.25c0,-0.138 -0.146,-0.25 -0.323,-0.25c-0.178,0 -0.37,-0.075 -0.427,-0.167c-0.057,-0.092 -0.324,-0.167 -0.593,-0.167c-0.27,0 -0.49,-0.075 -0.49,-0.166c0,-0.092 -0.15,-0.167 -0.334,-0.167c-0.183,0 -0.333,-0.075 -0.333,-0.167c0,-0.091 -0.187,-0.166 -0.417,-0.166c-0.259,0 -0.416,-0.095 -0.416,-0.25c0,-0.138 -0.146,-0.25 -0.324,-0.25c-0.178,0 -0.37,-0.075 -0.426,-0.167c-0.057,-0.092 -0.324,-0.167 -0.594,-0.167c-0.269,0 -0.49,-0.075 -0.49,-0.166c0,-0.092 -0.145,-0.167 -0.323,-0.167c-0.178,0 -0.37,-0.075 -0.427,-0.167c-0.056,-0.091 -0.216,-0.166 -0.355,-0.166c-0.138,0 -0.364,-0.113 -0.502,-0.25c-0.137,-0.138 -0.432,-0.25 -0.655,-0.25c-0.222,0 -0.404,-0.075 -0.404,-0.167c0,-0.092 -0.15,-0.167 -0.334,-0.167c-0.183,0 -0.333,-0.075 -0.333,-0.166c0,-0.092 -0.146,-0.167 -0.323,-0.167c-0.178,0 -0.37,-0.075 -0.427,-0.167c-0.057,-0.091 -0.249,-0.166 -0.427,-0.166c-0.177,0 -0.323,-0.075 -0.323,-0.167c0,-0.092 -0.262,-0.167 -0.583,-0.167c-0.408,0 -0.584,-0.075 -0.584,-0.25c0,-0.139 -0.148,-0.25 -0.333,-0.25c-0.183,0 -0.333,-0.075 -0.333,-0.166c0,-0.092 -0.146,-0.167 -0.324,-0.167c-0.178,0 -0.37,-0.075 -0.426,-0.167c-0.057,-0.091 -0.324,-0.166 -0.594,-0.166c-0.269,0 -0.49,-0.075 -0.49,-0.167c0,-0.092 -0.187,-0.167 -0.416,-0.167c-0.26,0 -0.417,-0.094 -0.417,-0.25c0,-0.139 -0.148,-0.25 -0.333,-0.25c-0.184,0 -0.334,-0.075 -0.334,-0.166c0,-0.092 -0.187,-0.167 -0.416,-0.167c-0.229,0 -0.417,-0.075 -0.417,-0.167c0,-0.091 -0.225,-0.166 -0.5,-0.166c-0.275,0 -0.5,-0.075 -0.5,-0.167c0,-0.092 -0.187,-0.167 -0.417,-0.167c-0.229,0 -0.416,-0.075 -0.416,-0.166c0,-0.092 -0.15,-0.167 -0.334,-0.167c-0.185,0 -0.333,-0.111 -0.333,-0.25c0,-0.156 -0.157,-0.25 -0.417,-0.25c-0.229,0 -0.416,-0.075 -0.416,-0.167c0,-0.091 -0.225,-0.166 -0.5,-0.166c-0.275,0 -0.5,-0.075 -0.5,-0.167c0,-0.092 -0.188,-0.167 -0.417,-0.167c-0.229,0 -0.417,-0.075 -0.417,-0.166c0,-0.092 -0.142,-0.167 -0.315,-0.167c-0.174,0 -0.359,-0.112 -0.412,-0.25c-0.052,-0.137 -0.248,-0.25 -0.434,-0.25c-0.186,0 -0.339,-0.075 -0.339,-0.167c0,-0.091 -0.15,-0.166 -0.333,-0.166c-0.183,0 -0.333,-0.075 -0.333,-0.167c0,-0.092 -0.188,-0.167 -0.417,-0.167c-0.229,0 -0.417,-0.075 -0.417,-0.166c0,-0.092 -0.132,-0.167 -0.293,-0.167c-0.162,0 -0.435,-0.187 -0.607,-0.417c-0.172,-0.229 -0.422,-0.416 -0.556,-0.416c-0.134,0 -0.453,-0.225 -0.71,-0.5c-0.257,-0.275 -0.625,-0.5 -0.817,-0.5c-0.193,0 -0.35,-0.081 -0.35,-0.18c0,-0.099 -0.3,-0.468 -0.667,-0.82c-0.366,-0.353 -0.666,-0.718 -0.666,-0.813c0,-0.095 -0.188,-0.36 -0.417,-0.589c-0.229,-0.229 -0.417,-0.532 -0.417,-0.674c0,-0.142 -0.075,-0.258 -0.166,-0.258c-0.092,0 -0.167,-0.145 -0.167,-0.323c0,-0.178 -0.075,-0.37 -0.167,-0.427c-0.091,-0.056 -0.166,-0.248 -0.166,-0.426c0,-0.178 -0.113,-0.324 -0.25,-0.324c-0.156,0 -0.25,-0.157 -0.25,-0.416c0,-0.229 -0.075,-0.417 -0.167,-0.417c-0.092,0 -0.167,-0.338 -0.167,-0.75c0,-0.413 -0.075,-0.75 -0.166,-0.75c-0.092,0 -0.167,-0.413 -0.167,-0.917c0,-0.504 -0.075,-0.916 -0.167,-0.916c-0.104,0 -0.166,-1.084 -0.166,-2.917c0,-1.833 0.062,-2.917 0.166,-2.917c0.093,0 0.167,-0.444 0.167,-1c0,-0.555 0.074,-1 0.167,-1c0.091,0 0.166,-0.225 0.166,-0.5c0,-0.275 0.075,-0.5 0.167,-0.5c0.092,0 0.167,-0.262 0.167,-0.583c0,-0.407 0.075,-0.583 0.25,-0.583c0.139,0 0.25,-0.148 0.25,-0.334c0,-0.183 0.075,-0.333 0.166,-0.333c0.092,0 0.167,-0.113 0.167,-0.25c0,-0.137 0.075,-0.25 0.167,-0.25c0.091,0 0.166,-0.111 0.166,-0.247c0,-0.271 2.228,-2.586 2.489,-2.586c0.09,0 0.35,-0.188 0.58,-0.417c0.229,-0.229 0.57,-0.417 0.757,-0.417c0.188,0 0.341,-0.075 0.341,-0.166c0,-0.092 0.15,-0.167 0.333,-0.167c0.184,0 0.334,-0.075 0.334,-0.167c0,-0.091 0.227,-0.166 0.505,-0.166c0.295,0 0.545,-0.104 0.601,-0.25c0.065,-0.17 0.331,-0.25 0.828,-0.25c0.403,0 0.732,-0.075 0.732,-0.167c0,-0.106 1.223,-0.167 3.334,-0.167c2.111,0 3.333,0.061 3.333,0.167c0,0.092 0.337,0.167 0.75,0.167c0.556,0 0.75,0.064 0.75,0.25c0,0.139 0.148,0.25 0.333,0.25c0.184,0 0.334,0.075 0.334,0.166c0,0.092 0.187,0.167 0.416,0.167c0.23,0 0.417,0.075 0.417,0.167c0,0.091 0.116,0.166 0.258,0.166c0.141,0 0.445,0.188 0.674,0.417c0.229,0.229 0.491,0.417 0.583,0.417c0.232,0 0.985,0.775 0.985,1.014c0,0.108 0.262,0.444 0.583,0.746c0.321,0.303 0.584,0.668 0.584,0.812c0,0.143 0.075,0.261 0.166,0.261c0.092,0 0.167,0.188 0.167,0.417c0,0.229 0.075,0.416 0.167,0.416c0.091,0 0.166,0.15 0.166,0.334c0,0.183 0.067,0.333 0.148,0.333c0.082,0 0.198,0.262 0.258,0.583c0.06,0.321 0.181,0.584 0.269,0.584c0.087,0 0.159,0.22 0.159,0.49c0,0.269 0.075,0.536 0.166,0.593c0.092,0.057 0.167,0.399 0.167,0.76c0,0.361 0.075,0.657 0.167,0.657c0.092,0 0.166,0.444 0.166,1c0,0.55 0.073,1 0.163,1c0.097,0 0.181,1.091 0.208,2.708l0.046,2.708l11.875,0.043l11.875,0.043l0,-4.418c0,-2.834 -0.06,-4.418 -0.167,-4.418c-0.097,0 -0.166,-0.555 -0.166,-1.333c0,-1.074 -0.049,-1.333 -0.25,-1.333c-0.192,0 -0.25,-0.213 -0.25,-0.917c0,-0.504 -0.075,-0.917 -0.167,-0.917c-0.092,0 -0.167,-0.337 -0.167,-0.75c0,-0.412 -0.075,-0.75 -0.166,-0.75c-0.092,0 -0.167,-0.337 -0.167,-0.75c0,-0.412 -0.075,-0.75 -0.167,-0.75c-0.091,0 -0.166,-0.217 -0.166,-0.482c0,-0.275 -0.108,-0.523 -0.25,-0.578c-0.138,-0.053 -0.25,-0.248 -0.25,-0.434c0,-0.187 -0.075,-0.339 -0.167,-0.339c-0.092,0 -0.167,-0.263 -0.167,-0.583c0,-0.321 -0.075,-0.584 -0.166,-0.584c-0.092,0 -0.167,-0.15 -0.167,-0.333c0,-0.183 -0.075,-0.333 -0.167,-0.333c-0.091,0 -0.166,-0.15 -0.166,-0.334c0,-0.183 -0.075,-0.333 -0.167,-0.333c-0.092,0 -0.167,-0.113 -0.167,-0.25c0,-0.138 -0.112,-0.25 -0.25,-0.25c-0.139,0 -0.25,-0.148 -0.25,-0.333c0,-0.184 -0.075,-0.334 -0.166,-0.334c-0.092,0 -0.167,-0.171 -0.167,-0.38c0,-0.208 -0.15,-0.488 -0.333,-0.62c-0.184,-0.132 -0.334,-0.373 -0.334,-0.536c0,-0.164 -0.112,-0.297 -0.25,-0.297c-0.137,0 -0.25,-0.113 -0.25,-0.25c0,-0.138 -0.075,-0.25 -0.166,-0.25c-0.092,0 -0.167,-0.122 -0.167,-0.27c0,-0.149 -0.562,-0.822 -1.25,-1.496c-0.687,-0.674 -1.25,-1.303 -1.25,-1.397c0,-0.094 -0.079,-0.17 -0.176,-0.17c-0.097,0 -0.647,-0.488 -1.222,-1.084c-0.576,-0.595 -1.155,-1.083 -1.288,-1.083c-0.132,0 -0.349,-0.15 -0.481,-0.333c-0.132,-0.184 -0.411,-0.334 -0.62,-0.334c-0.209,0 -0.38,-0.08 -0.38,-0.178c0,-0.282 -0.446,-0.655 -0.784,-0.655c-0.17,0 -0.417,-0.15 -0.549,-0.333c-0.132,-0.184 -0.366,-0.334 -0.519,-0.334c-0.153,0 -0.322,-0.112 -0.375,-0.25c-0.052,-0.137 -0.248,-0.25 -0.434,-0.25c-0.186,0 -0.339,-0.075 -0.339,-0.166c0,-0.092 -0.15,-0.167 -0.333,-0.167c-0.183,0 -0.333,-0.075 -0.333,-0.167c0,-0.091 -0.263,-0.166 -0.584,-0.166c-0.321,0 -0.583,-0.075 -0.583,-0.167c0,-0.092 -0.15,-0.167 -0.333,-0.167c-0.184,0 -0.334,-0.071 -0.334,-0.159c0,-0.087 -0.262,-0.208 -0.583,-0.268c-0.321,-0.061 -0.583,-0.176 -0.583,-0.258c0,-0.081 -0.263,-0.148 -0.584,-0.148c-0.321,0 -0.583,-0.075 -0.583,-0.167c0,-0.091 -0.225,-0.166 -0.5,-0.166c-0.275,0 -0.5,-0.075 -0.5,-0.167c0,-0.092 -0.338,-0.167 -0.75,-0.167c-0.413,0 -0.75,-0.075 -0.75,-0.166c0,-0.092 -0.404,-0.167 -0.899,-0.167c-0.645,0 -0.926,-0.071 -0.995,-0.25c-0.069,-0.18 -0.35,-0.25 -1.004,-0.25c-0.566,0 -0.933,-0.077 -0.975,-0.203c-0.068,-0.202 -15.339,-0.352 -18.46,-0.182m-202.5,46.218c0,29.445 0.056,44.334 0.166,44.334c0.103,0 0.167,0.861 0.167,2.25c0,1.389 0.064,2.25 0.167,2.25c0.097,0 0.166,0.555 0.166,1.333c0,0.778 0.07,1.333 0.167,1.333c0.093,0 0.167,0.447 0.167,1.006c0,0.739 0.066,1.03 0.25,1.101c0.169,0.065 0.25,0.331 0.25,0.828c0,0.403 0.075,0.732 0.166,0.732c0.092,0 0.167,0.337 0.167,0.75c0,0.412 0.075,0.75 0.167,0.75c0.091,0 0.166,0.225 0.166,0.5c0,0.275 0.075,0.5 0.167,0.5c0.092,0 0.167,0.263 0.167,0.583c0,0.321 0.075,0.584 0.166,0.584c0.092,0 0.167,0.152 0.167,0.338c0,0.186 0.112,0.382 0.25,0.435c0.143,0.054 0.25,0.303 0.25,0.578c0,0.265 0.075,0.482 0.167,0.482c0.091,0 0.166,0.188 0.166,0.417c0,0.229 0.075,0.416 0.167,0.416c0.092,0 0.167,0.15 0.167,0.334c0,0.183 0.075,0.333 0.166,0.333c0.092,0 0.167,0.152 0.167,0.339c0,0.186 0.112,0.381 0.25,0.434c0.137,0.053 0.25,0.238 0.25,0.411c0,0.174 0.075,0.316 0.167,0.316c0.091,0 0.166,0.15 0.166,0.333c0,0.184 0.075,0.334 0.167,0.334c0.092,0 0.167,0.112 0.167,0.25c0,0.137 0.075,0.25 0.166,0.25c0.092,0 0.167,0.15 0.167,0.333c0,0.183 0.08,0.333 0.179,0.333c0.271,0 0.654,0.442 0.654,0.755c0,0.153 0.225,0.488 0.5,0.745c0.275,0.257 0.5,0.548 0.5,0.646c0,0.098 0.338,0.516 0.75,0.929c0.413,0.412 0.75,0.827 0.75,0.921c0,0.094 0.08,0.171 0.178,0.171c0.097,0 0.577,0.413 1.065,0.917c0.489,0.504 0.979,0.916 1.089,0.916c0.111,0 0.411,0.225 0.668,0.5c0.257,0.275 0.546,0.5 0.643,0.5c0.097,0 0.363,0.188 0.592,0.417c0.229,0.229 0.57,0.417 0.758,0.417c0.187,0 0.341,0.075 0.341,0.166c0,0.092 0.132,0.167 0.293,0.167c0.162,0 0.435,0.187 0.607,0.417c0.172,0.229 0.453,0.416 0.623,0.416c0.171,0 0.31,0.075 0.31,0.167c0,0.092 0.225,0.167 0.5,0.167c0.275,0 0.5,0.075 0.5,0.166c0,0.092 0.188,0.167 0.417,0.167c0.229,0 0.416,0.075 0.416,0.167c0,0.091 0.118,0.166 0.262,0.166c0.144,0 0.375,0.113 0.512,0.25c0.138,0.138 0.432,0.25 0.655,0.25c0.223,0 0.405,0.075 0.405,0.167c0,0.092 0.262,0.167 0.583,0.167c0.321,0 0.583,0.075 0.583,0.166c0,0.092 0.338,0.167 0.75,0.167c0.413,0 0.75,0.075 0.75,0.167c0,0.091 0.413,0.166 0.917,0.166c0.504,0 0.917,0.075 0.917,0.167c0,0.094 0.472,0.167 1.083,0.167c0.852,0 1.083,0.053 1.083,0.25c0,0.201 0.26,0.25 1.334,0.25c0.777,0 1.333,0.069 1.333,0.166c0,0.104 0.917,0.167 2.417,0.167c1.5,0 2.416,0.063 2.416,0.167c0,0.106 1.445,0.166 4,0.166c2.556,0 4,-0.06 4,-0.166c0,-0.103 0.861,-0.167 2.25,-0.167c1.389,0 2.25,-0.064 2.25,-0.167c0,-0.096 0.53,-0.166 1.256,-0.166c0.962,0 1.277,-0.059 1.351,-0.25c0.069,-0.18 0.349,-0.25 0.994,-0.25c0.495,0 0.899,-0.075 0.899,-0.167c0,-0.092 0.413,-0.167 0.917,-0.167c0.504,0 0.917,-0.075 0.917,-0.166c0,-0.092 0.337,-0.167 0.75,-0.167c0.412,0 0.75,-0.075 0.75,-0.167c0,-0.091 0.22,-0.166 0.49,-0.166c0.269,0 0.536,-0.075 0.593,-0.167c0.057,-0.092 0.288,-0.167 0.515,-0.167c0.227,0 0.455,-0.112 0.508,-0.25c0.053,-0.137 0.275,-0.25 0.495,-0.25c0.219,0 0.399,-0.075 0.399,-0.166c0,-0.092 0.225,-0.167 0.5,-0.167c0.275,0 0.5,-0.075 0.5,-0.167c0,-0.091 0.187,-0.166 0.416,-0.166c0.23,0 0.417,-0.075 0.417,-0.167c0,-0.092 0.115,-0.167 0.255,-0.167c0.141,0 0.299,-0.112 0.351,-0.25c0.053,-0.137 0.259,-0.25 0.458,-0.25c0.199,0 0.471,-0.15 0.603,-0.333c0.132,-0.183 0.373,-0.333 0.536,-0.333c0.164,0 0.297,-0.075 0.297,-0.167c0,-0.092 0.112,-0.167 0.25,-0.167c0.137,0 0.25,-0.075 0.25,-0.166c0,-0.092 0.102,-0.167 0.227,-0.167c0.124,0 0.367,-0.188 0.539,-0.417c0.172,-0.229 0.449,-0.416 0.614,-0.416c0.281,0 1.12,-0.691 1.12,-0.921c0,-0.134 0.446,-0.579 0.579,-0.579c0.134,0 0.921,-0.787 0.921,-0.921c0,-0.133 0.445,-0.579 0.577,-0.579c0.172,0 1.256,-1.146 1.256,-1.328c0,-0.095 0.081,-0.172 0.179,-0.172c0.265,0 0.655,-0.439 0.655,-0.738c0,-0.144 0.075,-0.262 0.166,-0.262c0.092,0 0.167,-0.096 0.167,-0.214c0,-0.117 0.15,-0.321 0.333,-0.453c0.184,-0.132 0.334,-0.374 0.334,-0.537c0,-0.163 0.112,-0.296 0.25,-0.296c0.149,0 0.25,-0.154 0.25,-0.38c0,-0.209 0.15,-0.488 0.333,-0.62c0.183,-0.132 0.333,-0.374 0.333,-0.537c0,-0.163 0.075,-0.297 0.167,-0.297c0.092,0 0.167,-0.187 0.167,-0.416c0,-0.26 0.094,-0.417 0.25,-0.417c0.139,0 0.25,-0.148 0.25,-0.333c0,-0.184 0.075,-0.334 0.166,-0.334c0.092,0 0.167,-0.187 0.167,-0.416c0,-0.229 0.075,-0.417 0.167,-0.417c0.091,0 0.166,-0.15 0.166,-0.333c0,-0.184 0.075,-0.334 0.167,-0.334c0.092,0 0.167,-0.187 0.167,-0.416c0,-0.229 0.075,-0.417 0.166,-0.417c0.092,0 0.167,-0.225 0.167,-0.5c0,-0.333 0.083,-0.5 0.25,-0.5c0.156,0 0.25,-0.157 0.25,-0.417c0,-0.229 0.075,-0.416 0.167,-0.416c0.091,0 0.166,-0.263 0.166,-0.584c0,-0.32 0.075,-0.583 0.167,-0.583c0.092,0 0.167,-0.3 0.167,-0.667c0,-0.366 0.075,-0.666 0.166,-0.666c0.092,0 0.167,-0.33 0.167,-0.733c0,-0.497 0.08,-0.762 0.25,-0.828c0.176,-0.067 0.25,-0.341 0.25,-0.924c0,-0.456 0.075,-0.875 0.167,-0.932c0.091,-0.057 0.166,-0.586 0.166,-1.177c0,-0.604 0.073,-1.073 0.167,-1.073c0.101,0 0.167,-0.722 0.167,-1.833c0,-1.111 0.065,-1.834 0.166,-1.834c0.111,0 0.167,-15.083 0.167,-44.916l0,-44.917l-12.25,0l-12.25,0l0,43.25c0,28.722 -0.056,43.25 -0.167,43.25c-0.103,0 -0.166,0.861 -0.166,2.25c0,1.389 -0.064,2.25 -0.167,2.25c-0.094,0 -0.167,0.472 -0.167,1.083c0,0.611 -0.072,1.084 -0.166,1.084c-0.092,0 -0.167,0.404 -0.167,0.899c0,0.645 -0.071,0.925 -0.25,0.994c-0.146,0.056 -0.25,0.306 -0.25,0.601c0,0.278 -0.075,0.506 -0.167,0.506c-0.091,0 -0.166,0.145 -0.166,0.323c0,0.178 -0.075,0.37 -0.167,0.427c-0.092,0.056 -0.167,0.323 -0.167,0.593c0,0.269 -0.075,0.49 -0.166,0.49c-0.092,0 -0.167,0.15 -0.167,0.333c0,0.184 -0.075,0.334 -0.167,0.334c-0.091,0 -0.166,0.112 -0.166,0.25c0,0.137 -0.113,0.25 -0.25,0.25c-0.138,0 -0.25,0.133 -0.25,0.296c0,0.163 -0.15,0.405 -0.334,0.537c-0.183,0.132 -0.333,0.318 -0.333,0.414c0,0.095 -0.202,0.323 -0.448,0.505c-0.42,0.31 -0.732,0.627 -1.518,1.539c-0.178,0.207 -0.483,0.375 -0.679,0.375c-0.195,0 -0.355,0.075 -0.355,0.167c0,0.092 -0.15,0.167 -0.333,0.167c-0.184,0 -0.334,0.075 -0.334,0.166c0,0.092 -0.152,0.167 -0.338,0.167c-0.186,0 -0.382,0.112 -0.435,0.25c-0.054,0.143 -0.303,0.25 -0.578,0.25c-0.265,0 -0.482,0.075 -0.482,0.167c0,0.091 -0.338,0.166 -0.75,0.166c-0.412,0 -0.75,0.075 -0.75,0.167c0,0.103 -0.913,0.167 -2.407,0.167c-1.425,0 -2.449,-0.068 -2.51,-0.167c-0.056,-0.092 -0.511,-0.167 -1.01,-0.167c-0.498,0 -0.906,-0.075 -0.906,-0.166c0,-0.092 -0.217,-0.167 -0.483,-0.167c-0.274,0 -0.523,-0.107 -0.578,-0.25c-0.052,-0.138 -0.248,-0.25 -0.434,-0.25c-0.186,0 -0.339,-0.075 -0.339,-0.167c0,-0.091 -0.115,-0.166 -0.257,-0.166c-0.141,0 -0.418,-0.15 -0.614,-0.334c-0.197,-0.183 -0.494,-0.333 -0.66,-0.333c-0.166,0 -0.302,-0.082 -0.302,-0.183c0,-0.192 -0.642,-0.838 -1.391,-1.398c-0.243,-0.182 -0.442,-0.426 -0.442,-0.542c0,-0.116 -0.075,-0.21 -0.167,-0.21c-0.092,0 -0.167,-0.118 -0.167,-0.262c0,-0.3 -0.389,-0.738 -0.654,-0.738c-0.099,0 -0.179,-0.188 -0.179,-0.417c0,-0.229 -0.075,-0.417 -0.167,-0.417c-0.091,0 -0.166,-0.15 -0.166,-0.333c0,-0.183 -0.075,-0.333 -0.167,-0.333c-0.092,0 -0.167,-0.188 -0.167,-0.417c0,-0.229 -0.075,-0.417 -0.166,-0.417c-0.092,0 -0.167,-0.225 -0.167,-0.5c0,-0.333 -0.083,-0.5 -0.25,-0.5c-0.175,0 -0.25,-0.176 -0.25,-0.583c0,-0.321 -0.075,-0.583 -0.167,-0.583c-0.091,0 -0.166,-0.413 -0.166,-0.917c0,-0.504 -0.075,-0.917 -0.167,-0.917c-0.096,0 -0.167,-0.524 -0.167,-1.24c0,-0.682 -0.075,-1.286 -0.166,-1.343c-0.111,-0.068 -0.167,-15.307 -0.167,-45.177l0,-45.073l-12.417,0l-12.416,0l0,44.333m83,-43.267c0,0.793 0.064,1.09 0.25,1.161c0.164,0.063 0.25,0.323 0.25,0.758c0,0.364 0.075,0.708 0.166,0.765c0.092,0.057 0.167,0.399 0.167,0.76c0,0.361 0.075,0.657 0.167,0.657c0.091,0 0.166,0.408 0.166,0.906c0,0.499 0.075,0.954 0.167,1.01c0.092,0.057 0.167,0.399 0.167,0.76c0,0.361 0.075,0.657 0.166,0.657c0.092,0 0.167,0.281 0.168,0.625c0.001,0.344 0.113,0.84 0.25,1.102c0.137,0.263 0.249,0.732 0.249,1.042c0,0.31 0.075,0.564 0.167,0.564c0.091,0 0.166,0.338 0.166,0.75c0,0.413 0.075,0.75 0.167,0.75c0.092,0 0.167,0.408 0.167,0.907c0,0.499 0.075,0.953 0.166,1.01c0.092,0.057 0.167,0.399 0.167,0.76c0,0.473 0.07,0.657 0.25,0.657c0.192,0 0.25,0.213 0.25,0.916c0,0.504 0.075,0.917 0.167,0.917c0.091,0 0.166,0.337 0.166,0.75c0,0.412 0.075,0.75 0.167,0.75c0.092,0 0.167,0.412 0.167,0.917c0,0.504 0.075,0.916 0.166,0.916c0.092,0 0.167,0.338 0.167,0.75c0,0.556 0.065,0.75 0.25,0.75c0.185,0 0.25,0.195 0.25,0.75c0,0.413 0.075,0.75 0.167,0.75c0.091,0 0.166,0.408 0.166,0.907c0,0.499 0.075,0.953 0.167,1.01c0.092,0.057 0.167,0.399 0.167,0.76c0,0.361 0.075,0.657 0.166,0.657c0.092,0 0.167,0.412 0.167,0.916c0,0.504 0.075,0.917 0.167,0.917c0.091,0 0.166,0.337 0.166,0.75c0,0.556 0.065,0.75 0.25,0.75c0.192,0 0.25,0.212 0.25,0.907c0,0.499 0.075,0.953 0.167,1.01c0.092,0.056 0.167,0.394 0.167,0.75c0,0.356 0.075,0.693 0.166,0.75c0.092,0.056 0.167,0.398 0.167,0.76c0,0.361 0.075,0.656 0.167,0.656c0.091,0 0.166,0.415 0.166,0.922c0,0.666 0.07,0.949 0.25,1.018c0.163,0.063 0.25,0.322 0.25,0.745c0,0.357 0.075,0.649 0.167,0.649c0.092,0 0.167,0.412 0.167,0.916c0,0.504 0.075,0.917 0.166,0.917c0.092,0 0.167,0.337 0.167,0.75c0,0.413 0.075,0.75 0.167,0.75c0.091,0 0.166,0.337 0.166,0.75c0,0.413 0.075,0.75 0.167,0.75c0.092,0 0.167,0.323 0.167,0.718c0,0.395 0.11,0.864 0.244,1.042c0.135,0.178 0.247,0.605 0.25,0.948c0.003,0.344 0.081,0.625 0.172,0.625c0.092,0 0.167,0.413 0.167,0.917c0,0.504 0.075,0.917 0.167,0.917c0.091,0 0.166,0.337 0.166,0.75c0,0.412 0.075,0.75 0.167,0.75c0.092,0 0.167,0.365 0.167,0.813c0,0.519 0.09,0.887 0.25,1.02c0.142,0.118 0.25,0.482 0.25,0.844c0,0.35 0.075,0.683 0.166,0.739c0.092,0.057 0.167,0.399 0.167,0.76c0,0.361 0.075,0.657 0.167,0.657c0.091,0 0.166,0.408 0.166,0.907c0,0.499 0.075,0.953 0.167,1.01c0.092,0.056 0.167,0.398 0.167,0.76c0,0.472 0.07,0.656 0.25,0.656c0.191,0 0.25,0.212 0.25,0.907c0,0.499 0.075,0.953 0.166,1.01c0.092,0.057 0.167,0.399 0.167,0.76c0,0.361 0.075,0.657 0.167,0.657c0.091,0 0.166,0.337 0.166,0.75c0,0.412 0.075,0.75 0.167,0.75c0.092,0 0.167,0.408 0.167,0.906c0,0.499 0.075,0.954 0.166,1.01c0.092,0.057 0.167,0.399 0.167,0.76c0,0.473 0.07,0.657 0.25,0.657c0.192,0 0.25,0.212 0.25,0.907c0,0.499 0.075,0.953 0.167,1.01c0.091,0.056 0.166,0.398 0.166,0.76c0,0.361 0.075,0.656 0.167,0.656c0.092,0 0.167,0.413 0.167,0.917c0,0.504 0.075,0.917 0.166,0.917c0.092,0 0.167,0.337 0.167,0.75c0,0.555 0.065,0.75 0.25,0.75c0.185,0 0.25,0.194 0.25,0.75c0,0.412 0.075,0.75 0.167,0.75c0.091,0 0.166,0.408 0.166,0.906c0,0.499 0.075,0.954 0.167,1.01c0.092,0.057 0.167,0.399 0.167,0.76c0,0.361 0.075,0.657 0.166,0.657c0.092,0 0.167,0.412 0.167,0.917c0,0.504 0.075,0.916 0.167,0.916c0.091,0 0.166,0.303 0.166,0.672c0,0.444 0.085,0.705 0.25,0.768c0.179,0.069 0.25,0.349 0.25,0.985c0,0.489 0.075,0.935 0.167,0.992c0.092,0.057 0.167,0.394 0.167,0.75c0,0.356 0.075,0.693 0.166,0.75c0.092,0.057 0.167,0.399 0.167,0.76c0,0.361 0.075,0.657 0.167,0.657c0.091,0 0.166,0.415 0.166,0.922c0,0.665 0.07,0.948 0.25,1.017c0.163,0.063 0.25,0.322 0.25,0.745c0,0.357 0.075,0.649 0.167,0.649c0.092,0 0.167,0.412 0.167,0.917c0,0.504 0.075,0.916 0.166,0.916c0.092,0 0.167,0.338 0.167,0.75c0,0.413 0.075,0.75 0.167,0.75c0.091,0 0.166,0.338 0.166,0.75c0,0.413 0.075,0.75 0.167,0.75c0.092,0 0.167,0.282 0.168,0.625c0,0.344 0.113,0.84 0.25,1.103c0.137,0.262 0.249,0.731 0.249,1.041c0,0.311 0.075,0.565 0.166,0.565c0.092,0 0.167,0.408 0.167,0.906c0,0.499 0.075,0.954 0.167,1.01c0.091,0.057 0.166,0.399 0.166,0.76c0,0.361 0.075,0.657 0.167,0.657c0.092,0 0.167,0.366 0.167,0.813c0,0.519 0.09,0.888 0.25,1.02c0.152,0.127 0.25,0.492 0.25,0.937c0,0.402 0.075,0.73 0.166,0.73c0.092,0 0.167,0.3 0.167,0.667c0,0.366 0.075,0.666 0.167,0.666c0.091,0 0.166,0.408 0.166,0.907c0,0.499 0.075,0.953 0.167,1.01c0.092,0.057 0.167,0.399 0.167,0.76c0,0.473 0.07,0.657 0.25,0.657c0.191,0 0.25,0.212 0.25,0.906c0,0.499 0.075,0.954 0.166,1.01c0.092,0.057 0.167,0.399 0.167,0.76c0,0.361 0.075,0.657 0.167,0.657c0.091,0 0.166,0.408 0.166,0.907c0,0.499 0.075,0.953 0.167,1.01c0.092,0.056 0.167,0.394 0.167,0.75c0,0.356 0.075,0.693 0.166,0.75c0.092,0.056 0.167,0.398 0.167,0.76c0,0.472 0.07,0.656 0.25,0.656c0.192,0 0.25,0.212 0.25,0.907c0,0.499 0.075,0.953 0.167,1.01c0.091,0.057 0.166,0.249 0.166,0.427c0,0.317 0.271,0.323 15.75,0.323l15.75,0l0,-0.75c0,-0.413 0.075,-0.75 0.167,-0.75c0.092,0 0.167,-0.305 0.167,-0.679c0,-0.381 0.109,-0.788 0.25,-0.928c0.147,-0.147 0.25,-0.554 0.25,-0.988c0,-0.406 0.075,-0.738 0.166,-0.738c0.092,0 0.167,-0.338 0.167,-0.75c0,-0.413 0.075,-0.75 0.167,-0.75c0.091,0 0.166,-0.413 0.166,-0.917c0,-0.504 0.075,-0.917 0.167,-0.917c0.092,0 0.167,-0.337 0.167,-0.75c0,-0.412 0.075,-0.75 0.166,-0.75c0.092,0 0.167,-0.412 0.167,-0.916c0,-0.704 0.058,-0.917 0.25,-0.917c0.185,0 0.25,-0.194 0.25,-0.75c0,-0.413 0.075,-0.75 0.167,-0.75c0.091,0 0.166,-0.338 0.166,-0.75c0,-0.413 0.075,-0.75 0.167,-0.75c0.092,0 0.167,-0.413 0.167,-0.917c0,-0.504 0.075,-0.916 0.166,-0.916c0.092,0 0.167,-0.33 0.167,-0.733c0,-0.497 0.08,-0.762 0.25,-0.828c0.176,-0.067 0.25,-0.342 0.25,-0.934c0,-0.461 0.075,-0.839 0.167,-0.839c0.091,0 0.166,-0.337 0.166,-0.75c0,-0.412 0.075,-0.75 0.167,-0.75c0.092,0 0.167,-0.412 0.167,-0.916c0,-0.505 0.075,-0.917 0.166,-0.917c0.092,0 0.167,-0.329 0.167,-0.732c0,-0.497 0.08,-0.763 0.25,-0.828c0.165,-0.064 0.25,-0.325 0.25,-0.768c0,-0.37 0.075,-0.672 0.167,-0.672c0.091,0 0.166,-0.413 0.166,-0.917c0,-0.504 0.075,-0.916 0.167,-0.916c0.092,0 0.167,-0.338 0.167,-0.75c0,-0.413 0.075,-0.75 0.166,-0.75c0.092,0 0.167,-0.413 0.167,-0.917c0,-0.504 0.075,-0.917 0.167,-0.917c0.091,0 0.166,-0.337 0.166,-0.75c0,-0.555 0.065,-0.75 0.25,-0.75c0.186,0 0.25,-0.194 0.25,-0.75c0,-0.412 0.075,-0.75 0.167,-0.75c0.092,0 0.167,-0.412 0.167,-0.916c0,-0.505 0.075,-0.917 0.166,-0.917c0.092,0 0.167,-0.338 0.167,-0.75c0,-0.413 0.075,-0.75 0.167,-0.75c0.091,0 0.166,-0.413 0.166,-0.917c0,-0.703 0.058,-0.916 0.25,-0.916c0.186,0 0.25,-0.195 0.25,-0.75c0,-0.413 0.075,-0.75 0.167,-0.75c0.092,0 0.167,-0.413 0.167,-0.917c0,-0.504 0.075,-0.917 0.166,-0.917c0.092,0 0.167,-0.337 0.167,-0.75c0,-0.412 0.075,-0.75 0.167,-0.75c0.091,0 0.166,-0.337 0.166,-0.75c0,-0.412 0.075,-0.75 0.167,-0.75c0.092,0 0.167,-0.412 0.167,-0.916c0,-0.704 0.058,-0.917 0.25,-0.917c0.185,0 0.25,-0.194 0.25,-0.75c0,-0.413 0.075,-0.75 0.166,-0.75c0.092,0 0.167,-0.413 0.167,-0.917c0,-0.504 0.075,-0.916 0.167,-0.916c0.091,0 0.166,-0.338 0.166,-0.75c0,-0.413 0.075,-0.75 0.167,-0.75c0.092,0 0.167,-0.306 0.167,-0.679c0,-0.381 0.109,-0.788 0.25,-0.928c0.147,-0.147 0.25,-0.555 0.25,-0.989c0,-0.406 0.075,-0.738 0.166,-0.738c0.092,0 0.167,-0.337 0.167,-0.75c0,-0.412 0.075,-0.75 0.167,-0.75c0.091,0 0.166,-0.412 0.166,-0.916c0,-0.505 0.075,-0.917 0.167,-0.917c0.092,0 0.167,-0.337 0.167,-0.75c0,-0.413 0.075,-0.75 0.166,-0.75c0.092,0 0.167,-0.413 0.167,-0.917c0,-0.703 0.058,-0.916 0.25,-0.916c0.185,0 0.25,-0.195 0.25,-0.75c0,-0.413 0.075,-0.75 0.167,-0.75c0.091,0 0.166,-0.338 0.166,-0.75c0,-0.413 0.075,-0.75 0.167,-0.75c0.092,0 0.167,-0.413 0.167,-0.917c0,-0.504 0.075,-0.917 0.166,-0.917c0.092,0 0.167,-0.329 0.167,-0.732c0,-0.497 0.08,-0.763 0.25,-0.828c0.176,-0.068 0.25,-0.343 0.25,-0.934c0,-0.462 0.075,-0.839 0.167,-0.839c0.091,0 0.166,-0.337 0.166,-0.75c0,-0.413 0.075,-0.75 0.167,-0.75c0.092,0 0.167,-0.413 0.167,-0.917c0,-0.504 0.075,-0.916 0.166,-0.916c0.092,0 0.167,-0.33 0.167,-0.733c0,-0.497 0.08,-0.762 0.25,-0.828c0.165,-0.063 0.25,-0.324 0.25,-0.767c0,-0.37 0.075,-0.672 0.167,-0.672c0.091,0 0.166,-0.413 0.166,-0.917c0,-0.504 0.075,-0.917 0.167,-0.917c0.092,0 0.167,-0.337 0.167,-0.75c0,-0.412 0.075,-0.75 0.166,-0.75c0.092,0 0.167,-0.412 0.167,-0.916c0,-0.505 0.075,-0.917 0.167,-0.917c0.091,0 0.166,-0.338 0.166,-0.75c0,-0.556 0.065,-0.75 0.25,-0.75c0.186,0 0.25,-0.194 0.25,-0.75c0,-0.413 0.075,-0.75 0.167,-0.75c0.092,0 0.167,-0.413 0.167,-0.917c0,-0.504 0.075,-0.916 0.166,-0.916c0.092,0 0.167,-0.338 0.167,-0.75c0,-0.413 0.075,-0.75 0.167,-0.75c0.091,0 0.166,-0.405 0.166,-0.899c0,-0.645 0.071,-0.926 0.25,-0.995c0.165,-0.063 0.25,-0.324 0.25,-0.768c0,-0.369 0.075,-0.672 0.167,-0.672c0.092,0 0.167,-0.412 0.167,-0.916c0,-0.505 0.075,-0.917 0.166,-0.917c0.092,0 0.167,-0.338 0.167,-0.75c0,-0.413 0.075,-0.75 0.167,-0.75c0.091,0 0.166,-0.338 0.166,-0.75c0,-0.413 0.075,-0.75 0.167,-0.75c0.092,0 0.167,-0.413 0.167,-0.917c0,-0.703 0.058,-0.916 0.25,-0.916c0.185,0 0.25,-0.195 0.25,-0.75c0,-0.413 0.075,-0.75 0.166,-0.75c0.092,0 0.167,-0.413 0.167,-0.917c0,-0.504 0.075,-0.917 0.167,-0.917c0.091,0 0.166,-0.337 0.166,-0.75c0,-0.412 0.075,-0.75 0.167,-0.75c0.092,0 0.167,-0.412 0.167,-0.916c0,-0.704 0.058,-0.917 0.25,-0.917c0.185,0 0.25,-0.194 0.25,-0.75c0,-0.413 0.075,-0.75 0.166,-0.75c0.092,0 0.167,-0.338 0.167,-0.75c0,-0.412 0.075,-0.75 0.167,-0.75c0.091,0 0.166,-0.412 0.166,-0.917c0,-0.504 0.075,-0.916 0.167,-0.916c0.092,0 0.167,-0.33 0.167,-0.733c0,-0.497 0.08,-0.762 0.25,-0.828c0.176,-0.067 0.25,-0.342 0.25,-0.934c0,-0.461 0.075,-0.839 0.166,-0.839c0.092,0 0.167,-0.337 0.167,-0.75c0,-0.412 0.075,-0.75 0.167,-0.75c0.091,0 0.166,-0.337 0.166,-0.75c0,-0.412 0.075,-0.75 0.167,-0.75c0.092,0 0.167,-0.412 0.167,-0.916c0,-0.505 0.075,-0.917 0.166,-0.917c0.092,0 0.167,-0.329 0.167,-0.732c0,-0.497 0.08,-0.763 0.25,-0.828c0.165,-0.064 0.25,-0.325 0.25,-0.768l0,-0.672l-12.833,0l-12.834,0l0,0.75c0,0.413 -0.075,0.75 -0.166,0.75c-0.092,0 -0.167,0.413 -0.167,0.917c0,0.504 -0.075,0.916 -0.167,0.916c-0.091,0 -0.166,0.405 -0.166,0.899c0,0.645 -0.071,0.926 -0.25,0.995c-0.181,0.069 -0.25,0.352 -0.25,1.018c0,0.507 -0.075,0.922 -0.167,0.922c-0.092,0 -0.167,0.412 -0.167,0.916c0,0.504 -0.075,0.917 -0.166,0.917c-0.092,0 -0.167,0.412 -0.167,0.917c0,0.504 -0.075,0.916 -0.167,0.916c-0.091,0 -0.166,0.381 -0.166,0.846c0,0.529 -0.094,0.938 -0.25,1.095c-0.146,0.146 -0.25,0.553 -0.25,0.978c0,0.401 -0.075,0.775 -0.167,0.831c-0.092,0.057 -0.167,0.549 -0.167,1.094c0,0.549 -0.074,0.99 -0.166,0.99c-0.093,0 -0.167,0.444 -0.167,1c0,0.555 -0.074,1 -0.167,1c-0.091,0 -0.166,0.412 -0.166,0.916c0,0.504 -0.075,0.917 -0.167,0.917c-0.092,0 -0.167,0.412 -0.167,0.917c0,0.703 -0.058,0.916 -0.25,0.916c-0.192,0 -0.25,0.213 -0.25,0.917c0,0.504 -0.075,0.917 -0.166,0.917c-0.092,0 -0.167,0.412 -0.167,0.916c0,0.504 -0.075,0.917 -0.167,0.917c-0.091,0 -0.166,0.412 -0.166,0.917c0,0.504 -0.075,0.916 -0.167,0.916c-0.092,0 -0.167,0.405 -0.167,0.899c0,0.645 -0.07,0.926 -0.25,0.995c-0.18,0.069 -0.25,0.352 -0.25,1.018c0,0.507 -0.075,0.922 -0.166,0.922c-0.092,0 -0.167,0.412 -0.167,0.916c0,0.504 -0.075,0.917 -0.167,0.917c-0.091,0 -0.166,0.412 -0.166,0.917c0,0.504 -0.075,0.916 -0.167,0.916c-0.092,0 -0.167,0.413 -0.167,0.917c0,0.504 -0.064,0.917 -0.143,0.917c-0.079,0 -0.19,0.393 -0.247,0.874c-0.057,0.48 -0.18,0.899 -0.273,0.93c-0.094,0.031 -0.17,0.463 -0.17,0.96c0,0.496 -0.075,0.902 -0.167,0.902c-0.091,0 -0.166,0.413 -0.166,0.917c0,0.504 -0.075,0.917 -0.167,0.917c-0.092,0 -0.167,0.408 -0.167,0.906c0,0.499 -0.075,0.954 -0.166,1.01c-0.092,0.057 -0.167,0.503 -0.167,0.992c0,0.637 -0.071,0.917 -0.25,0.985c-0.176,0.068 -0.25,0.343 -0.25,0.935c0,0.461 -0.075,0.838 -0.167,0.838c-0.094,0 -0.166,0.473 -0.166,1.084c0,0.611 -0.073,1.083 -0.167,1.083c-0.092,0 -0.167,0.413 -0.167,0.917c0,0.504 -0.075,0.916 -0.166,0.916c-0.092,0 -0.167,0.405 -0.167,0.899c0,0.645 -0.071,0.926 -0.25,0.995c-0.176,0.067 -0.25,0.342 -0.25,0.925c0,0.455 -0.075,0.875 -0.167,0.931c-0.091,0.057 -0.166,0.511 -0.166,1.01c0,0.499 -0.075,0.907 -0.167,0.907c-0.092,0 -0.167,0.413 -0.167,0.917c0,0.504 -0.075,0.916 -0.166,0.916c-0.092,0 -0.167,0.413 -0.167,0.917c0,0.504 -0.075,0.917 -0.167,0.917c-0.091,0 -0.166,0.412 -0.166,0.916c0,0.704 -0.058,0.917 -0.25,0.917c-0.192,0 -0.25,0.213 -0.25,0.917c0,0.504 -0.075,0.916 -0.167,0.916c-0.092,0 -0.167,0.413 -0.167,0.917c0,0.504 -0.075,0.917 -0.166,0.917c-0.092,0 -0.167,0.412 -0.167,0.916c0,0.504 -0.075,0.917 -0.167,0.917c-0.091,0 -0.166,0.415 -0.166,0.922c0,0.666 -0.07,0.948 -0.25,1.018c-0.18,0.069 -0.25,0.349 -0.25,0.994c0,0.495 -0.075,0.899 -0.167,0.899c-0.092,0 -0.167,0.413 -0.167,0.917c0,0.504 -0.075,0.917 -0.166,0.917c-0.092,0 -0.167,0.412 -0.167,0.916c0,0.504 -0.075,0.917 -0.167,0.917c-0.091,0 -0.166,0.412 -0.166,0.917c0,0.504 -0.075,0.916 -0.167,0.916c-0.092,0 -0.167,0.405 -0.167,0.899c0,0.645 -0.07,0.926 -0.25,0.995c-0.187,0.072 -0.25,0.371 -0.25,1.184c0,0.615 -0.072,1.089 -0.166,1.089c-0.092,0 -0.167,0.412 -0.167,0.917c0,0.504 -0.075,0.916 -0.167,0.916c-0.091,0 -0.166,0.413 -0.166,0.917c0,0.504 -0.075,0.917 -0.167,0.917c-0.092,0 -0.167,0.412 -0.167,0.916c0,0.704 -0.058,0.917 -0.25,0.917c-0.185,0 -0.25,-0.194 -0.25,-0.75c0,-0.413 -0.075,-0.75 -0.166,-0.75c-0.092,0 -0.167,-0.413 -0.167,-0.917c0,-0.504 -0.075,-0.916 -0.167,-0.916c-0.091,0 -0.166,-0.413 -0.166,-0.917c0,-0.504 -0.075,-0.917 -0.167,-0.917c-0.092,0 -0.167,-0.412 -0.167,-0.916c0,-0.704 -0.058,-0.917 -0.25,-0.917c-0.198,0 -0.25,-0.241 -0.25,-1.167c0,-0.666 -0.071,-1.166 -0.166,-1.166c-0.092,0 -0.167,-0.413 -0.167,-0.917c0,-0.504 -0.075,-0.917 -0.167,-0.917c-0.091,0 -0.166,-0.412 -0.166,-0.916c0,-0.505 -0.075,-0.917 -0.167,-0.917c-0.094,0 -0.167,-0.472 -0.167,-1.083c0,-0.611 -0.072,-1.084 -0.166,-1.084c-0.092,0 -0.167,-0.365 -0.167,-0.813c0,-0.519 -0.09,-0.887 -0.25,-1.02c-0.166,-0.137 -0.25,-0.51 -0.25,-1.104c0,-0.493 -0.075,-0.896 -0.167,-0.896c-0.094,0 -0.166,-0.472 -0.166,-1.083c0,-0.611 -0.073,-1.084 -0.167,-1.084c-0.092,0 -0.167,-0.412 -0.167,-0.916c0,-0.505 -0.075,-0.917 -0.166,-0.917c-0.092,0 -0.167,-0.413 -0.167,-0.917c0,-0.703 -0.058,-0.916 -0.25,-0.916c-0.196,0 -0.25,-0.231 -0.25,-1.074c0,-0.59 -0.075,-1.12 -0.167,-1.176c-0.091,-0.057 -0.166,-0.511 -0.166,-1.01c0,-0.499 -0.075,-0.907 -0.167,-0.907c-0.092,0 -0.167,-0.413 -0.167,-0.917c0,-0.504 -0.075,-0.916 -0.166,-0.916c-0.092,0 -0.167,-0.413 -0.167,-0.917c0,-0.504 -0.075,-0.917 -0.167,-0.917c-0.091,0 -0.166,-0.407 -0.166,-0.904c0,-0.582 -0.09,-0.994 -0.25,-1.155c-0.156,-0.156 -0.25,-0.565 -0.25,-1.086c0,-0.459 -0.075,-0.881 -0.167,-0.938c-0.092,-0.057 -0.167,-0.511 -0.167,-1.01c0,-0.499 -0.075,-0.907 -0.166,-0.907c-0.094,0 -0.167,-0.472 -0.167,-1.083c0,-0.611 -0.073,-1.083 -0.167,-1.083c-0.091,0 -0.166,-0.413 -0.166,-0.917c0,-0.704 -0.058,-0.917 -0.25,-0.917c-0.192,0 -0.25,-0.213 -0.25,-0.916c0,-0.504 -0.075,-0.917 -0.167,-0.917c-0.094,0 -0.167,-0.469 -0.167,-1.073c0,-0.591 -0.075,-1.12 -0.166,-1.177c-0.092,-0.057 -0.167,-0.511 -0.167,-1.01c0,-0.499 -0.075,-0.907 -0.167,-0.907c-0.091,0 -0.166,-0.412 -0.166,-0.916c0,-0.704 -0.058,-0.917 -0.25,-0.917c-0.197,0 -0.25,-0.231 -0.25,-1.083c0,-0.611 -0.073,-1.084 -0.167,-1.084c-0.092,0 -0.167,-0.412 -0.167,-0.916c0,-0.505 -0.075,-0.917 -0.166,-0.917c-0.092,0 -0.167,-0.413 -0.167,-0.917c0,-0.504 -0.075,-0.916 -0.167,-0.916c-0.092,0 -0.166,-0.445 -0.166,-1c0,-0.556 -0.074,-1 -0.167,-1c-0.092,0 -0.167,-0.407 -0.167,-0.905c0,-0.582 -0.089,-0.994 -0.25,-1.155c-0.156,-0.156 -0.25,-0.566 -0.25,-1.095c0,-0.465 -0.075,-0.845 -0.166,-0.845c-0.092,0 -0.167,-0.413 -0.167,-0.917c0,-0.504 -0.075,-0.917 -0.167,-0.917c-0.094,0 -0.166,-0.469 -0.166,-1.073c0,-0.591 -0.075,-1.12 -0.167,-1.177c-0.092,-0.056 -0.167,-0.476 -0.167,-0.931c0,-0.583 -0.074,-0.858 -0.25,-0.925c-0.179,-0.069 -0.25,-0.35 -0.25,-0.995c0,-0.494 -0.075,-0.899 -0.166,-0.899c-0.094,0 -0.167,-0.472 -0.167,-1.083c0,-0.611 -0.073,-1.083 -0.167,-1.083c-0.091,0 -0.166,-0.413 -0.166,-0.917c0,-0.504 -0.075,-0.917 -0.167,-0.917c-0.092,0 -0.167,-0.412 -0.167,-0.916c0,-0.505 -0.075,-0.917 -0.166,-0.917c-0.093,0 -0.167,-0.44 -0.167,-0.988c0,-0.656 -0.084,-1.072 -0.25,-1.238c-0.156,-0.157 -0.25,-0.566 -0.25,-1.095c0,-0.465 -0.075,-0.846 -0.167,-0.846c-0.091,0 -0.166,-0.412 -0.166,-0.916c0,-0.505 -0.075,-0.917 -0.167,-0.917c-0.092,0 -0.167,-0.413 -0.167,-0.917c0,-0.504 -0.075,-0.916 -0.166,-0.916c-0.094,0 -0.167,-0.467 -0.167,-1.066c0,-0.793 -0.064,-1.09 -0.25,-1.161c-0.181,-0.07 -0.25,-0.352 -0.25,-1.018l0,-0.922l-13.167,0l-13.166,0l0,1.066" fill="#ffffff" fill-rule="evenodd"/>
    <g id="svg_17">
     <path id="svg_15" d="m57.70854,1.25007c0,0.276 0.075,0.501 0.166,0.501c0.092,0 0.167,0.337 0.167,0.75c0,0.413 0.075,0.75 0.167,0.75c0.091,0 0.166,0.371 0.166,0.823c0,0.453 0.075,0.87 0.167,0.927c0.092,0.057 0.167,0.436 0.167,0.843c0,0.407 0.075,0.74 0.166,0.74c0.092,0 0.167,0.378 0.167,0.839c0,0.592 0.074,0.867 0.25,0.934c0.17,0.066 0.25,0.331 0.25,0.828c0,0.403 0.075,0.733 0.167,0.733c0.091,0 0.166,0.37 0.166,0.823c0,0.453 0.075,0.87 0.167,0.927c0.092,0.056 0.167,0.394 0.167,0.75c0,0.356 0.075,0.693 0.166,0.75c0.092,0.056 0.167,0.476 0.167,0.931c0,0.583 0.074,0.858 0.25,0.925c0.17,0.065 0.25,0.331 0.25,0.828c0,0.403 0.075,0.732 0.167,0.732c0.091,0 0.166,0.338 0.166,0.75c0,0.413 0.075,0.75 0.167,0.75c0.092,0 0.167,0.371 0.167,0.824c0,0.453 0.075,0.87 0.166,0.926c0.092,0.057 0.167,0.436 0.167,0.844c0,0.407 0.075,0.74 0.167,0.74c0.091,0 0.166,0.332 0.166,0.738c0,0.434 0.103,0.841 0.25,0.988c0.141,0.14 0.25,0.547 0.25,0.928c0,0.374 0.075,0.679 0.167,0.679c0.092,0 0.167,0.371 0.167,0.823c0,0.453 0.075,0.87 0.166,0.927c0.092,0.057 0.167,0.394 0.167,0.75c0,0.356 0.075,0.693 0.167,0.75c0.091,0.057 0.166,0.476 0.166,0.932c0,0.583 0.074,0.857 0.25,0.924c0.17,0.066 0.25,0.331 0.25,0.828c0,0.403 0.075,0.733 0.167,0.733c0.092,0 0.167,0.337 0.167,0.75c0,0.412 0.075,0.75 0.166,0.75c0.092,0 0.167,0.412 0.167,0.916c0,0.504 0.075,0.917 0.167,0.917c0.091,0 0.166,0.337 0.166,0.75c0,0.556 0.065,0.75 0.25,0.75c0.192,0 0.25,0.213 0.25,0.917c0,0.504 0.075,0.916 0.167,0.916c0.092,0 0.167,0.338 0.167,0.75c0,0.413 0.075,0.75 0.166,0.75c0.092,0 0.167,0.371 0.167,0.824c0,0.453 0.075,0.87 0.167,0.926c0.091,0.057 0.166,0.436 0.166,0.844c0,0.407 0.075,0.74 0.167,0.74c0.092,0 0.167,0.332 0.167,0.738c0,0.434 0.103,0.841 0.25,0.988c0.14,0.14 0.25,0.547 0.25,0.928c0,0.374 0.075,0.679 0.166,0.679c0.092,0 0.167,0.337 0.167,0.75c0,0.413 0.075,0.75 0.167,0.75c0.091,0 0.166,0.413 0.166,0.917c0,0.504 0.075,0.916 0.167,0.916c0.092,0 0.167,0.303 0.167,0.672c0,0.444 0.085,0.705 0.25,0.768c0.179,0.069 0.25,0.35 0.25,0.995c0,0.494 0.075,0.899 0.166,0.899c0.092,0 0.167,0.337 0.167,0.75c0,0.412 0.075,0.75 0.167,0.75c0.091,0 0.166,0.37 0.166,0.823c0,0.453 0.075,0.87 0.167,0.927c0.092,0.056 0.167,0.436 0.167,0.843c0,0.407 0.075,0.74 0.166,0.74c0.092,0 0.167,0.332 0.167,0.738c0,0.434 0.103,0.841 0.25,0.988c0.14,0.141 0.25,0.548 0.25,0.929c0,0.373 0.075,0.678 0.167,0.678c0.091,0 0.166,0.338 0.166,0.75c0,0.413 0.075,0.75 0.167,0.75c0.092,0 0.167,0.413 0.167,0.917c0,0.504 0.075,0.917 0.166,0.917c0.092,0 0.167,0.302 0.167,0.672c0,0.443 0.085,0.704 0.25,0.767c0.179,0.069 0.25,0.349 0.25,0.985c0,0.489 0.075,0.936 0.167,0.992c0.091,0.057 0.166,0.399 0.166,0.76c0,0.361 0.075,0.657 0.167,0.657c0.092,0 0.167,0.371 0.167,0.823c0,0.453 0.075,0.87 0.166,0.927c0.092,0.057 0.167,0.362 0.167,0.679c0,0.316 0.071,0.706 0.158,0.865c0.087,0.159 0.204,0.646 0.26,1.081c0.056,0.435 0.173,0.792 0.259,0.792c0.086,0 0.156,0.337 0.156,0.75c0,0.412 0.075,0.75 0.167,0.75c0.092,0 0.167,0.337 0.167,0.75c0,0.412 0.075,0.75 0.166,0.75c0.092,0 0.167,0.412 0.167,0.916c0,0.504 0.075,0.917 0.167,0.917c0.091,0 0.166,0.337 0.166,0.75c0,0.556 0.065,0.75 0.25,0.75c0.192,0 0.25,0.212 0.25,0.907c0,0.499 0.075,0.953 0.167,1.01c0.092,0.056 0.167,0.398 0.167,0.76c0,0.361 0.075,0.656 0.166,0.656c0.092,0 0.167,0.371 0.167,0.824c0,0.453 0.075,0.87 0.167,0.926c0.091,0.057 0.166,0.394 0.166,0.748c0,0.355 0.113,0.758 0.25,0.895c0.149,0.149 0.25,0.556 0.25,1.002c0,0.414 0.075,0.799 0.167,0.855c0.092,0.057 0.167,0.399 0.167,0.76c0,0.361 0.075,0.657 0.166,0.657c0.092,0 0.167,0.337 0.167,0.75c0,0.412 0.075,0.75 0.167,0.75c0.091,0 0.166,0.412 0.166,0.917c0,0.504 0.075,0.916 0.167,0.916c0.092,0 0.167,0.338 0.167,0.75c0,0.556 0.064,0.75 0.25,0.75c0.191,0 0.25,0.212 0.25,0.907c0,0.499 0.075,0.953 0.166,1.01c0.092,0.057 0.167,0.394 0.167,0.75c0,0.356 0.075,0.693 0.167,0.75c0.091,0.057 0.166,0.337 0.166,0.623c0,1.154 0.334,1.648 1.078,1.593l0.672,-0.049l0.051,-0.875c0.027,-0.482 0.121,-0.875 0.208,-0.875c0.087,0 0.158,-0.33 0.158,-0.733c0,-0.497 0.08,-0.762 0.25,-0.828c0.176,-0.067 0.25,-0.342 0.25,-0.934c0,-0.461 0.075,-0.839 0.167,-0.839c0.091,0 0.166,-0.337 0.166,-0.75c0,-0.412 0.075,-0.75 0.167,-0.75c0.092,0 0.167,-0.333 0.167,-0.74c0,-0.407 0.075,-0.786 0.166,-0.843c0.092,-0.057 0.167,-0.466 0.167,-0.909c0,-0.562 0.075,-0.834 0.25,-0.901c0.171,-0.066 0.25,-0.334 0.25,-0.851c0,-0.416 0.075,-0.756 0.167,-0.756c0.091,0 0.166,-0.375 0.166,-0.833c0,-0.458 0.075,-0.833 0.167,-0.833c0.092,0 0.167,-0.333 0.167,-0.74c0,-0.408 0.075,-0.787 0.166,-0.844c0.092,-0.056 0.167,-0.473 0.167,-0.926c0,-0.453 0.075,-0.824 0.167,-0.824c0.091,0 0.166,-0.329 0.166,-0.732c0,-0.497 0.081,-0.763 0.25,-0.828c0.176,-0.067 0.25,-0.342 0.25,-0.925c0,-0.455 0.075,-0.875 0.167,-0.931c0.092,-0.057 0.167,-0.394 0.167,-0.75c0,-0.356 0.075,-0.694 0.166,-0.75c0.092,-0.057 0.167,-0.394 0.167,-0.75c0,-0.356 0.075,-0.694 0.167,-0.75c0.091,-0.057 0.166,-0.466 0.166,-0.909c0,-0.562 0.076,-0.835 0.25,-0.902c0.164,-0.063 0.25,-0.323 0.25,-0.758c0,-0.364 0.075,-0.708 0.167,-0.765c0.092,-0.056 0.167,-0.473 0.167,-0.926c0,-0.453 0.075,-0.824 0.166,-0.824c0.092,0 0.167,-0.333 0.167,-0.74c0,-0.407 0.075,-0.786 0.167,-0.843c0.091,-0.057 0.166,-0.441 0.166,-0.855c0,-0.446 0.102,-0.854 0.25,-1.002c0.138,-0.138 0.25,-0.503 0.25,-0.812c0,-0.309 0.075,-0.608 0.167,-0.664c0.092,-0.057 0.167,-0.469 0.167,-0.917c0,-0.448 0.075,-0.86 0.166,-0.917c0.092,-0.056 0.167,-0.398 0.167,-0.76c0,-0.361 0.075,-0.656 0.167,-0.656c0.091,0 0.166,-0.333 0.166,-0.74c0,-0.408 0.075,-0.787 0.167,-0.844c0.092,-0.056 0.167,-0.465 0.167,-0.908c0,-0.563 0.075,-0.835 0.25,-0.902c0.17,-0.065 0.25,-0.332 0.25,-0.841c0,-0.41 0.075,-0.792 0.166,-0.849c0.092,-0.056 0.167,-0.436 0.167,-0.843c0,-0.407 0.075,-0.74 0.167,-0.74c0.091,0 0.166,-0.337 0.166,-0.75c0,-0.413 0.075,-0.75 0.167,-0.75c0.092,0 0.167,-0.403 0.167,-0.896c0,-0.594 0.084,-0.967 0.25,-1.104c0.137,-0.114 0.25,-0.456 0.25,-0.761c0,-0.304 0.075,-0.599 0.166,-0.656c0.092,-0.056 0.167,-0.469 0.167,-0.916c0,-0.448 0.075,-0.86 0.167,-0.917c0.091,-0.057 0.166,-0.399 0.166,-0.76c0,-0.361 0.075,-0.657 0.167,-0.657c0.092,0 0.167,-0.379 0.167,-0.843c0,-0.52 0.064,-0.803 0.166,-0.74c0.104,0.064 0.167,-0.242 0.167,-0.806c0,-0.623 0.073,-0.936 0.232,-0.997c0.222,-0.086 0.327,-0.587 0.539,-2.572c0.051,-0.481 0.161,-0.875 0.244,-0.875c0.084,0 0.152,-0.296 0.152,-0.657c0,-0.361 0.075,-0.703 0.166,-0.76c0.092,-0.056 0.167,-0.464 0.167,-0.906c0,-0.51 0.091,-0.878 0.25,-1.01c0.138,-0.114 0.25,-0.457 0.25,-0.761c0,-0.304 0.075,-0.599 0.167,-0.656c0.091,-0.057 0.166,-0.469 0.166,-0.917c0,-0.447 0.075,-0.86 0.167,-0.916c0.092,-0.057 0.167,-0.394 0.167,-0.75c0,-0.356 0.075,-0.694 0.166,-0.75c0.092,-0.057 0.169,-0.38 0.172,-0.719c0.003,-0.338 0.116,-0.76 0.25,-0.938c0.135,-0.178 0.245,-0.594 0.245,-0.925c0,-0.331 0.067,-0.673 0.15,-0.76c0.141,-0.149 0.232,-0.631 0.455,-2.408c0.052,-0.413 0.162,-0.822 0.244,-0.909c0.083,-0.087 0.151,-0.439 0.151,-0.781c0,-0.343 0.075,-0.67 0.167,-0.727c0.091,-0.057 0.166,-0.511 0.166,-1.01c0,-0.695 0.059,-0.907 0.25,-0.907c0.186,0 0.25,-0.194 0.25,-0.75c0,-0.412 0.075,-0.75 0.167,-0.75c0.092,0 0.167,-0.412 0.167,-0.916c0,-0.505 0.075,-0.917 0.166,-0.917c0.092,0 0.167,-0.296 0.167,-0.657c0,-0.361 0.075,-0.703 0.167,-0.76c0.091,-0.056 0.169,-0.379 0.172,-0.718c0.003,-0.338 0.115,-0.761 0.25,-0.939c0.134,-0.177 0.244,-0.604 0.244,-0.948c0,-0.344 0.075,-0.671 0.167,-0.728c0.092,-0.057 0.167,-0.432 0.167,-0.833c0,-0.402 0.075,-0.777 0.166,-0.834c0.092,-0.056 0.167,-0.473 0.167,-0.926c0,-0.453 0.075,-0.824 0.167,-0.824c0.091,0 0.166,-0.337 0.166,-0.75c0,-0.412 0.075,-0.75 0.167,-0.75c0.092,0 0.167,-0.412 0.167,-0.916c0,-0.704 0.058,-0.917 0.25,-0.917c0.185,0 0.25,-0.194 0.25,-0.75c0,-0.413 0.075,-0.75 0.166,-0.75c0.092,0 0.167,-0.413 0.167,-0.917c0,-0.504 0.075,-0.916 0.167,-0.916c0.091,0 0.166,-0.296 0.166,-0.657c0,-0.361 0.075,-0.703 0.167,-0.76c0.092,-0.057 0.169,-0.38 0.172,-0.718c0.003,-0.339 0.115,-0.761 0.25,-0.939c0.135,-0.178 0.245,-0.647 0.245,-1.042c0,-0.395 0.079,-0.718 0.176,-0.718c0.103,0 0.155,-0.263 0.125,-0.625l-0.051,-0.625l-23.125,-0.042l-23.125,-0.042l0,0.5" fill="#046cbc" fill-rule="evenodd"/>
     <path id="svg_14" d="m2.04154,64.00007l0,63.251l30.5,0l30.5,0l0,-0.583c0,-0.321 -0.075,-0.584 -0.167,-0.584c-0.091,0 -0.166,-0.37 -0.166,-0.823c0,-0.453 -0.075,-0.87 -0.167,-0.927c-0.092,-0.056 -0.167,-0.383 -0.167,-0.726c0,-0.343 -0.071,-0.695 -0.158,-0.782c-0.088,-0.088 -0.178,-0.438 -0.201,-0.779c-0.023,-0.341 -0.139,-0.657 -0.258,-0.703c-0.133,-0.051 -0.216,-0.373 -0.216,-0.838c0,-0.415 -0.075,-0.755 -0.167,-0.755c-0.091,0 -0.166,-0.338 -0.166,-0.75c0,-0.413 -0.075,-0.75 -0.167,-0.75c-0.092,0 -0.167,-0.296 -0.167,-0.657c0,-0.361 -0.075,-0.703 -0.166,-0.76c-0.092,-0.056 -0.168,-0.342 -0.169,-0.635c-0.003,-0.726 -0.172,-1.297 -0.35,-1.186c-0.082,0.05 -0.148,-0.246 -0.148,-0.659c0,-0.412 -0.075,-0.796 -0.167,-0.853c-0.091,-0.057 -0.166,-0.394 -0.166,-0.75c0,-0.356 -0.075,-0.693 -0.167,-0.75c-0.092,-0.057 -0.167,-0.399 -0.167,-0.76c0,-0.361 -0.075,-0.657 -0.166,-0.657c-0.092,0 -0.167,-0.337 -0.167,-0.75c0,-0.412 -0.075,-0.75 -0.167,-0.75c-0.091,0 -0.166,-0.302 -0.166,-0.672c0,-0.443 -0.085,-0.704 -0.25,-0.767c-0.18,-0.069 -0.25,-0.35 -0.25,-0.995c0,-0.495 -0.075,-0.899 -0.167,-0.899c-0.092,0 -0.167,-0.338 -0.167,-0.75c0,-0.413 -0.075,-0.75 -0.166,-0.75c-0.092,0 -0.167,-0.285 -0.167,-0.633c0,-0.349 -0.071,-0.705 -0.158,-0.792c-0.087,-0.087 -0.176,-0.477 -0.199,-0.867c-0.026,-0.45 -0.121,-0.708 -0.259,-0.708c-0.146,0 -0.217,-0.244 -0.217,-0.75c0,-0.413 -0.075,-0.75 -0.167,-0.75c-0.092,0 -0.167,-0.338 -0.167,-0.75c0,-0.413 -0.075,-0.75 -0.166,-0.75c-0.092,0 -0.167,-0.371 -0.167,-0.823c0,-0.453 -0.075,-0.87 -0.167,-0.927c-0.091,-0.057 -0.166,-0.391 -0.166,-0.742c0,-0.414 -0.088,-0.673 -0.25,-0.735c-0.172,-0.066 -0.25,-0.334 -0.25,-0.851c0,-0.415 -0.075,-0.755 -0.167,-0.755c-0.092,0 -0.167,-0.296 -0.167,-0.657c0,-0.361 -0.075,-0.703 -0.166,-0.76c-0.092,-0.057 -0.167,-0.441 -0.167,-0.853c0,-0.458 -0.065,-0.71 -0.167,-0.647c-0.101,0.063 -0.166,-0.189 -0.166,-0.647c0,-0.412 -0.066,-0.79 -0.145,-0.84c-0.08,-0.049 -0.183,-0.482 -0.229,-0.961c-0.046,-0.479 -0.169,-0.899 -0.272,-0.934c-0.103,-0.034 -0.188,-0.352 -0.188,-0.705c0,-0.354 -0.075,-0.69 -0.166,-0.746c-0.092,-0.057 -0.167,-0.399 -0.167,-0.76c0,-0.361 -0.075,-0.657 -0.167,-0.657c-0.091,0 -0.166,-0.338 -0.166,-0.75c0,-0.413 -0.075,-0.75 -0.167,-0.75c-0.092,0 -0.167,-0.302 -0.167,-0.672c0,-0.443 -0.085,-0.704 -0.25,-0.768c-0.169,-0.065 -0.25,-0.331 -0.25,-0.828c0,-0.403 -0.075,-0.732 -0.166,-0.732c-0.092,0 -0.167,-0.413 -0.167,-0.917c0,-0.504 -0.075,-0.916 -0.167,-0.916c-0.091,0 -0.166,-0.338 -0.166,-0.75c0,-0.413 -0.075,-0.75 -0.167,-0.75c-0.092,0 -0.167,-0.296 -0.167,-0.657c0,-0.361 -0.075,-0.703 -0.166,-0.76c-0.092,-0.057 -0.167,-0.356 -0.167,-0.665c0,-0.308 -0.113,-0.674 -0.25,-0.811c-0.14,-0.141 -0.25,-0.548 -0.25,-0.929c0,-0.373 -0.075,-0.678 -0.167,-0.678c-0.091,0 -0.166,-0.285 -0.166,-0.634c0,-0.348 -0.068,-0.704 -0.151,-0.791c-0.083,-0.087 -0.193,-0.496 -0.245,-0.909c-0.216,-1.725 -0.317,-2.164 -0.538,-2.347c-0.135,-0.112 -0.233,-0.501 -0.233,-0.923c0,-0.401 -0.075,-0.73 -0.167,-0.73c-0.091,0 -0.166,-0.337 -0.166,-0.75c0,-0.412 -0.075,-0.75 -0.167,-0.75c-0.092,0 -0.167,-0.337 -0.167,-0.75c0,-0.412 -0.075,-0.75 -0.166,-0.75c-0.092,0 -0.167,-0.295 -0.167,-0.656c0,-0.362 -0.075,-0.704 -0.167,-0.76c-0.091,-0.057 -0.167,-0.343 -0.167,-0.635c-0.001,-0.293 -0.113,-0.747 -0.25,-1.009c-0.137,-0.263 -0.249,-0.732 -0.249,-1.042c0,-0.31 -0.075,-0.564 -0.167,-0.564c-0.092,0 -0.167,-0.338 -0.167,-0.75c0,-0.413 -0.075,-0.75 -0.166,-0.75c-0.092,0 -0.167,-0.332 -0.167,-0.736c0,-0.405 -0.071,-0.762 -0.158,-0.792c-0.087,-0.031 -0.177,-0.374 -0.2,-0.764c-0.026,-0.45 -0.12,-0.708 -0.258,-0.708c-0.146,0 -0.217,-0.245 -0.217,-0.75c0,-0.413 -0.075,-0.75 -0.167,-0.75c-0.092,0 -0.167,-0.371 -0.167,-0.824c0,-0.453 -0.075,-0.87 -0.166,-0.926c-0.092,-0.057 -0.167,-0.436 -0.167,-0.844c0,-0.407 -0.075,-0.74 -0.167,-0.74c-0.091,0 -0.166,-0.302 -0.166,-0.672c0,-0.443 -0.085,-0.704 -0.25,-0.767c-0.17,-0.066 -0.25,-0.331 -0.25,-0.828c0,-0.403 -0.075,-0.733 -0.167,-0.733c-0.092,0 -0.167,-0.337 -0.167,-0.75c0,-0.412 -0.075,-0.75 -0.166,-0.75c-0.092,0 -0.167,-0.337 -0.167,-0.75c0,-0.412 -0.075,-0.75 -0.167,-0.75c-0.091,0 -0.166,-0.37 -0.166,-0.823c0,-0.453 -0.075,-0.87 -0.167,-0.927c-0.092,-0.056 -0.167,-0.352 -0.167,-0.656c0,-0.304 -0.112,-0.646 -0.25,-0.76c-0.142,-0.118 -0.25,-0.482 -0.25,-0.844c0,-0.35 -0.075,-0.683 -0.166,-0.74c-0.092,-0.056 -0.167,-0.436 -0.167,-0.843c0,-0.407 -0.075,-0.74 -0.167,-0.74c-0.091,0 -0.166,-0.296 -0.166,-0.657c0,-0.361 -0.075,-0.703 -0.167,-0.76c-0.092,-0.056 -0.167,-0.39 -0.167,-0.742c0,-0.414 -0.088,-0.672 -0.25,-0.735c-0.176,-0.067 -0.25,-0.341 -0.25,-0.924c0,-0.456 -0.075,-0.875 -0.166,-0.932c-0.092,-0.057 -0.167,-0.399 -0.167,-0.76c0,-0.361 -0.075,-0.657 -0.167,-0.657c-0.091,0 -0.166,-0.337 -0.166,-0.75c0,-0.412 -0.075,-0.75 -0.167,-0.75c-0.092,0 -0.167,-0.337 -0.167,-0.75c0,-0.412 -0.075,-0.75 -0.166,-0.75c-0.092,0 -0.167,-0.257 -0.167,-0.571c0,-0.314 -0.113,-0.684 -0.25,-0.822c-0.14,-0.14 -0.25,-0.547 -0.25,-0.928c0,-0.373 -0.075,-0.679 -0.167,-0.679c-0.091,0 -0.166,-0.412 -0.166,-0.916c0,-0.505 -0.075,-0.917 -0.167,-0.917c-0.092,0 -0.167,-0.338 -0.167,-0.75c0,-0.413 -0.075,-0.75 -0.166,-0.75c-0.092,0 -0.167,-0.302 -0.167,-0.672c0,-0.443 -0.085,-0.704 -0.25,-0.768c-0.17,-0.065 -0.25,-0.331 -0.25,-0.828c0,-0.403 -0.075,-0.732 -0.167,-0.732c-0.091,0 -0.166,-0.338 -0.166,-0.75c0,-0.413 -0.075,-0.75 -0.167,-0.75c-0.092,0 -0.167,-0.338 -0.167,-0.75c0,-0.412 -0.075,-0.75 -0.166,-0.75c-0.092,0 -0.167,-0.367 -0.167,-0.816c0,-0.571 -0.075,-0.844 -0.25,-0.911c-0.164,-0.063 -0.25,-0.323 -0.25,-0.758c0,-0.364 -0.075,-0.708 -0.167,-0.765c-0.091,-0.057 -0.166,-0.436 -0.166,-0.843c0,-0.407 -0.075,-0.74 -0.167,-0.74c-0.092,0 -0.167,-0.342 -0.167,-0.76c0,-0.464 -0.065,-0.72 -0.166,-0.657c-0.102,0.063 -0.167,-0.189 -0.167,-0.647c0,-0.412 -0.075,-0.796 -0.167,-0.853c-0.091,-0.057 -0.166,-0.399 -0.166,-0.76c0,-0.473 -0.07,-0.657 -0.25,-0.657c-0.186,0 -0.25,-0.194 -0.25,-0.75c0,-0.412 -0.075,-0.75 -0.167,-0.75c-0.092,0 -0.167,-0.412 -0.167,-0.916c0,-0.504 -0.07,-0.917 -0.157,-0.917c-0.086,0 -0.18,-0.319 -0.208,-0.708l-0.051,-0.709l-15.459,-0.042l-15.458,-0.043l0,63.251" fill="#cc6c14" fill-rule="evenodd"/>
     <path id="svg_13" d="m126.08354,13.36707c-0.118,0.044 -0.209,0.36 -0.209,0.721c0,0.354 -0.075,0.69 -0.166,0.746c-0.092,0.057 -0.167,0.399 -0.167,0.76c0,0.361 -0.075,0.657 -0.167,0.657c-0.091,0 -0.166,0.337 -0.166,0.75c0,0.412 -0.071,0.75 -0.157,0.75c-0.086,0 -0.207,0.337 -0.269,0.75c-0.062,0.412 -0.179,0.75 -0.26,0.75c-0.081,0 -0.148,0.337 -0.148,0.75c0,0.412 -0.075,0.75 -0.166,0.75c-0.092,0 -0.167,0.337 -0.167,0.75c0,0.412 -0.075,0.75 -0.167,0.75c-0.091,0 -0.166,0.337 -0.166,0.75c0,0.412 -0.075,0.75 -0.167,0.75c-0.092,0 -0.167,0.329 -0.167,0.732c0,0.497 -0.08,0.763 -0.25,0.828c-0.155,0.06 -0.25,0.314 -0.25,0.675c0,0.318 -0.075,0.625 -0.166,0.682c-0.092,0.056 -0.167,0.436 -0.167,0.843c0,0.407 -0.075,0.74 -0.167,0.74c-0.091,0 -0.166,0.296 -0.166,0.657c0,0.361 -0.075,0.703 -0.167,0.76c-0.092,0.056 -0.167,0.392 -0.167,0.746c0,0.353 -0.083,0.67 -0.185,0.704c-0.103,0.035 -0.219,0.357 -0.258,0.718c-0.04,0.36 -0.128,0.695 -0.196,0.743c-0.067,0.049 -0.145,0.389 -0.172,0.755c-0.027,0.367 -0.118,0.738 -0.202,0.825c-0.084,0.087 -0.153,0.444 -0.153,0.792c0,0.348 -0.075,0.633 -0.167,0.633c-0.092,0 -0.167,0.338 -0.167,0.75c0,0.413 -0.075,0.75 -0.166,0.75c-0.092,0 -0.167,0.338 -0.167,0.75c0,0.556 -0.065,0.75 -0.25,0.75c-0.185,0 -0.25,0.195 -0.25,0.75c0,0.413 -0.075,0.75 -0.167,0.75c-0.091,0 -0.166,0.338 -0.166,0.75c0,0.413 -0.075,0.75 -0.167,0.75c-0.092,0 -0.167,0.296 -0.167,0.657c0,0.361 -0.075,0.703 -0.166,0.76c-0.092,0.057 -0.167,0.392 -0.167,0.746c0,0.354 -0.082,0.67 -0.183,0.704c-0.101,0.033 -0.223,0.416 -0.272,0.851c-0.049,0.434 -0.154,0.83 -0.234,0.879c-0.079,0.049 -0.144,0.385 -0.144,0.747c0,0.361 -0.075,0.656 -0.167,0.656c-0.092,0 -0.167,0.3 -0.167,0.667c0,0.367 -0.06,0.667 -0.134,0.667c-0.073,0 -0.152,0.318 -0.175,0.708c-0.022,0.39 -0.112,0.733 -0.199,0.764c-0.087,0.03 -0.158,0.379 -0.158,0.774c0,0.484 -0.082,0.749 -0.25,0.814c-0.172,0.066 -0.25,0.335 -0.25,0.861c0,0.468 -0.065,0.725 -0.167,0.662c-0.103,-0.064 -0.167,0.248 -0.167,0.823c0,0.51 -0.075,0.927 -0.166,0.927c-0.092,0 -0.167,0.337 -0.167,0.75c0,0.413 -0.075,0.75 -0.167,0.75c-0.091,0 -0.166,0.337 -0.166,0.75c0,0.556 -0.065,0.75 -0.25,0.75c-0.186,0 -0.25,0.194 -0.25,0.75c0,0.413 -0.075,0.75 -0.167,0.75c-0.092,0 -0.167,0.296 -0.167,0.657c0,0.361 -0.075,0.703 -0.166,0.76c-0.092,0.056 -0.167,0.394 -0.167,0.75c0,0.356 -0.075,0.693 -0.167,0.75c-0.091,0.056 -0.166,0.392 -0.166,0.746c0,0.353 -0.08,0.669 -0.178,0.702c-0.097,0.032 -0.22,0.376 -0.272,0.764c-0.052,0.387 -0.159,0.704 -0.239,0.704c-0.08,0 -0.145,0.338 -0.145,0.75c0,0.413 -0.075,0.75 -0.166,0.75c-0.092,0 -0.167,0.338 -0.167,0.75c0,0.413 -0.075,0.75 -0.167,0.75c-0.091,0 -0.166,0.338 -0.166,0.75c0,0.413 -0.075,0.75 -0.167,0.75c-0.092,0 -0.167,0.338 -0.167,0.75c0,0.556 -0.064,0.75 -0.25,0.75c-0.185,0 -0.25,0.195 -0.25,0.75c0,0.413 -0.075,0.75 -0.166,0.75c-0.092,0 -0.167,0.338 -0.167,0.75c0,0.413 -0.075,0.75 -0.167,0.75c-0.091,0 -0.166,0.338 -0.166,0.75c0,0.413 -0.075,0.75 -0.167,0.75c-0.092,0 -0.167,0.294 -0.167,0.653c0,0.359 -0.081,0.68 -0.18,0.713c-0.099,0.033 -0.218,0.358 -0.265,0.722c-0.047,0.364 -0.154,0.734 -0.237,0.821c-0.083,0.087 -0.151,0.439 -0.151,0.781c0,0.343 -0.075,0.67 -0.167,0.727c-0.091,0.057 -0.166,0.394 -0.166,0.75c0,0.356 -0.075,0.693 -0.167,0.75c-0.092,0.057 -0.167,0.399 -0.167,0.76c0,0.361 -0.075,0.657 -0.166,0.657c-0.092,0 -0.167,0.305 -0.167,0.678c0,0.381 -0.11,0.788 -0.25,0.929c-0.138,0.137 -0.25,0.503 -0.25,0.811c0,0.309 -0.075,0.608 -0.167,0.665c-0.091,0.057 -0.166,0.399 -0.166,0.76c0,0.361 -0.075,0.657 -0.167,0.657c-0.092,0 -0.167,0.337 -0.167,0.75c0,0.412 -0.075,0.75 -0.166,0.75c-0.092,0 -0.167,0.329 -0.167,0.732c0,0.497 -0.08,0.763 -0.25,0.828c-0.165,0.063 -0.25,0.324 -0.25,0.768c0,0.369 -0.075,0.672 -0.167,0.672c-0.091,0 -0.166,0.337 -0.166,0.75c0,0.412 -0.075,0.75 -0.167,0.75c-0.092,0 -0.167,0.295 -0.167,0.656c0,0.362 -0.075,0.704 -0.166,0.76c-0.092,0.057 -0.167,0.399 -0.167,0.76c0,0.361 -0.075,0.657 -0.167,0.657c-0.091,0 -0.166,0.375 -0.166,0.833c0,0.572 -0.068,0.834 -0.216,0.834c-0.131,0 -0.233,0.246 -0.258,0.624c-0.023,0.344 -0.114,0.696 -0.201,0.784c-0.087,0.087 -0.159,0.439 -0.159,0.782c0,0.343 -0.075,0.67 -0.166,0.726c-0.092,0.057 -0.167,0.399 -0.167,0.76c0,0.361 -0.075,0.657 -0.167,0.657c-0.091,0 -0.166,0.329 -0.166,0.732c0,0.444 -0.085,0.765 -0.215,0.815c-0.118,0.045 -0.234,0.372 -0.257,0.726c-0.024,0.354 -0.115,0.669 -0.202,0.699c-0.088,0.031 -0.16,0.387 -0.16,0.792c0,0.405 -0.075,0.736 -0.166,0.736c-0.092,0 -0.167,0.337 -0.167,0.75c0,0.412 -0.075,0.75 -0.167,0.75c-0.091,0 -0.166,0.404 -0.166,0.899c0,0.599 -0.075,0.927 -0.225,0.985c-0.123,0.047 -0.231,0.328 -0.239,0.624c-0.008,0.296 -0.095,0.617 -0.193,0.715c-0.097,0.097 -0.177,0.462 -0.177,0.81c0,0.349 -0.075,0.634 -0.166,0.634c-0.092,0 -0.167,0.333 -0.167,0.74c0,0.407 -0.075,0.786 -0.167,0.843c-0.091,0.057 -0.166,0.399 -0.166,0.76c0,0.361 -0.075,0.657 -0.167,0.657c-0.092,0 -0.167,0.337 -0.167,0.75c0,0.555 -0.064,0.75 -0.25,0.75c-0.184,0 -0.25,0.193 -0.25,0.74c0,0.407 -0.075,0.786 -0.166,0.843c-0.092,0.057 -0.167,0.399 -0.167,0.76c0,0.361 -0.075,0.657 -0.167,0.657c-0.091,0 -0.166,0.337 -0.166,0.75c0,0.412 -0.075,0.75 -0.167,0.75c-0.092,0 -0.167,0.329 -0.167,0.732c0,0.497 -0.08,0.763 -0.25,0.828c-0.165,0.063 -0.25,0.324 -0.25,0.768c0,0.369 -0.079,0.672 -0.175,0.672c-0.107,0 -0.156,0.342 -0.125,0.875l0.05,0.875l3.629,0.045c3.121,0.038 3.643,0.009 3.726,-0.209c0.086,-0.223 1.365,-0.253 10.663,-0.253l10.566,0l0,-56.468c0,-58.472 0.014,-57.155 -0.625,-56.916" fill="#0ca43c" fill-rule="evenodd"/>
    </g>
   </g>
  </g>
 </g>
</svg>